<svg id="Livello_1" data-name="Livello 1" xmlns="http://www.w3.org/2000/svg" width="749.94" height="436.94" viewBox="0 0 749.94 436.94">
  <defs>
    <style>
      .cls-1 {
        fill: #fff;
      }
    </style>
  </defs>
  <title>cza</title>
  <g>
    <path class="cls-1" d="M-274,319V-118H476V319ZM380-88.06H-169.56v364.9H380Z" transform="translate(273.97 117.97)"/>
    <path d="M380-88.06v364.9H-169.56V-88.06Zm-527.3,342.73h505V-65.8h-505Z" transform="translate(273.97 117.97)"/>
    <path class="cls-1" d="M-147.34,254.67V-65.8h505V254.67Zm468-68.51C299,124.51,277.54,63.42,256.12,2.45h-23l-64.59,183.8h28.86L211,145.93h67.42L292,186.16ZM153.38,2.5H40.43V27.63h79.19c-1.19,2.31-1.93,3.93-2.83,5.45C92.71,73.77,68.92,114.64,44.28,155c-6.36,10.41-3.38,20.67-4.51,31.22H153.19V160H70.33c1-1.8,1.54-2.81,2.13-3.79,25.17-41.21,50-82.63,75.76-123.45C154.53,22.75,153.1,13,153.38,2.5ZM24.24,55.27c-.26-1.78-.35-3-.61-4.06C15.79,18.34-8.63-.26-42.4.89c-30.94,1-57.47,26.54-58.47,57.39-.77,23.78-.7,47.62,0,71.4.74,25.72,18.36,47.87,42.6,55.35,26.61,8.21,53.88.35,69.72-20.36a66.38,66.38,0,0,0,12.74-29.48H-4.06c-2.33,3.74-4.3,7.42-6.74,10.75-8.68,11.82-21.93,16.66-35.62,13.24-14-3.49-24.73-14.69-26.44-28.69a280.83,280.83,0,0,1,0-72.24c3.54-26,34.58-38.66,55.19-22.45,6,4.71,9.81,12.19,15.45,19.47Z" transform="translate(273.97 117.97)"/>
    <path d="M320.65,186.16H292l-13.64-40.23H211l-13.54,40.32H168.55L233.14,2.45h23C277.54,63.42,299,124.51,320.65,186.16ZM245.22,41.62l-1-.25c-8.39,26.19-16.77,52.37-25.24,78.82h51.42Z" transform="translate(273.97 117.97)"/>
    <path d="M153.38,2.5c-.28,10.46,1.15,20.25-5.16,30.23C122.45,73.55,97.63,115,72.46,156.18c-.59,1-1.12,2-2.13,3.79h82.86v26.24H39.77c1.13-10.55-1.85-20.81,4.51-31.22,24.64-40.35,48.43-81.22,72.51-121.91.9-1.52,1.64-3.14,2.83-5.45H40.43V2.5Z" transform="translate(273.97 117.97)"/>
    <path d="M24.24,55.27H-2.19C-7.83,48-11.65,40.51-17.64,35.8c-20.61-16.21-51.65-3.56-55.19,22.45a280.83,280.83,0,0,0,0,72.24c1.71,14,12.48,25.2,26.44,28.69,13.69,3.42,26.94-1.42,35.62-13.24,2.44-3.33,4.41-7,6.74-10.75H24.18a66.38,66.38,0,0,1-12.74,29.48C-4.4,185.38-31.67,193.24-58.28,185c-24.24-7.48-41.86-29.63-42.6-55.35-.69-23.78-.76-47.62,0-71.4C-99.87,27.43-73.34,1.94-42.4.89c33.77-1.15,58.19,17.45,66,50.32C23.89,52.32,24,53.49,24.24,55.27Z" transform="translate(273.97 117.97)"/>
    <path class="cls-1" d="M245.22,41.62l25.2,78.57H219c8.47-26.45,16.85-52.63,25.24-78.82Z" transform="translate(273.97 117.97)"/>
  </g>
</svg>
