<svg id="Livello_1" data-name="Livello 1" xmlns="http://www.w3.org/2000/svg" width="960" height="550.5" viewBox="0 0 960 550.5">
  <defs>
    <style>
      .cls-1 {
        fill: #fff;
      }

      .cls-2 {
        fill: none;
        stroke: #000;
        stroke-linecap: round;
        stroke-linejoin: round;
        stroke-width: 2px;
      }
    </style>
  </defs>
  <title>fgf</title>
  <g>
    <path class="cls-1" d="M231-174H581V376H238q0-151,0-302c0-7.74-.69-7,6.93-7H572.4c1.5,0,3-.07,4.5,0,2.46.12,3.1-1.16,3.13-3.38.06-4.16-.2-4.54-4.38-4.62-1.34,0-2.67,0-4,0H245.19c-1.5,0-3,0-4.5,0-1.88,0-2.72-.93-2.68-2.77,0-1,0-2,0-3-.54-19,1.14-37.94-1-56.87-.79-7.08-1.26-14.19-2.24-21.24-1-7.37-2.41-14.69-3.73-22-2.47-13.69-5.06-27.36-7.51-41-1.28-7.17-3.11-14.35-3.33-21.56-.35-11.44-1.29-23,.91-34.35a153.62,153.62,0,0,1,4.71-17.75C227.19-165.86,229.25-169.88,231-174Z" transform="translate(379 174.5)"/>
    <path d="M231-174c-1.75,4.12-3.81,8.14-5.18,12.38a153.62,153.62,0,0,0-4.71,17.75c-2.2,11.36-1.26,22.91-.91,34.35.22,7.21,2.05,14.39,3.33,21.56,2.45,13.69,5,27.36,7.51,41.05,1.32,7.32,2.72,14.64,3.73,22,1,7,1.45,14.16,2.24,21.24,2.13,18.93.45,37.92,1,56.87,0,1,0,2,0,3,0,1.84.8,2.79,2.68,2.77,1.5,0,3,0,4.5,0H571.65c1.33,0,2.66,0,4,0,4.18.08,4.44.46,4.38,4.62,0,2.22-.67,3.5-3.13,3.38-1.5-.08-3,0-4.5,0H244.94c-7.62,0-6.93-.71-6.93,7q0,151,0,302H162c-3.47-3.31-6.72-6.87-10.44-9.86a77.26,77.26,0,0,0-19.8-11.33A126.6,126.6,0,0,0,104.57,347c-7.66-1.23-15.37-2.28-23.09-3.09-8-.84-16.15-1.81-24.22-1.82-11.78,0-23.54-.53-35.36.69-10.19,1-20.53.35-30.83,1a266.05,266.05,0,0,0-26.68,2.47c-14.32,2.33-28.16,6.56-40.35,14.81-5.92,4-11.49,8.49-15,14.94h-19a17.75,17.75,0,0,1,2.28-3.69,87.78,87.78,0,0,1,7.5-6.54,140.74,140.74,0,0,1,12.77-9.45c5.37-3.31,11.13-6,16.71-9,1.41-.75,2.78-1.56,4.73-2.66-11-3.4-21.15-6.81-30.49-12.37a68.54,68.54,0,0,1-20-17.83c-11.54-15.46-14.72-33.14-11.13-52,3-15.64,11.87-27.33,25.41-35.31,14.46-8.54,30.48-13.13,46.64-17.19,5.92-1.48,11.88-2.77,18.86-4.39C-68.6,189.45-96.06,169.75-112,137.35l-1,.46v68.26c0,1.33.06,2.67,0,4-.19,2.68-.59,2.94-4,2.93s-3.64-.24-4-3c-.68-6.25-1-12.59-2.24-18.72-3.09-14.86-7.67-29.19-15.73-42.29-7.05-11.46-15.62-21.51-26.39-29.53-19.32-14.36-41.45-20.77-65.23-21.34-19.49-.45-39-.1-58.49-.08-7.61,0-6.91-.7-6.91,7q0,135.47,0,270.94h-83V-174h83V81.38c0,1.33,0,2.66,0,4,.15,3.4.25,3.49,3.84,3.62,1,0,2,0,3,0,16.66,0,33.32.08,50,0,7,0,13.89.2,20.89-.8A104.44,104.44,0,0,0-192,80.9c18.47-7.87,33.36-20.48,45.63-36.17a118.36,118.36,0,0,0,21.62-44A108.73,108.73,0,0,0-121-29.75c-.12-4,.24-4.18,3.69-4.25,3.88-.07,4.16.2,4.26,4.21,0,1,0,2,0,3V45.3C-91.19,4.38-57.39-18.57-13.95-28.64-16-29-17.82-29-18.09-32c-.69-7.57-1.63-15.14-3-22.62A148.77,148.77,0,0,0-35.15-96,158.85,158.85,0,0,0-55-125.76a141.06,141.06,0,0,0-31.23-27.59,140.93,140.93,0,0,0-35.09-16.6c-4.24-1.32-8.47-2.7-12.7-4.05H-10V-36c0,1.33-.06,2.67,0,4,.17,2.74.74,3,3.41,2.75,6.08-.65,12.18-1.65,18.27-1.6,6.59.06,13.18,1.05,19.76,1.78C45.88-27.49,59.19-22.35,72-15.92A183.71,183.71,0,0,1,101,2.5c4.05,3.1,8,6.29,12.31,9.65,1-1.23,2-2.15,2.69-3.21,1.66-2.49,3.12-5.11,4.83-7.56C129-10.35,139.41-19.44,153-24.41c5.25-1.93,10.81-3,16.26-4.42,3.67-.93,3.8-.85,3.77-4.33-.13-13.62,0-27.23,2-40.75.91-6,1.41-12.18,2.63-18.17,1.49-7.3,3.42-14.53,5.39-21.73a146.88,146.88,0,0,1,17.13-39.68C204.62-160.62,210-167.18,215-174ZM89.39,93.13c-.47-4.94-1.33-9.72-1.3-14.49C88.15,68,86.8,57.49,85.07,47c-2-12-5.16-23.62-10.78-34.53-6.7-13-16.13-23-29.57-29.18-10-4.61-20.8-5.53-31.53-6.1C7.82-23.08,2.32-21.88-3-20.91A60.52,60.52,0,0,0-34.53-4.78a69,69,0,0,0-13.57,19c-9.17,18.14-12.85,37.76-13.67,57.69-.9,21.7-1.12,43.51,2.73,65.1,2.44,13.69,6.17,26.89,13.09,39A59.2,59.2,0,0,0-32.1,192.23c12.85,10.59,28.32,13.22,44.29,13.64,4.73.13,9.51-1.07,14.25-1.77a60,60,0,0,0,37.91-20.79,83.08,83.08,0,0,0,15.54-27.59,131.06,131.06,0,0,0,7.18-34.46C87.67,111.84,88.61,102.45,89.39,93.13ZM170,321.84v-247c0-.5,0-1,0-1.5,0-5.31,0-5.33-5.12-5.35q-8.5,0-17,0c-1.45,0-2.9.19-4.62.3.26,1.22.45,2,.6,2.8,1,5.53,2.84,11,3,16.6.2,9.11.68,18.23-.67,27.39-3,20.23-11.74,37.73-24.89,53-12,13.88-26.73,24.22-43.58,31.72A152.77,152.77,0,0,1,13.84,213c-5,0-9.92-.56-14.87-.93-3.8-.28-7.61-1.09-11.38-.92-5.93.29-11.83,1.39-17.76,1.81A143.84,143.84,0,0,0-59,218.28c-13.21,3.73-25.73,8.9-35.37,19.46s-8,24.66,0,33.47c7.17,8,16.4,11.65,26.48,13.82a118.32,118.32,0,0,0,20.11,3.1c9.27.38,18.5,1.61,27.76,1.8,37.29.76,74.6-1.18,111.87,1.09a107.93,107.93,0,0,1,13.35,1.29,221.74,221.74,0,0,1,21.8,4.95c13,3.81,25.24,9.31,35.44,18.6C164.61,317.84,167,319.52,170,321.84ZM154.71,59c3.49,0,7,0,10.48,0,4.2,0,4.19-.05,4.87-4.14A32.11,32.11,0,0,0,171,50c.14-13.78-.19-27.56,1-41.32.37-4.3-.05-8.66.09-13,.16-5,.48-9.92.84-14.87.14-2-.66-2.72-2.53-2.79a29.7,29.7,0,0,0-13.47,3.08c-16.38,7.45-27.05,20.46-35,36.11a4.77,4.77,0,0,0,.33,5.14,200.06,200.06,0,0,1,17,33.8c.75,2,1.87,3,4.07,2.88C147.05,58.91,150.88,59,154.71,59Z" transform="translate(379 174.5)"/>
    <path class="cls-1" d="M-134-174c4.23,1.35,8.46,2.73,12.7,4.05a140.93,140.93,0,0,1,35.09,16.6A141.06,141.06,0,0,1-55-125.76,158.85,158.85,0,0,1-35.15-96,148.77,148.77,0,0,1-21.07-54.59c1.35,7.48,2.29,15.05,3,22.62.27,3,2.05,2.93,4.14,3.33-43.44,10.07-77.24,33-99,73.94V-26.79c0-1,0-2,0-3-.1-4-.38-4.28-4.26-4.21-3.45.07-3.81.27-3.69,4.25A108.73,108.73,0,0,1-124.72.75a118.36,118.36,0,0,1-21.62,44C-158.61,60.42-173.5,73-192,80.9a104.44,104.44,0,0,1-26.31,7.26c-7,1-13.93.76-20.89.8-16.66.12-33.32,0-50,0-1,0-2,0-3,0-3.59-.13-3.69-.22-3.84-3.62-.05-1.33,0-2.66,0-4V-174Z" transform="translate(379 174.5)"/>
    <path class="cls-1" d="M-296,376q0-135.46,0-270.94c0-7.75-.7-7,6.91-7,19.5,0,39-.37,58.49.08,23.78.57,45.91,7,65.23,21.34,10.77,8,19.34,18.07,26.39,29.53,8.06,13.1,12.64,27.43,15.73,42.29,1.28,6.13,1.56,12.47,2.24,18.72.31,2.79.54,3,4,3s3.83-.25,4-2.93c.09-1.33,0-2.67,0-4V137.81l1-.46c15.93,32.4,43.39,52.1,75.26,68.28-7,1.62-12.94,2.91-18.86,4.39-16.16,4.06-32.18,8.65-46.64,17.19-13.54,8-22.42,19.67-25.41,35.31-3.59,18.84-.41,36.52,11.13,52a68.54,68.54,0,0,0,20,17.83c9.34,5.56,19.5,9,30.49,12.37-1.95,1.1-3.32,1.91-4.73,2.66-5.58,3-11.34,5.65-16.71,9a140.74,140.74,0,0,0-12.77,9.45,87.78,87.78,0,0,0-7.5,6.54A17.75,17.75,0,0,0-110,376Z" transform="translate(379 174.5)"/>
    <path class="cls-1" d="M215-174c-5,6.82-10.38,13.38-14.87,20.51A146.88,146.88,0,0,0,183-113.81c-2,7.2-3.9,14.43-5.39,21.73-1.22,6-1.72,12.12-2.63,18.17-2,13.52-2.13,27.13-2,40.75,0,3.48-.1,3.4-3.77,4.33-5.45,1.38-11,2.49-16.26,4.42-13.54,5-23.95,14.06-32.13,25.79-1.71,2.45-3.17,5.07-4.83,7.56-.72,1.06-1.65,2-2.69,3.21C109,8.79,105,5.6,101,2.5A183.71,183.71,0,0,0,72-15.92C59.19-22.35,45.88-27.49,31.47-29.09c-6.58-.73-13.17-1.72-19.76-1.78-6.09-.05-12.19.95-18.27,1.6C-9.23-29-9.8-29.28-10-32c-.09-1.32,0-2.66,0-4V-174Z" transform="translate(379 174.5)"/>
    <path class="cls-1" d="M-91,376c3.55-6.45,9.12-10.94,15-14.94,12.19-8.25,26-12.48,40.35-14.81a266.05,266.05,0,0,1,26.68-2.47c10.3-.62,20.64.07,30.83-1,11.82-1.22,23.58-.71,35.36-.69,8.07,0,16.17,1,24.22,1.82,7.72.81,15.43,1.86,23.09,3.09a126.6,126.6,0,0,1,27.19,7.78,77.26,77.26,0,0,1,19.8,11.33c3.72,3,7,6.55,10.44,9.86Z" transform="translate(379 174.5)"/>
    <path class="cls-1" d="M89.39,93.13c-.78,9.32-1.72,18.71-2.32,28.13a131.06,131.06,0,0,1-7.18,34.46,83.08,83.08,0,0,1-15.54,27.59A60,60,0,0,1,26.44,204.1c-4.74.7-9.52,1.9-14.25,1.77-16-.42-31.44-3.05-44.29-13.64A59.2,59.2,0,0,1-45.95,176C-52.87,163.85-56.6,150.65-59,137c-3.85-21.59-3.63-43.4-2.73-65.1.82-19.93,4.5-39.55,13.67-57.69A69,69,0,0,1-34.53-4.78,60.52,60.52,0,0,1-3-20.91c5.36-1,10.86-2.17,16.23-1.89,10.73.57,21.48,1.49,31.53,6.1C58.16-10.53,67.59-.53,74.29,12.48,79.91,23.39,83.09,35,85.07,47c1.73,10.48,3.08,21,3,31.63C88.06,83.41,88.92,88.19,89.39,93.13Z" transform="translate(379 174.5)"/>
    <path class="cls-1" d="M170,321.84c-3-2.32-5.39-4-7.56-6-10.2-9.29-22.43-14.79-35.44-18.6a221.74,221.74,0,0,0-21.8-4.95A107.93,107.93,0,0,0,91.85,291c-37.27-2.27-74.58-.33-111.87-1.09-9.26-.19-18.49-1.42-27.76-1.8A118.32,118.32,0,0,1-67.89,285c-10.08-2.17-19.31-5.87-26.48-13.82-8-8.81-9.53-23,0-33.47S-72.18,222-59,218.28a143.84,143.84,0,0,1,28.8-5.36c5.93-.42,11.83-1.52,17.76-1.81,3.77-.17,7.58.64,11.38.92,5,.37,9.91.9,14.87.93a152.77,152.77,0,0,0,63.84-13.19c16.85-7.5,31.6-17.84,43.58-31.72,13.15-15.22,21.9-32.72,24.89-53,1.35-9.16.87-18.28.67-27.39-.12-5.55-1.91-11.07-3-16.6-.15-.8-.34-1.58-.6-2.8,1.72-.11,3.17-.29,4.62-.3q8.51,0,17,0c5.09,0,5.09,0,5.12,5.35,0,.5,0,1,0,1.5v247Z" transform="translate(379 174.5)"/>
    <path class="cls-1" d="M154.71,59c-3.83,0-7.66-.09-11.48,0-2.2.07-3.32-.93-4.07-2.88a200.06,200.06,0,0,0-17-33.8,4.77,4.77,0,0,1-.33-5.14c7.95-15.65,18.62-28.66,35-36.11A29.7,29.7,0,0,1,170.34-22c1.87.07,2.67.83,2.53,2.79-.36,4.95-.68,9.91-.84,14.87-.14,4.32.28,8.68-.09,13-1.18,13.76-.85,27.54-1,41.32a32.11,32.11,0,0,1-.89,4.88c-.68,4.09-.67,4.11-4.87,4.14C161.7,59,158.2,59,154.71,59Z" transform="translate(379 174.5)"/>
    <path class="cls-2" d="M-116-171.25l-17.5-2.25" transform="translate(379 174.5)"/>
  </g>
</svg>
