<svg id="Livello_1" data-name="Livello 1" xmlns="http://www.w3.org/2000/svg" width="2968" height="1976" viewBox="0 0 2968 1976">
  <defs>
    <style>
      .cls-1 {
        fill: #fff;
      }
    </style>
  </defs>
  <title>IBM</title>
  <g>
    <path class="cls-1" d="M-619-617.66H2349v1976H-619ZM1461.57,349.21c20,2,130.1,1.2,137.17-.82V304.28H1337.18l-12.89,35.39c-4.76-13.33-8.75-24.52-12.57-35.24H1050v44.81h137.08V315.12l1.85-.38,12.86,34.95h245.15l12.45-33.81,2.18.42ZM407.68,128.78c-.65,15.24-.39,30.23-.17,45.29H914.3c-2.28-15-10.63-35.27-18.58-45.29Zm507.25,438H408.1V612H896.85A158.75,158.75,0,0,0,914.93,566.78ZM407.87,699.53c2.88.22,4.53.45,6.18.45,110.91,0,221.82.29,332.73-.14,39.49-.15,75.17-12.82,106.4-37.33,2.69-2.12,5.11-4.6,8.25-7.45-12.42-2.13-445.83-1.69-453.56.31Zm0-614c10.31,2.18,444.7,1.86,452.39-.28A13,13,0,0,0,858.63,83c-2-1.76-4-3.47-6.15-5.09-32-24.73-68.38-36.8-108.62-36.86Q581,40.74,418.08,41c-3.24,0-6.48.32-10.21.52ZM896.49,436.76c-10.13-17.34-21.43-31.2-35.22-42.89-2.44-2.06-6.67-2.81-10.08-2.81q-171.91-.21-343.84-.08a66.12,66.12,0,0,0-7.64.85v44.93ZM499.77,350H614q117.9,0,235.79.13c6.15,0,11-1.28,15-6,8.58-10.15,17.31-20.18,25.78-30.42,2-2.42,3.2-5.5,4.9-8.49-10.85-2.33-388.18-2-395.67.23ZM41.19,86c15.79,2.12,313,1.35,320-.71V42c-14.51-2.1-312.92-1.38-320,.75Zm320.1,43.29H40.82c0,8,0,15.29,0,22.57.07,7.48.25,15,.38,22.36H361.29ZM41.54,699.4H361.78c.3-15.37.36-30.11,0-44.65-16.33-2.14-313.25-1.37-320.94.83,0,12.74,0,25.68,0,38.61A46,46,0,0,0,41.54,699.4Zm-.72-88.22c15.37,2.28,313.56,1.55,320.53-.62V567.07C345.53,565,48.21,565.81,40.82,568v43.16Zm1210.08-482c-25.75-2.36-286-1.23-293.58,1.34v43.15c16.67,2.17,301.36,1.36,308.73-.88C1261,158.37,1256,144,1250.9,129.19ZM1383,173.37c10.08,2,300,1.73,307.55-.26V129.06H1397.92c-4.51,13-9,25.8-13.43,38.66C1383.86,169.55,1383.5,171.47,1383,173.37ZM957.7,85.84c12.73,2,269.9,1.43,277.91-.65l-15.15-43.41c-18.64-2-255.25-1.23-262.76.87Zm455.21.09c15.5,2,270.26,1.34,278.24-.74V41.58H1428.31C1423.16,56.4,1418.17,70.78,1412.91,85.93ZM1049.54,261.78H1297l-15.67-45c-23.19-2-224-1.08-231.77,1Zm302.29-.15h247.48c0-8,0-15.27,0-22.55-.06-7.49-.22-15-.34-22.46H1367.41C1362.24,231.56,1357.16,246.22,1351.83,261.63Zm-394,437.66c23.25,2.21,221.54,1.2,229.14-1.22v-43.6H957.84Zm504.95-132.62c-2,11.77-1.61,38,.49,45,18.94,1.95,220.25,1.06,227.24-1v-44Zm-276.46,45.19v-45H958.15v45Zm275.85,87.24c15.48,1.92,221.29,1.24,228.41-.66v-44.1H1462.18Zm-230-262.17H1415.6c6.39-12.26,14.91-38.4,14.81-45.51-2.27-.16-4.56-.46-6.86-.46q-102.45.19-204.89.45a1.31,1.31,0,0,0-.79.48,11.68,11.68,0,0,0-.89,1.71C1221.81,407.36,1226.85,421.74,1232.17,436.93Zm-312-220.08H766.72c-1.91,12-1.53,37.86.59,45H913.89C918.57,247.11,920,232.45,920.2,216.85Zm.22,307.33c-.76-16-1.68-30.82-6.66-45.18H766.27v45.18Zm678.49-132.26c-15-1.9-129.07-1.33-136.26.52-1.86,10.93-1.46,37.17.72,44.23h135.54Zm-549.21-.37v45.79c45.91-.06,91.27.17,136.72-.15V391.55Zm-779.84.08H133.43v45H269.86ZM1386,524.28l15.66-45.08H1247c5.48,15.62,10.63,30.28,15.83,45.08ZM636.66,479.63c-14.67-2.23-130.23-1.53-136.84.63v43.42c14.81,2.11,129.87,1.37,136.84-.84Zm412.85,43.83c12,2,129.67,1.59,136.87-.41V479.74c-11.79-2.09-129.41-1.65-136.87.5Zm549.71.62c0-15.59.37-30.32-.19-44.86-21.14-1.89-129.2-1.12-136.88.93v43.93ZM269.86,479.18H133.43V524H269.86ZM636.45,216.91H500.1c-1.84,14-1.33,38.18.76,44.69H636.45Zm-366.61-.1H133.43v44.87H269.84ZM133.26,304.25v45.22H269.68V304.25ZM1355.17,611.9c5.22-15,10.37-29.83,15.68-45.11h-93c5.45,15.6,10.55,30.23,15.75,45.11Zm385.34,54c.2,20.31,15.54,35.93,35.16,35.81s35-16.13,35-36.16c0-20.54-15.88-36.59-35.88-36.17S1740.31,645.39,1740.51,665.9Zm-416.32,33.7c6.08-16.22,11.09-30.27,15.9-45.65-11.3,0-20.94-1.07-31.43.88C1313.77,669.55,1318.58,683.43,1324.19,699.6Z" transform="translate(619.02 617.66)"/>
    <path d="M1461.57,349.21V316.3l-2.18-.42-12.45,33.81H1201.79l-12.86-34.95-1.85.38v34.12H1050V304.43h261.72c3.82,10.72,7.81,21.91,12.57,35.24l12.89-35.39h261.56v44.11C1591.67,350.41,1481.6,351.2,1461.57,349.21Z" transform="translate(619.02 617.66)"/>
    <path d="M407.68,128.78h488c7.95,10,16.3,30.27,18.58,45.29H407.51C407.29,159,407,144,407.68,128.78Z" transform="translate(619.02 617.66)"/>
    <path d="M914.93,566.78A158.75,158.75,0,0,1,896.85,612H408.1V566.78Z" transform="translate(619.02 617.66)"/>
    <path d="M407.87,699.53V655.37c7.73-2,441.14-2.44,453.56-.31-3.14,2.85-5.56,5.33-8.25,7.45C822,687,786.27,699.69,746.78,699.84c-110.91.43-221.82.15-332.73.14C412.4,700,410.75,699.75,407.87,699.53Z" transform="translate(619.02 617.66)"/>
    <path d="M407.87,85.54V41.48c3.73-.2,7-.52,10.21-.52q162.88,0,325.78,0c40.24.06,76.63,12.13,108.62,36.86,2.1,1.62,4.16,3.33,6.15,5.09a13,13,0,0,1,1.63,2.31C852.57,87.4,418.18,87.72,407.87,85.54Z" transform="translate(619.02 617.66)"/>
    <path d="M896.49,436.76H499.71V391.83a66.12,66.12,0,0,1,7.64-.85q171.92-.08,343.84.08c3.41,0,7.64.75,10.08,2.81C875.06,405.56,886.36,419.42,896.49,436.76Z" transform="translate(619.02 617.66)"/>
    <path d="M499.77,350V305.47c7.49-2.19,384.82-2.56,395.67-.23-1.7,3-2.9,6.07-4.9,8.49-8.47,10.24-17.2,20.27-25.78,30.42-4,4.7-8.84,6-15,6Q731.87,349.85,614,350H499.77Z" transform="translate(619.02 617.66)"/>
    <path d="M41.19,86V42.7c7.12-2.13,305.53-2.85,320-.75V85.24C354.21,87.3,57,88.07,41.19,86Z" transform="translate(619.02 617.66)"/>
    <path d="M361.29,129.24v44.93H41.22c-.13-7.4-.31-14.88-.38-22.36-.07-7.28,0-14.56,0-22.57Z" transform="translate(619.02 617.66)"/>
    <path d="M41.54,699.4a46,46,0,0,1-.67-5.21c0-12.93,0-25.87,0-38.61,7.69-2.2,304.61-3,320.94-.83.36,14.54.3,29.28,0,44.65Z" transform="translate(619.02 617.66)"/>
    <path d="M40.82,611.18V568c7.39-2.21,304.71-3,320.53-.95v43.49C354.38,612.73,56.19,613.46,40.82,611.18Z" transform="translate(619.02 617.66)"/>
    <path d="M1250.9,129.19C1256,144,1261,158.37,1266.05,172.8c-7.37,2.24-292.06,3-308.73.88V130.53C964.9,128,1225.15,126.83,1250.9,129.19Z" transform="translate(619.02 617.66)"/>
    <path d="M1383,173.37c.49-1.9.85-3.82,1.48-5.65,4.43-12.86,8.92-25.69,13.43-38.66h292.64v44.05C1683,175.1,1393.09,175.4,1383,173.37Z" transform="translate(619.02 617.66)"/>
    <path d="M957.7,85.84V42.65c7.51-2.1,244.12-2.91,262.76-.87l15.15,43.41C1227.6,87.27,970.43,87.79,957.7,85.84Z" transform="translate(619.02 617.66)"/>
    <path d="M1412.91,85.93c5.26-15.15,10.25-29.53,15.4-44.35h262.84V85.19C1683.17,87.27,1428.41,87.93,1412.91,85.93Z" transform="translate(619.02 617.66)"/>
    <path d="M1049.54,261.78V217.85c7.81-2.12,208.58-3,231.77-1l15.67,45Z" transform="translate(619.02 617.66)"/>
    <path d="M1351.83,261.63c5.33-15.41,10.41-30.07,15.58-45H1599c.12,7.48.28,15,.34,22.46.06,7.28,0,14.57,0,22.55Z" transform="translate(619.02 617.66)"/>
    <path d="M957.84,699.29V654.47H1187v43.6C1179.38,700.49,981.09,701.5,957.84,699.29Z" transform="translate(619.02 617.66)"/>
    <path d="M1462.79,566.67h227.73v44c-7,2-208.3,2.94-227.24,1C1461.18,604.69,1460.81,578.44,1462.79,566.67Z" transform="translate(619.02 617.66)"/>
    <path d="M1186.33,611.86H958.15v-45h228.18Z" transform="translate(619.02 617.66)"/>
    <path d="M1462.18,699.1V654.34h228.41v44.1C1683.47,700.34,1477.66,701,1462.18,699.1Z" transform="translate(619.02 617.66)"/>
    <path d="M1232.17,436.93c-5.32-15.19-10.36-29.57-15.19-43.33a11.68,11.68,0,0,1,.89-1.71,1.31,1.31,0,0,1,.79-.48q102.43-.26,204.89-.45c2.3,0,4.59.3,6.86.46.1,7.11-8.42,33.25-14.81,45.51Z" transform="translate(619.02 617.66)"/>
    <path d="M920.2,216.85c-.24,15.6-1.63,30.26-6.31,45H767.31c-2.12-7.11-2.5-33-.59-45Z" transform="translate(619.02 617.66)"/>
    <path d="M920.42,524.18H766.27V479H913.76C918.74,493.36,919.66,508.13,920.42,524.18Z" transform="translate(619.02 617.66)"/>
    <path d="M1598.91,391.92v44.75H1463.37c-2.18-7.06-2.58-33.3-.72-44.23C1469.84,390.59,1583.9,390,1598.91,391.92Z" transform="translate(619.02 617.66)"/>
    <path d="M1049.7,391.55h136.72v45.64c-45.45.32-90.81.09-136.72.15Z" transform="translate(619.02 617.66)"/>
    <path d="M269.86,391.63v45H133.43v-45Z" transform="translate(619.02 617.66)"/>
    <path d="M1386,524.28H1262.86c-5.2-14.8-10.35-29.46-15.83-45.08h154.61Z" transform="translate(619.02 617.66)"/>
    <path d="M636.66,479.63v43.21c-7,2.21-122,2.95-136.84.84V480.26C506.43,478.1,622,477.4,636.66,479.63Z" transform="translate(619.02 617.66)"/>
    <path d="M1049.51,523.46V480.24c7.46-2.15,125.08-2.59,136.87-.5v43.31C1179.18,525.05,1061.5,525.51,1049.51,523.46Z" transform="translate(619.02 617.66)"/>
    <path d="M1599.22,524.08H1462.15V480.15c7.68-2,115.74-2.82,136.88-.93C1599.59,493.76,1599.26,508.49,1599.22,524.08Z" transform="translate(619.02 617.66)"/>
    <path d="M269.86,479.18V524H133.43V479.18Z" transform="translate(619.02 617.66)"/>
    <path d="M636.45,216.91V261.6H500.86c-2.09-6.51-2.6-30.67-.76-44.69Z" transform="translate(619.02 617.66)"/>
    <path d="M269.84,216.81v44.87H133.43V216.81Z" transform="translate(619.02 617.66)"/>
    <path d="M133.26,304.25H269.68v45.22H133.26Z" transform="translate(619.02 617.66)"/>
    <path d="M1355.17,611.9h-61.59c-5.2-14.88-10.3-29.51-15.75-45.11h93C1365.54,582.07,1360.39,596.9,1355.17,611.9Z" transform="translate(619.02 617.66)"/>
    <path d="M1740.51,665.9c-.2-20.51,14.45-36.1,34.31-36.52s35.92,15.63,35.88,36.17c0,20-15.55,36-35,36.16S1740.71,686.21,1740.51,665.9Zm8.31-.62c-.06,16.71,10.86,28.55,26.46,28.7,15.38.14,27-12,27.07-28.31s-11.2-28.57-26.68-28.69S1748.88,648.68,1748.82,665.28Z" transform="translate(619.02 617.66)"/>
    <path d="M1324.19,699.6c-5.61-16.17-10.42-30.05-15.53-44.77,10.49-2,20.13-.87,31.43-.88C1335.28,669.33,1330.27,683.38,1324.19,699.6Z" transform="translate(619.02 617.66)"/>
    <path class="cls-1" d="M1748.82,665.28c.06-16.6,11.28-28.43,26.85-28.3s26.81,12.31,26.68,28.69-11.69,28.45-27.07,28.31C1759.68,693.83,1748.76,682,1748.82,665.28Zm36.12,6.06c1.7-2.8,3.61-5.17,4.68-7.86,2.66-6.68-.25-13.64-6.83-15.17-7-1.62-14.22-2-21.63.58.16,11.83-.34,23.29.33,35.15l7.93-.48,2.15-11.94c7.14,1.7,6.69,8.79,11.7,12.4l8.12-.55Z" transform="translate(619.02 617.66)"/>
    <path d="M1784.94,671.34l6.45,12.13-8.12.55c-5-3.61-4.56-10.7-11.7-12.4l-2.15,11.94-7.93.48c-.67-11.86-.17-23.32-.33-35.15,7.41-2.58,14.64-2.2,21.63-.58,6.58,1.53,9.49,8.49,6.83,15.17C1788.55,666.17,1786.64,668.54,1784.94,671.34Zm-4.53-16.08h-10.07c.33,3.48.59,6.19.9,9.55l9.53-1.39C1780.64,660.48,1780.54,658.33,1780.41,655.26Z" transform="translate(619.02 617.66)"/>
    <path class="cls-1" d="M1780.41,655.26c.13,3.07.23,5.22.36,8.16l-9.53,1.39c-.31-3.36-.57-6.07-.9-9.55Z" transform="translate(619.02 617.66)"/>
  </g>
</svg>
