<svg id="Livello_1" data-name="Livello 1" xmlns="http://www.w3.org/2000/svg" width="547.89" height="156.44" viewBox="0 0 547.89 156.44">
  <defs>
    <style>
      .cls-1 {
        fill: #fff;
      }
    </style>
  </defs>
  <title>INGdirect</title>
  <g>
    <path class="cls-1" d="M537.16,178.71H-10.73V22.27H537.16Zm-352-131.85,0,.06.07-.05v2.5l-2-2.28-1.09.42.46.85c-1.19.19-2.45.09-3.34.63s-1.35,1.69-2,2.58c-.95,1.65-3.92,13.11-3.17,14.16l1-.12v1.52l-.34-.07L174,69.8a10.16,10.16,0,0,1,1-.25c.21,0,.43,0,.76,0-2.39,3.82.63,6.89,1.13,10l-3.07,8.31c-1.3,0-2.42-.07-3.53,0-.5,0-.95.62-1.46.67a4.87,4.87,0,0,0-3.91,5.11,22.18,22.18,0,0,0,.63,2.25h20c-1.46-4.07-.09-6.19,5-7.94a3.06,3.06,0,0,1,3.68,1.72l-3.05-.4-.31.5L192,91.18c1.47-.72,2.73-1.22,3.51.52.46,1,.85,2.08,1.37,3.38l-2.58.47.13.36h14.75c-1.07-2.26-1-4.18,1.15-5.85,1.87.37,3.92-2,6.45-.06l-3,1,.81,1.68L213.23,94l.14,2,.57.12c.18-.46.38-.91.54-1.38a16.56,16.56,0,0,1,1.23-3.4,2.72,2.72,0,0,1,2.08-1.17c.73.06,1.38.92,2.07,1.44l-.24.55L217.75,92c.11.93.23,1.9.35,2.87l-.59.14-1.22-1.6-.84,2.62c.72,0,1.15,0,1.58,0,3.53-.23,7-.6,10.57-.69a12.39,12.39,0,0,0,10.61-5.7c5.24-7.75,4-19.22-2.91-26.43-3.11-3.23-6.43-6.26-9.65-9.38l0,.06.06,0v1.47l-2.38-1.66.13-.6-5.87,1.26,2.2,3.21,1.9-.82,2.65.73L221,59l-.1.56a18.86,18.86,0,0,0,4.47.65,7.35,7.35,0,0,1,5.18,1.24,20,20,0,0,1,7.95,21c-1,4-2.86,7.28-6.94,8.83-1.45.54-2.87.62-3.63-.08-.2-4,0-7.61-.61-11.06-.8-4.73-2.72-9.07-6.94-11.88-2.7-1.81-4.87-1-5.61,2-2.5,2-6.91,1.68-9.4-.73l-.1-1.63L204,66.25l1-.91-.61-1.55-.71.66-1.75-1.89.65-.7,1,.1c-.56-3-1.66-5.59-4.26-7.33-.49-.33-.69-1.09-1-1.65l.58-.38c-.78-1.27-1.55-2.54-2.26-3.71h-3l.78-1.14-2.75.5L191.55,47l-1.27.1-1.54,2.47-.38-.2.19-1.35ZM38.41,115.17h451v-5.81h-451ZM350.22,78.33c.44-.16.66-.25.89-.32a10,10,0,0,0,7.21-9.91c-.07-4.55-2.5-7.86-7.52-8.91A68.7,68.7,0,0,0,339,58.24c-4.54-.14-9.1,0-13.68,0v1.38c4.68.75,5,1.15,5,5.86V89c0,4.35-.74,5.22-5,5.9V96.1h18.5V94.87c-4.07-.68-5.06-1.21-5.27-4.11-.27-3.84-.06-7.71-.06-11.63H342l11.21,17h11.09l-.07-1.32c-2.32.06-3.65-1.38-4.8-3C356.39,87.34,353.36,82.89,350.22,78.33ZM104.4,96.39V94.84q0-14.28,0-28.56a22,22,0,0,1,.26-3.34,3.43,3.43,0,0,1,3.2-3.06l1.76-.26V58.41H96.16v1.18c4.36.8,4.94,1.51,4.94,6V81.62c0,.29,0,.58-.07.95a2.76,2.76,0,0,1-.4-.26Q89.32,70.7,78,59.12a2.46,2.46,0,0,0-1.5-.75c-3.76-.06-7.52,0-11.28,0a3.94,3.94,0,0,0-.7.14v1.06c5,1.3,5.37,1.84,5.37,7,0,5.68,0,11.36,0,17,0,2.52,0,5.05-.2,7.55s-1.35,3.3-3.75,3.57c-.38,0-.77.07-1.24.12l.07,1.24H78.31l-.09-1.23c-4.22-.55-5-1.35-5-5.53,0-5.8,0-11.6,0-17.4,0-1.66,0-3.31,0-5.33l28.86,29.8Zm149.82-.2c1.84,0,3.55,0,5.26,0,6-.16,12,.15,17.95-.64,10.06-1.34,15.69-8.54,15.68-19,0-9.83-5.43-16.56-15.57-17.69-7.62-.85-15.39-.35-23.09-.45-.06,0-.12.09-.2.15v1c4.67,1.3,5,1.78,5,6.65v22c0,4.76-.57,5.53-5.06,6.78ZM147.58,60.26c-1.35-.42-2.49-.72-3.6-1.12-9.49-3.4-19.37-1.16-25.61,5.81-7.73,8.64-6.62,21.64,2.43,28,8.44,5.89,21.47,5.4,30.71.07v-9.3c0-4.51,0-4.51,4.18-5.93l-.08-1.23H138.7v1.39c.74.08,1.42.13,2.09.23,1.46.22,2.74.83,2.78,2.46.1,3.91,0,7.82,0,11.75-5.12,3.36-13,2.22-17.1-2.62-4.32-5.06-4.92-11-3.8-17.28,1-5.33,3.43-9.75,9-11.4s10.59-.49,14.59,3.79c1.45,1.55,2.34,3.63,3.6,5.65l1.14-.06c-.43-4.39-.83-8.62-1.24-12.9l-1.16.07Zm221-.7c3.75.67,4.59,1.32,4.93,3.85a21.19,21.19,0,0,1,.2,2.87c0,7.48,0,15,0,22.44,0,4.1-.93,5.26-5,6.18v1.21H402.6c1-3.88,2-7.72,3-11.63h-1.93c-.26.68-.46,1.33-.74,1.94-1.77,3.78-4.31,6.78-8.72,7.17a58.43,58.43,0,0,1-9-.14c-1.63-.1-3.29-.93-3.37-2.71-.2-4.28-.07-8.58-.07-12.94,2.42,0,4.9-.13,7.36,0s3.53,1.27,4,3.81c.06.31.17.6.25.89h1.7V70.17h-1.68l.42.43c-1,1.2-1.85,3.18-3.07,3.45-2.94.65-6,.51-9.13.69V61c2.31,0,4.54,0,6.77,0,5.72-.16,10.49,1.13,11.92,7.59H402V58.42H368.63Zm75.56-2c-1,2.71-1.38,3-4,1.77a22.21,22.21,0,0,0-11-1.63c-13.67.94-22,13.13-18,26.23,4.58,14.77,24.61,16.21,32.23,9A19.36,19.36,0,0,0,449,82.89h-2.83a.94.94,0,0,0-.1.17c-.1.39-.2.77-.31,1.16-1.46,5-4.58,8.22-9.7,9.42-4.92,1.15-9.18.09-12.61-3.76-5.77-6.47-5.57-19.32.4-25.57s15.94-4.79,19.6,2.65c.54,1.1.92,2.28,1.37,3.4h1.77c-.36-4.28-.71-8.49-1.06-12.75ZM467,61.18c0,9.23.19,18.38-.08,27.51-.14,4.52-1,5.11-5.21,6.19v1.18h18.75V94.79c-3.52-.57-4.41-1.4-5.06-4.82a18.29,18.29,0,0,1-.31-3.22q0-12.16,0-24.34c0-.42.05-.84.08-1.24,5.73-.69,10.82.6,12.83,7.32h1.74c-.36-3.46-.72-6.81-1.07-10.13H454.06c-.36,3.42-.72,6.77-1.07,10.14h1.84C456.84,61.71,461.53,60.46,467,61.18ZM57.46,94.83C52.6,94.4,52,93.77,52,89V66.16c0-4.81-.14-6.37,5.42-6.59V58.41H38.5v1.16c5.39.88,5.48,1,5.48,6.5v22.8c0,4.7-.63,5.4-5.3,5.93-.07,0-.13.1-.26.2l.08,1.11h19Zm261.25.07c-5.43-.26-5.44-2.17-5.44-6.71v-23c0-4.49.6-5.14,5.09-5.49a1.63,1.63,0,0,0,.36-.15v-1.1h-19l.06,1.18c5.13.59,5.6,1.11,5.6,6.2q0,11.16,0,22.31c0,5.65-.95,6.51-5.57,6.76v1.31H318a5.63,5.63,0,0,0,.74-.1ZM188.24,96.22l.42-.37c-.14-1.68-.29-3.37-.45-5.14l-1.08.34,1.59.92-2.15,1.45Zm2.14-.2c1.47-2,1.24-3.41-.61-4.4C190,93.31,190.19,94.66,190.38,96Zm20.93-2.48-1-.69-.36.25,1.37,3.05.46-.27V91C211.57,92,211.46,92.65,211.31,93.54Zm-18.43-1.16c-.1,1.32-.17,2.41-.25,3.49l.51.1c.43-1.13.87-2.26,1.41-3.68Z" transform="translate(10.73 -22.27)"/>
    <path d="M38.41,115.17v-5.81h451v5.81Z" transform="translate(10.73 -22.27)"/>
    <path d="M225.64,53.84c3.23,3.12,6.55,6.15,9.66,9.38,6.94,7.21,8.15,18.68,2.91,26.43a12.39,12.39,0,0,1-10.61,5.7c-3.53.09-7,.46-10.57.69-.43,0-.86,0-1.58,0l.84-2.62,1.22,1.6.59-.14c-.12-1-.24-1.94-.35-2.87l1.87.13.24-.55c-.69-.52-1.34-1.38-2.07-1.44a2.72,2.72,0,0,0-2.08,1.17,16.56,16.56,0,0,0-1.23,3.4c-.16.47-.36.92-.54,1.38l-.57-.12-.14-2,1.37-1.31L213.79,91l3-1c-2.53-2-4.58.43-6.45.06-2.12,1.67-2.22,3.59-1.15,5.85H194.4l-.13-.36,2.58-.47c-.52-1.3-.91-2.35-1.37-3.38-.78-1.74-2-1.24-3.51-.52l-1.14-1.37.31-.5,3.05.4A3.06,3.06,0,0,0,190.51,88c-5.08,1.75-6.45,3.87-5,7.94h-20a22.18,22.18,0,0,1-.63-2.25,4.87,4.87,0,0,1,3.91-5.11c.51,0,1-.62,1.46-.67,1.11-.11,2.23,0,3.53,0l3.07-8.31c-.5-3.11-3.52-6.18-1.13-10-.33,0-.55,0-.76,0a10.16,10.16,0,0,0-1,.25l.74-2.74.34.07V65.61l-1,.12c-.75-1,2.22-12.51,3.17-14.16.65-.89,1.13-2,2-2.58s2.15-.44,3.34-.63l-.46-.85,1.09-.42,2,2.28v-2.5l0,0,3.39,1.2-.19,1.35.38.2,1.54-2.47,1.27-.1.08,1.22,2.75-.5-.78,1.14h3c.71,1.17,1.48,2.44,2.26,3.71l-.58.38c.33.56.53,1.32,1,1.65,2.6,1.74,3.7,4.31,4.26,7.33l-1-.1-.65.7,1.75,1.89.71-.66.61,1.55-1,.91,1.32,1.65.1,1.63c2.49,2.41,6.9,2.73,9.4.73.74-3,2.91-3.82,5.61-2,4.22,2.81,6.14,7.15,6.94,11.88.58,3.45.41,7,.61,11.06.76.7,2.18.62,3.63.08,4.08-1.55,6-4.84,6.94-8.83a20,20,0,0,0-7.95-21,7.35,7.35,0,0,0-5.18-1.24,18.86,18.86,0,0,1-4.47-.65L221,59l3.28-1.58-2.65-.73-1.9.82-2.2-3.21,5.87-1.26-.13.6,2.38,1.66V53.86ZM199.13,89l3.44,2.56.42-1.11c-1.73-2.73-4.13-3.25-6.86-2.65-.52.12-.92.74-1.38,1.12l.24.41,2.1-.11,2.4,1.9.31,1.54.65.07c.06-.61.33-1.32.12-1.83a10.11,10.11,0,0,0-1.43-2Zm-17.49-24c-.8,2-3.43,1.76-3.89,4.41l4.44-2.72,1.11.92,4.22-1.34v-1.1l-1.12-1.79-.88-.15-.07-.59a18.9,18.9,0,0,1,2.79-.31,7.17,7.17,0,0,1,1.9.56L187.78,65c.42,2.28,2.82,1.67,3.79,3l1.33-1.07L197.32,70c-.39-2.91-3.2-2.83-4.22-4.83l5.14,1.56.24-.53c-1.28-1.44-3.22-1.62-5.33-2,2.59-2.06,2.36-4.75,2.48-7.33.79-1.23,1.67-2.56,1.64-3.88a2.59,2.59,0,0,0-2.86-2.61,14.33,14.33,0,0,0-3.78,1.58l.24.82h-5.72l.26-.8c-1.36-.72-2.73-2-4.07-2s-2.4,1.53-3.81,2.53l2.66,4.21v4.24L182,63.69c-5,1.17-5,1.17-4.72,2.36Zm6,6.75,1.45-.22.34-1.25,1,.64.95-2.72c-2.71-1.16-5.15-1.63-8,0l1.24,2.26.5-.28.15,1.12,1.1.41.86-1.24ZM166.8,90.2a27,27,0,0,0-.93,3.73c-.06.49.49,1,.77,1.58l.47-.17v-2.9l.95.5.32,2.74,1.51-1V91.55l1.27,1,.55-.21c-.31-1.07-.62-2.14-1.11-3.87L168,91.25Zm7.56,4.35c1.5-.78,1.5-.78.86-5.58-1,.53-2.24.77-2.6,1.47a21.65,21.65,0,0,0-1.23,4.45l.58.18L174,92l.41.08Zm1.19-9.41,4.86,2.42.56,2c.67-.45,1.18-1.35,1-1.49a51.25,51.25,0,0,0-5-3.93C176.8,84,176,84.83,175.55,85.14ZM223,79.33l.52-.52c-.34-.6-.64-1.67-1-1.71-1.88-.18-3.78-.08-5.8-.08l.14,2.22,3.44-1.38ZM201.5,87.08c.05-1.71-3.78-2.66-7.17-1.32l-.33.87Zm10.55-7c.27-1.9-1.86-4.35-3.41-4.07l3.41,7.76Zm10.79-4.54c.13-2.11-2.09-1.22-3.23-2.16L216,74.75c.26.67.39,1,.33.83Zm-46.58,8.07c3.44-1.3,4.49,1.41,6.45,2.55v-2L178,81.34ZM179.41,92l.54-.23.17-2.13L178.68,89l.29-.49-3.74-2.28-.4,1.78C177.11,88.51,179,89.33,179.41,92Zm17.88-7.93,3.81,1,.35-.67-3.32-2.16-3,2,.34.55Zm24.48-2,.58-.5c-.48-.7-.82-1.81-1.46-2-1-.34-2.28-.09-3.83-.09L218,81l1.83-.29Zm-1.38,5.85.76-.33c-.25-.77-.27-1.88-.8-2.23a5.43,5.43,0,0,0-2.77-.47c-.14,0-.3.86-.51,1.48l2-.14Zm-11.34-3.63,1.24,2.27.89-1.52-.69-.88c-.11-1.2-.2-2.22-.31-3.34C207.74,81.73,209.34,83.41,209.05,84.31Zm12.28-1.71a16,16,0,0,0-3-.67c-.22,0-.5,1.1-.95,2.17l1.76-.88.66-.63,1.17,2.58.4-.31ZM217.2,68.44l-1.74,2.35h5.06Zm-27.11,9.09-.44.61,2.16,2.56,2.31-1ZM208,83.86c-.45-1.35-.77-2.29-1.23-3.64l-1.05,1.72,1.58,3.66Zm-14-6.22-.13.71,3.93,1.23.23-.63L196,77.28Zm25.65,12,.28-.49L217,86.62l-1.59,1.88,1.46-.32.71,1.08ZM202.68,85,204,90C205,87.85,204.39,85.83,202.68,85Zm16.91-12.1.34-.43c-.7-.29-1.48-.94-2.09-.8s-1.28,1-1.91,1.52l.39.35Zm-40.07-2.17-.82.62,2.43,3.22.78-.58C181.11,72.92,180.32,71.83,179.52,70.74Zm9,8.91-.79-1-2.88,2.81.51.63Zm9.91-4.32-2.06.93L200,78l.32-.5Zm-5.14-3-.52.05c.09,1.13.19,2.27.3,3.57l1.85-.22C194.31,74.48,193.8,73.4,193.28,72.32Zm-11,7.36.45.83L186,78.58l-.56-.94Zm-.41-2.54-2.49,2.76C181.37,80.44,182.28,79.49,181.85,77.14Zm31,.47a3.14,3.14,0,0,0-3.15-3.47Zm-35.09-18.8-.38-.33c-.37.46-1,.89-1.06,1.39a11.46,11.46,0,0,0,.15,2.6H177Zm18.35,15.35.65-.54c-.64-.91-1.29-1.81-1.94-2.72l-.85.65Zm1.56,18.49.6-.05c-.06-.55.09-1.34-.22-1.61a10.38,10.38,0,0,0-2.26-1.21l-.3.66,1.63,1.06Zm25.6-1.73.63-.29-1.16-3.38-1,1.73Zm-15.32-13.3-.72.14.48,2.76h.64l.65-.94ZM199.7,75l3.66.73.14-.52-2.18-1.36ZM227,58.21l.42-.38-1.28-2.24-1.67.69ZM198.2,59.52l-.66,0c-.19.89-.39,1.78-.64,2.94l1.66-.46C198.43,61.17,198.32,60.35,198.2,59.52Zm1.6,5-.75.5,1.72,2.37.76-.56Zm20.13-9.61v.52l3,.16.1-.47-1.4-.94Zm4.58,30.7-.94.09.18,2.64.95-.07C224.64,87.41,224.57,86.53,224.51,85.64ZM189.68,75.12,192,76.29l-.78-2.87Zm-9.29.88-.84-.4c-.35.82-.71,1.63-1.06,2.45l.68.33Zm5.83,7.22L186,84l2.29.72.28-1Zm1.08-8.08.42,1.38.48.1c.32-.79.65-1.59,1-2.38l-.42-.25ZM184,73.82,185.78,76l.4-.27-.46-1.94Zm29.13,5.56-.44.39,1,2.13a2.16,2.16,0,0,0,.37-1.77C213.93,79.82,213.43,79.63,213.12,79.38Zm-22.67,3.09-.37.48,1.67,1.41.41-.34-.6-1.55Zm-13.89-6.81L179,74l-2-.51Zm7-3.54-1.9-.87c.5,1.17.81,1.88,1.32,3.08Zm15.07-1.41-1.3,1.55,2.38.2.19-.49Zm1.19-1.29-.09.58,2.79.71-1.39-1.61Zm6.3,6.16-.49.17.5,2.46,1-1.35ZM203,73.05l.05.45,2.06.15.09-.48-1.23-.7ZM176.29,57l1.47-.28-.1-2.16Z" transform="translate(10.73 -22.27)"/>
    <path d="M350.22,78.33c3.14,4.56,6.17,9,9.25,13.43,1.15,1.63,2.48,3.07,4.8,3l.07,1.32H353.25L342,79.13h-3.5c0,3.92-.21,7.79.06,11.63.21,2.9,1.2,3.43,5.27,4.11V96.1h-18.5V94.86c4.27-.68,5-1.55,5-5.9V65.45c0-4.71-.34-5.11-5-5.86V58.21c4.58,0,9.14-.11,13.68,0a68.7,68.7,0,0,1,11.76.95c5,1.05,7.45,4.36,7.52,8.91A10,10,0,0,1,351.11,78C350.88,78.08,350.66,78.17,350.22,78.33ZM338.5,61.06V75.91c4.86,1.06,8.94-.18,10.85-3.24a9.17,9.17,0,0,0-.59-9.52C346.85,60.77,342.2,59.81,338.5,61.06Z" transform="translate(10.73 -22.27)"/>
    <path d="M104.4,96.39h-2.34L73.2,66.59c0,2,0,3.67,0,5.33,0,5.8,0,11.6,0,17.4,0,4.18.77,5,5,5.53l.09,1.23H64.77l-.07-1.24c.47,0,.86-.07,1.24-.12,2.4-.27,3.53-1.2,3.75-3.57s.19-5,.2-7.55c0-5.68,0-11.36,0-17,0-5.17-.4-5.71-5.37-7V58.49a3.94,3.94,0,0,1,.7-.14c3.76,0,7.52,0,11.28,0a2.46,2.46,0,0,1,1.5.75q11.34,11.57,22.62,23.19a2.76,2.76,0,0,0,.4.26c0-.37.07-.66.07-.95V65.54c0-4.44-.58-5.15-4.94-6V58.41h13.47v1.21l-1.76.26a3.43,3.43,0,0,0-3.2,3.06,22,22,0,0,0-.26,3.34q0,14.28,0,28.56Z" transform="translate(10.73 -22.27)"/>
    <path d="M254.22,96.19V94.94c4.49-1.25,5.06-2,5.06-6.78v-22c0-4.87-.36-5.35-5-6.65v-1c.08-.06.14-.15.2-.15,7.7.1,15.47-.4,23.09.45,10.14,1.13,15.56,7.86,15.57,17.69,0,10.45-5.62,17.65-15.68,19-5.91.79-12,.48-17.95.64C257.77,96.23,256.06,96.19,254.22,96.19Zm12.9-35.25c0,10.42,0,20.77.08,31.12,0,.6,1.05,1.6,1.73,1.71,6.14,1,11.51-.72,14.06-6.94a24.27,24.27,0,0,0,.19-18.47C280.34,61.09,274.37,59.19,267.12,60.94Z" transform="translate(10.73 -22.27)"/>
    <path d="M147.58,60.26l1-2.66,1.16-.07c.41,4.28.81,8.51,1.24,12.9l-1.14.06c-1.26-2-2.15-4.1-3.6-5.65-4-4.28-9.06-5.44-14.59-3.79s-8,6.07-9,11.4c-1.12,6.24-.52,12.22,3.8,17.28,4.13,4.84,12,6,17.1,2.62,0-3.93.07-7.84,0-11.75,0-1.63-1.32-2.24-2.78-2.46-.67-.1-1.35-.15-2.09-.23V76.52h16.91l.08,1.23c-4.18,1.42-4.18,1.42-4.18,5.93V93c-9.24,5.33-22.27,5.82-30.71-.07-9-6.32-10.16-19.32-2.43-28,6.24-7,16.12-9.21,25.61-5.81C145.09,59.54,146.23,59.84,147.58,60.26Z" transform="translate(10.73 -22.27)"/>
    <path d="M368.55,59.56l.08-1.14H402V68.6H400.4c-1.43-6.46-6.2-7.75-11.92-7.59-2.23.06-4.46,0-6.77,0V74.74c3.08-.18,6.19,0,9.13-.69,1.22-.27,2.06-2.25,3.07-3.45l-.42-.43h1.68V82.54h-1.7c-.08-.29-.19-.58-.25-.89-.48-2.54-1.46-3.62-4-3.81s-4.94,0-7.36,0c0,4.36-.13,8.66.07,12.94.08,1.78,1.74,2.61,3.37,2.71a58.43,58.43,0,0,0,9,.14c4.41-.39,6.95-3.39,8.72-7.17.28-.61.48-1.26.74-1.94h1.93c-1,3.91-2,7.75-3,11.63H368.72V94.9c4-.92,5-2.08,5-6.18,0-7.48,0-15,0-22.44a21.19,21.19,0,0,0-.2-2.87C373.14,60.88,372.3,60.23,368.55,59.56Z" transform="translate(10.73 -22.27)"/>
    <path d="M444.11,57.61h1.4c.35,4.26.7,8.47,1.06,12.75H444.8c-.45-1.12-.83-2.3-1.37-3.4-3.66-7.44-13.74-8.79-19.6-2.65s-6.17,19.1-.4,25.57c3.43,3.85,7.69,4.91,12.61,3.76,5.12-1.2,8.24-4.46,9.7-9.42.11-.39.21-.77.31-1.16a.94.94,0,0,1,.1-.17H449A19.36,19.36,0,0,1,443.35,93c-7.62,7.21-27.65,5.77-32.23-9-4.07-13.1,4.3-25.29,18-26.23a22.21,22.21,0,0,1,11,1.63C442.73,60.56,443.11,60.32,444.11,57.61Z" transform="translate(10.73 -22.27)"/>
    <path d="M467,61.18c-5.42-.72-10.11.53-12.12,7.32H453c.35-3.37.71-6.72,1.07-10.14h34.55c.35,3.32.71,6.67,1.07,10.13h-1.74c-2-6.72-7.1-8-12.83-7.32,0,.4-.08.82-.08,1.24q0,12.16,0,24.34a18.29,18.29,0,0,0,.31,3.22c.65,3.42,1.54,4.25,5.06,4.82v1.27H461.66V94.88c4.18-1.08,5.07-1.67,5.21-6.19C467.14,79.56,467,70.41,467,61.18Z" transform="translate(10.73 -22.27)"/>
    <path d="M57.46,94.83v1.28h-19L38.42,95c.13-.1.19-.19.26-.2,4.67-.53,5.3-1.23,5.3-5.93V66.07c0-5.51-.09-5.62-5.48-6.5V58.41H57.44v1.16c-5.56.22-5.42,1.78-5.42,6.59V89C52,93.77,52.6,94.4,57.46,94.83Z" transform="translate(10.73 -22.27)"/>
    <path d="M318.71,94.9v1.18a5.63,5.63,0,0,1-.74.1h-18.2V94.88c4.62-.25,5.58-1.11,5.57-6.76q0-11.16,0-22.31c0-5.09-.47-5.61-5.6-6.2l-.06-1.18h19v1.1a1.63,1.63,0,0,1-.36.15c-4.49.35-5.09,1-5.09,5.49v23C313.27,92.73,313.28,94.64,318.71,94.9Z" transform="translate(10.73 -22.27)"/>
    <path d="M188.24,96.22l-1.67-2.8L188.72,92l-1.59-.92,1.08-.34c.16,1.77.31,3.46.45,5.14Z" transform="translate(10.73 -22.27)"/>
    <path d="M190.38,96c-.19-1.36-.37-2.71-.61-4.4C191.62,92.61,191.85,94,190.38,96Z" transform="translate(10.73 -22.27)"/>
    <path d="M211.31,93.54c.15-.89.26-1.55.43-2.54v4.88l-.46.27-1.37-3.05.36-.25Z" transform="translate(10.73 -22.27)"/>
    <path d="M192.88,92.38l1.67-.09c-.54,1.42-1,2.55-1.41,3.68l-.51-.1C192.71,94.79,192.78,93.7,192.88,92.38Z" transform="translate(10.73 -22.27)"/>
    <polygon points="195.92 24.6 195.85 24.65 195.89 24.58 195.92 24.6"/>
    <polygon points="236.42 31.58 236.37 31.63 236.38 31.57 236.42 31.58"/>
    <path class="cls-1" d="M181.64,64.91l-4.39,1.14c-.29-1.19-.29-1.19,4.72-2.36l-1.78-2.76V56.69l-2.66-4.21c1.41-1,2.59-2.49,3.81-2.53s2.71,1.27,4.07,2l-.26.8h5.72l-.24-.82a14.33,14.33,0,0,1,3.78-1.58A2.59,2.59,0,0,1,197.27,53c0,1.32-.85,2.65-1.64,3.88-.12,2.58.11,5.27-2.48,7.33,2.11.41,4,.59,5.33,2l-.24.53-5.14-1.56c1,2,3.83,1.92,4.22,4.83L192.9,66.9,191.57,68c-1-1.3-3.37-.69-3.79-3l2.36-2.2a7.17,7.17,0,0,0-1.9-.56,18.9,18.9,0,0,0-2.79.31l.07.59.88.15,1.12,1.79v1.1l-4.22,1.34-1.11-.92-4.44,2.72C178.21,66.67,180.84,66.88,181.64,64.91Zm13.27-9.65,1.49-.82-2.1-3.37-1.85,1.6Zm-15.55-1.6,2,.81,2.77-1.91c-1.44-.48-2.39-1.08-3.25-1C180.34,51.64,180,52.79,179.36,53.66ZM189.81,61,192.25,63l.36-.41-2.38-2.13v-2l1.81.14,1.08-1.4-3.31.32ZM183.1,62.7c2-.63,2.87-3,2.09-5.4h-2.78l.77,1.2h2.34Zm3.14-7.54-.2-.35-1.31.63.17.36Zm4.13.94.36-.36-.66-.9-.31.31ZM183.84,65l-.06-.16-.31.14.05.12Zm7.63.25v-.07l-.3-.07v.08Z" transform="translate(10.73 -22.27)"/>
    <path class="cls-1" d="M187.63,71.66l-.37-1.3-.86,1.24-1.1-.41-.15-1.12-.5.28-1.24-2.26c2.82-1.61,5.26-1.14,8,0l-.95,2.72-1-.64-.34,1.25Z" transform="translate(10.73 -22.27)"/>
    <path class="cls-1" d="M166.8,90.2l1.24,1,2.56-2.79c.49,1.73.8,2.8,1.11,3.87l-.55.21-1.27-1v3.16l-1.51,1-.32-2.74-.95-.5v2.9l-.47.17c-.28-.53-.83-1.09-.77-1.58A27,27,0,0,1,166.8,90.2Z" transform="translate(10.73 -22.27)"/>
    <path class="cls-1" d="M199.14,88.9a10.11,10.11,0,0,1,1.43,2c.21.51-.06,1.22-.12,1.83l-.65-.07-.31-1.54-2.4-1.9-2.1.11-.24-.41c.46-.38.86-1,1.38-1.12,2.73-.6,5.13-.08,6.86,2.65l-.42,1.11L199.13,89h.05Z" transform="translate(10.73 -22.27)"/>
    <path class="cls-1" d="M174.36,94.55V92L174,92l-2,3.11-.58-.18a21.65,21.65,0,0,1,1.23-4.45c.36-.7,1.61-.94,2.6-1.47C175.86,93.77,175.86,93.77,174.36,94.55Z" transform="translate(10.73 -22.27)"/>
    <path class="cls-1" d="M175.55,85.14c.43-.31,1.25-1.14,1.43-1a51.25,51.25,0,0,1,5,3.93c.16.14-.35,1-1,1.49l-.56-2Z" transform="translate(10.73 -22.27)"/>
    <path class="cls-1" d="M223,79.33l-2.74-1.47-3.44,1.38L216.65,77c2,0,3.92-.1,5.8.08.4,0,.7,1.11,1,1.71Z" transform="translate(10.73 -22.27)"/>
    <path class="cls-1" d="M201.5,87.08l-7.5-.45.33-.87C197.72,84.42,201.55,85.37,201.5,87.08Z" transform="translate(10.73 -22.27)"/>
    <path class="cls-1" d="M212.05,80.12v3.69l-3.41-7.76C210.19,75.77,212.32,78.22,212.05,80.12Z" transform="translate(10.73 -22.27)"/>
    <path class="cls-1" d="M222.84,75.58h-6.51c.06.16-.07-.16-.33-.83l3.61-1.33C220.75,74.36,223,73.47,222.84,75.58Z" transform="translate(10.73 -22.27)"/>
    <path class="cls-1" d="M176.26,83.65,178,81.34l4.7,2.82v2C180.75,85.06,179.7,82.35,176.26,83.65Z" transform="translate(10.73 -22.27)"/>
    <path class="cls-1" d="M179.41,92c-.41-2.65-2.3-3.47-4.58-4l.4-1.78L179,88.49l-.29.49,1.44.64L180,91.75Z" transform="translate(10.73 -22.27)"/>
    <path class="cls-1" d="M197.29,84.05l-1.78.69-.34-.55,3-2,3.32,2.16-.35.67Z" transform="translate(10.73 -22.27)"/>
    <path class="cls-1" d="M221.77,82.09l-2-1.36L218,81l-.89-1.54c1.55,0,2.78-.25,3.83.09.64.21,1,1.32,1.46,2Z" transform="translate(10.73 -22.27)"/>
    <path class="cls-1" d="M220.39,87.94l-1.34-1.69-2,.14c.21-.62.37-1.49.51-1.48a5.43,5.43,0,0,1,2.77.47c.53.35.55,1.46.8,2.23Z" transform="translate(10.73 -22.27)"/>
    <path class="cls-1" d="M209.05,84.31c.29-.9-1.31-2.58,1.13-3.47.11,1.12.2,2.14.31,3.34l.69.88-.89,1.52Z" transform="translate(10.73 -22.27)"/>
    <path class="cls-1" d="M221.33,82.6v2.26l-.4.31-1.17-2.58-.66.63-1.76.88c.45-1.07.73-2.19.95-2.17A16,16,0,0,1,221.33,82.6Z" transform="translate(10.73 -22.27)"/>
    <path class="cls-1" d="M217.2,68.44l3.32,2.35h-5.06Z" transform="translate(10.73 -22.27)"/>
    <path class="cls-1" d="M190.09,77.53l4,2.2-2.31,1-2.16-2.56Z" transform="translate(10.73 -22.27)"/>
    <path class="cls-1" d="M208,83.86l-.7,1.74-1.58-3.66,1.05-1.72C207.18,81.57,207.5,82.51,208,83.86Z" transform="translate(10.73 -22.27)"/>
    <path class="cls-1" d="M193.91,77.64l2.12-.36L197.94,79l-.23.63-3.93-1.23Z" transform="translate(10.73 -22.27)"/>
    <path class="cls-1" d="M219.56,89.6l-2-.34-.71-1.08-1.46.32L217,86.62l2.84,2.49Z" transform="translate(10.73 -22.27)"/>
    <path class="cls-1" d="M202.68,85c1.71.82,2.34,2.84,1.27,5Z" transform="translate(10.73 -22.27)"/>
    <path class="cls-1" d="M219.59,72.91l-3.27.64-.39-.35c.63-.54,1.2-1.37,1.91-1.52s1.39.51,2.09.8Z" transform="translate(10.73 -22.27)"/>
    <path class="cls-1" d="M179.52,70.74c.8,1.09,1.59,2.18,2.39,3.26l-.78.58-2.43-3.22Z" transform="translate(10.73 -22.27)"/>
    <path class="cls-1" d="M188.51,79.65l-3.16,2.49-.51-.63,2.88-2.81Z" transform="translate(10.73 -22.27)"/>
    <path class="cls-1" d="M198.42,75.33l1.85,2.12L200,78l-3.59-1.69Z" transform="translate(10.73 -22.27)"/>
    <path class="cls-1" d="M193.28,72.32c.52,1.08,1,2.16,1.63,3.4l-1.85.22c-.11-1.3-.21-2.44-.3-3.57Z" transform="translate(10.73 -22.27)"/>
    <path class="cls-1" d="M182.26,79.68l3.16-2,.56.94-3.27,1.93Z" transform="translate(10.73 -22.27)"/>
    <path class="cls-1" d="M181.85,77.14c.43,2.35-.48,3.3-2.49,2.76Z" transform="translate(10.73 -22.27)"/>
    <path class="cls-1" d="M212.81,77.61l-3.15-3.47A3.14,3.14,0,0,1,212.81,77.61Z" transform="translate(10.73 -22.27)"/>
    <path class="cls-1" d="M177.72,58.81,177,62.46h-.53a11.46,11.46,0,0,1-.15-2.6c.08-.5.69-.93,1.06-1.39Z" transform="translate(10.73 -22.27)"/>
    <path class="cls-1" d="M196.07,74.16l-2.14-2.61.85-.65c.65.91,1.3,1.81,1.94,2.72Z" transform="translate(10.73 -22.27)"/>
    <path class="cls-1" d="M197.63,92.65l-.55-1.15-1.63-1.06.3-.66A10.38,10.38,0,0,1,198,91c.31.27.16,1.06.22,1.61Z" transform="translate(10.73 -22.27)"/>
    <path class="cls-1" d="M223.23,90.92,221.71,89l1-1.73,1.16,3.38Z" transform="translate(10.73 -22.27)"/>
    <path class="cls-1" d="M207.91,77.62l1.05,2-.65.94h-.64l-.48-2.76Z" transform="translate(10.73 -22.27)"/>
    <path class="cls-1" d="M199.7,75l1.62-1.15,2.18,1.36-.14.52Z" transform="translate(10.73 -22.27)"/>
    <path class="cls-1" d="M227,58.21l-2.53-1.93,1.67-.69,1.28,2.24Z" transform="translate(10.73 -22.27)"/>
    <path class="cls-1" d="M198.2,59.52c.12.83.23,1.65.36,2.53l-1.66.46c.25-1.16.45-2,.64-2.94Z" transform="translate(10.73 -22.27)"/>
    <path class="cls-1" d="M199.8,64.55l1.73,2.31-.76.56-1.72-2.37Z" transform="translate(10.73 -22.27)"/>
    <path class="cls-1" d="M219.93,54.94l1.72-.73,1.4.94-.1.47-3-.16Z" transform="translate(10.73 -22.27)"/>
    <path class="cls-1" d="M224.51,85.64c.06.89.13,1.77.19,2.66l-.95.07-.18-2.64Z" transform="translate(10.73 -22.27)"/>
    <path class="cls-1" d="M189.68,75.12l1.5-1.7.78,2.87Z" transform="translate(10.73 -22.27)"/>
    <path class="cls-1" d="M180.39,76l-1.22,2.38-.68-.33c.35-.82.71-1.63,1.06-2.45Z" transform="translate(10.73 -22.27)"/>
    <path class="cls-1" d="M186.22,83.22l2.34.48-.28,1L186,84Z" transform="translate(10.73 -22.27)"/>
    <path class="cls-1" d="M187.3,75.14,188.76,74l.42.25c-.33.79-.66,1.59-1,2.38l-.48-.1Z" transform="translate(10.73 -22.27)"/>
    <path class="cls-1" d="M184,73.82h1.73l.46,1.94-.4.27Z" transform="translate(10.73 -22.27)"/>
    <path class="cls-1" d="M213.12,79.38c.31.25.81.44.9.75a2.16,2.16,0,0,1-.37,1.77l-1-2.13Z" transform="translate(10.73 -22.27)"/>
    <path class="cls-1" d="M190.45,82.47h1.11l.6,1.55-.41.34L190.08,83Z" transform="translate(10.73 -22.27)"/>
    <path class="cls-1" d="M176.56,75.66l.46-2.22,2,.51Z" transform="translate(10.73 -22.27)"/>
    <path class="cls-1" d="M183.59,72.12,183,74.33c-.51-1.2-.82-1.91-1.32-3.08Z" transform="translate(10.73 -22.27)"/>
    <path class="cls-1" d="M198.66,70.71,199.93,72l-.19.49-2.38-.2Z" transform="translate(10.73 -22.27)"/>
    <path class="cls-1" d="M199.85,69.42l1.31-.32,1.39,1.61L199.76,70Z" transform="translate(10.73 -22.27)"/>
    <path class="cls-1" d="M206.15,75.58l1,1.28-1,1.35-.5-2.46Z" transform="translate(10.73 -22.27)"/>
    <path class="cls-1" d="M203,73.05l1-.58,1.23.7-.09.48L203,73.5Z" transform="translate(10.73 -22.27)"/>
    <path class="cls-1" d="M176.29,57l1.37-2.44.1,2.16Z" transform="translate(10.73 -22.27)"/>
    <path class="cls-1" d="M338.5,61.06c3.7-1.25,8.35-.29,10.26,2.09a9.17,9.17,0,0,1,.59,9.52c-1.91,3.06-6,4.3-10.85,3.24Z" transform="translate(10.73 -22.27)"/>
    <path class="cls-1" d="M267.12,60.94c7.25-1.75,13.22.15,16.06,7.42A24.27,24.27,0,0,1,283,86.83c-2.55,6.22-7.92,8-14.06,6.94-.68-.11-1.73-1.11-1.73-1.71C267.09,81.71,267.12,71.36,267.12,60.94Z" transform="translate(10.73 -22.27)"/>
    <path d="M194.91,55.26l-2.46-2.59,1.85-1.6,2.1,3.37Z" transform="translate(10.73 -22.27)"/>
    <path d="M179.36,53.66c.59-.87,1-2,1.5-2.08.86-.1,1.81.5,3.25,1l-2.77,1.91Z" transform="translate(10.73 -22.27)"/>
    <path d="M189.81,61V57.54l3.31-.32L192,58.62l-1.81-.14v2l2.38,2.13-.36.41Z" transform="translate(10.73 -22.27)"/>
    <path d="M183.1,62.7l2.42-4.2h-2.34l-.77-1.2h2.78C186,59.75,185.07,62.07,183.1,62.7Z" transform="translate(10.73 -22.27)"/>
    <path d="M186.24,55.16l-1.34.64-.17-.36,1.31-.63Z" transform="translate(10.73 -22.27)"/>
    <path d="M190.37,56.1l-.61-1,.31-.31.66.9Z" transform="translate(10.73 -22.27)"/>
    <path d="M183.84,65l-.32.1-.05-.12.31-.14Z" transform="translate(10.73 -22.27)"/>
    <path d="M191.47,65.22l-.3-.06v-.08l.3.07Z" transform="translate(10.73 -22.27)"/>
    <path d="M199.14,88.9l0,.07h-.05Z" transform="translate(10.73 -22.27)"/>
  </g>
</svg>
