<svg id="Livello_1" data-name="Livello 1" xmlns="http://www.w3.org/2000/svg" width="1500" height="900" viewBox="0 0 1500 900">
  <defs>
    <style>
      .cls-1 {
        fill: #fff;
      }
    </style>
  </defs>
  <title>justeat</title>
  <g>
    <path class="cls-1" d="M-93.19-296.13h1500v900h-1500ZM1056.66,190c1.08,7.23,2,13.64,3,20,.9,5.91,1.73,11.84,2.85,17.72.93,4.83,3.48,7,8.37,7.71,10.1,1.54,20.18,1.12,30.25-.19a12.09,12.09,0,0,0,3.9-1.19c3.74-2,5.39-6.34,4.54-11.71-.43-2.71-1-5.41-1.42-8.11-2-12.06-4-24.13-6.11-36.17-1.83-10.44-3.91-20.84-5.78-31.27-1.3-7.25-2.42-14.53-3.64-21.79-.83-4.92-1.63-9.85-2.55-14.75-1.86-9.92-3.88-19.8-5.67-29.73-2-11.18-3.43-22.48-5.88-33.56-1.86-8.41-4.31-13.2-14.33-13.53-16-.53-32-.16-47.93,0a12.58,12.58,0,0,0-9.93,4.56,65,65,0,0,0-6.83,11c-6.3,12.55-12.42,25.21-18.54,37.86-4.66,9.63-9.2,19.32-13.82,29-5.15,10.77-10.36,21.51-15.51,32.28-3.37,7.07-6.62,14.19-10,21.24-2.81,5.81-5.84,11.52-8.66,17.34-3.89,8-7.75,16.13-11.48,24.27a155.66,155.66,0,0,0-6.12,14.77c-2,6-.19,8.79,6,9.55a127.16,127.16,0,0,0,32.5.31,12,12,0,0,0,9.76-6.63c2-3.86,3.84-7.8,5.66-11.75,3.71-8,7.51-16,11-24.11,1.23-2.9,3-4.08,5.92-4.08,21.87,0,43.74,0,65.6.08A27.37,27.37,0,0,1,1056.66,190Zm-157.13,4.52c-3.9-.1-8.38-.31-12.85-.32q-35.05,0-70.11,0c-5.06,0-5.73-.88-5-5.73,1-6.79,1.83-13.61,2.92-20.39.74-4.63,1.79-9.21,2.76-14.1,2.33-.15,4.17-.37,6-.37q30.38,0,60.74,0c2,0,4,0,6-.22,5.5-.55,8-2.93,8.95-8.39,1.17-6.64,2.39-13.27,3.49-19.92.58-3.49,1-7-1.74-9.46-4.67-2.82-9.47-2.64-14.2-2.65-19-.05-38,0-57,0-1.67,0-3.34-.3-5.77-.54,2-12.22,4-23.85,5.91-35.28,1.86-2.37,4.31-2.11,6.67-2.11q35.63,0,71.24-.07c3,0,6-.36,9-.66a6.92,6.92,0,0,0,5.94-4A34,34,0,0,0,925,62.41c1.28-7,2.19-14,3.42-21a8.41,8.41,0,0,0-2.4-7.9c-2.73-.24-6.05-.78-9.37-.79q-48.37-.11-96.73,0a179.37,179.37,0,0,0-18,.87,12,12,0,0,0-11.17,10c-2.51,11.7-4.74,23.46-7,35.21-.85,4.4-1.54,8.84-2.26,13.26-1.14,7-2.15,14.06-3.37,21.06-1.82,10.43-3.89,20.81-5.66,31.24-2.18,12.79-4.11,25.61-6.24,38.41-1,6-2.4,12-3.31,18-1.22,8.13-2.47,16.29-3.07,24.49-.43,5.77,3.15,9.44,8.91,10,5.46.55,11,1,16.44,1.06q46.3.15,92.61,0a115.4,115.4,0,0,0,12.32-.76c4.72-.51,7.14-2.65,8.07-7.45,1.66-8.57,3.05-17.2,4.52-25.82C903.14,199.57,902.69,197.07,899.53,194.51ZM232.75,37a9.64,9.64,0,0,0-8.32-3.89c-8.74,0-17.48,0-26.22,0-6.24,0-9.79,3.73-10.82,10.16-.37,2.34-.87,4.66-1.3,7-1.09,5.87-2.28,11.72-3.24,17.61-1.33,8.12-2.39,16.28-3.74,24.4-1.86,11.2-3.91,22.36-5.85,33.54q-1.81,10.5-3.57,21c-2.83,17-3.27,33.78,3.22,50.13a63,63,0,0,0,22.48,28.7c12.6,9,27,12.75,42.13,13.62a127.48,127.48,0,0,0,38.22-3.86,68.79,68.79,0,0,0,27.19-13.6c13.35-10.91,21.19-25.48,25.55-41.74,3.42-12.73,5.46-25.84,7.89-38.82,2.31-12.39,4.33-24.83,6.49-37.24.92-5.28,1.87-10.54,2.81-15.81,1.24-7,2.61-14,3.68-21,1.28-8.38,2.51-16.78,3.35-25.21.55-5.55-2.24-8.4-7.84-8.74-5-.29-10-.54-15-.51-4.74,0-9.48.34-14.22.66a8.19,8.19,0,0,0-7.54,5.84,61,61,0,0,0-2.28,9.44c-1.44,8.24-2.65,16.51-4.08,24.75-1,5.88-2.38,11.71-3.36,17.61-1.28,7.62-2.18,15.31-3.51,22.93-1.93,11-4.46,22-6,33.09a126.36,126.36,0,0,1-5.51,24c-4.8,13.74-14.91,23.07-30.78,23.49a77.5,77.5,0,0,1-11.61-.18c-7.85-1-15.09-3.61-20.14-10.16-6.07-7.87-7.68-17-6.26-26.56,1.65-11.1,3.83-22.12,5.68-33.18,1.58-9.48,3-19,4.55-28.48q2.08-12.74,4.32-25.45c1.63-9.2,3.9-18.31,4-27.73C233.09,40.66,232.84,38.56,232.75,37ZM358.66,193.37c-.79,2.13-2,4.28-2.38,6.57-1.32,7.87-2.49,15.77-3.45,23.69-.72,6,1,8.41,7,9.32,10.36,1.57,20.75,3.3,31.19,4,12.7.82,25.47.69,38.21.86a109.66,109.66,0,0,0,42.48-7.59,61.37,61.37,0,0,0,25.53-18.34c9.7-12,13-26.05,12.58-41.26-.42-14.92-6.48-26.91-17.84-36.42-9.23-7.71-20-12.53-31.17-16.51-10.3-3.69-20.92-6.51-31.23-10.17-3.54-1.25-6.77-3.65-9.81-6-6.46-4.94-6.58-16,.66-20.64a32.45,32.45,0,0,1,10.1-4.55c11.06-2.48,22.32-2.16,33.57-1.52q16.28.93,32.54,1.88c5.28.31,8.93-1.86,10.63-6.92a51.39,51.39,0,0,0,2.69-9.28c.83-6,1.33-12.09,1.62-18.16.17-3.52-2.15-5.81-5.29-7A27.81,27.81,0,0,0,499,33.73q-18.87-1.4-37.77-2.46a146.19,146.19,0,0,0-38.78,2.46,94.47,94.47,0,0,0-17.18,5.16,68.41,68.41,0,0,0-21.84,14.77c-6,6-10.08,13.2-13.18,21-2.57,6.5-3,13.36-3.35,20.22-.87,17.22,5.31,31.19,19.38,41.41,11.25,8.17,24.08,13,37.19,17.12,7.6,2.41,15.29,4.56,22.74,7.36a46.7,46.7,0,0,1,11.29,6.39,10.82,10.82,0,0,1,3.65,12.43,18.13,18.13,0,0,1-9.48,10.1,56.41,56.41,0,0,1-21.07,4.67c-20.79.91-41.41-1.16-62-3.5C365.09,190.5,361.88,190.76,358.66,193.37ZM1212.14,76.25c1.83-.43,3.68-1.2,5.54-1.23,8.24-.13,16.49,0,24.74-.08,6.5-.06,13-.27,19.48-.43,4.9-.12,7.87-2.62,9.33-8.12a62.33,62.33,0,0,0,1.49-6.57c1-7,2.15-14.06,2.88-21.12.36-3.48-1.22-5.09-4.69-5.51a72.56,72.56,0,0,0-8.59-.53q-63-.06-126,0c-4.37,0-8.74.29-13.11.46s-7.16,2.37-8.12,6.47c-1.64,7-3,14.11-4.39,21.2a45.34,45.34,0,0,0-.76,7.44c-.09,3.81,1.06,5.27,4.74,6a34.19,34.19,0,0,0,6.69.67c13.12,0,26.25,0,39.37,0,4.66,0,5.64,1.11,4.91,5.62-.9,5.53-1.92,11-2.89,16.58q-3.4,19.33-6.81,38.69c-2.15,12.16-4.36,24.31-6.47,36.48-1.33,7.74-2.51,15.5-3.8,23.24s-2.73,15.24-3.82,22.9a67.57,67.57,0,0,0-.42,10.84c.07,3.47,1.67,5.33,5.12,5.89a93.1,93.1,0,0,0,32.79-.22c2-.38,4.08-2.37,5.26-4.19a18.81,18.81,0,0,0,2.3-7c1.92-11.2,3.61-22.44,5.5-33.65,2.22-13.16,4.55-26.31,6.87-39.46,2.27-12.89,4.62-25.77,6.86-38.68C1208.15,100.4,1210,88.82,1212.14,76.25Zm-626.9,1Q583.05,91,580.83,104.9c0,.25-.13.48-.18.73-1.13,5.73-2.34,11.45-3.34,17.21-1.44,8.24-2.68,16.51-4.06,24.75-1.07,6.4-2.28,12.77-3.35,19.17-1.17,7-2.23,14-3.37,21.05-2,12.18-4,24.36-6,36.54a19.47,19.47,0,0,0-.19,4.11c.2,3.86,2.29,6.34,6.08,6.89a111.68,111.68,0,0,0,31.36,0c2.69-.37,5-1.55,5.89-4a75,75,0,0,0,3.44-11.75c1.76-9.05,3.23-18.17,4.74-27.27,2.08-12.42,4.08-24.85,6.12-37.28,1-6.16,2-12.32,3.1-18.46,1.82-10.19,3.78-20.35,5.58-30.54,1.51-8.6,2.83-17.22,4.33-25.82.83-4.82,1.39-5.23,6.4-5.24,11.62,0,23.24,0,34.86,0,3.37,0,6.74-.28,10.09-.61,4.22-.43,6.62-2.48,7.61-6.52,1.18-4.84,2.37-9.69,3.22-14.59a136.39,136.39,0,0,0,1.66-14.11c.11-1.71-.75-3.5-1.17-5.25A52.44,52.44,0,0,0,688.3,33c-5.24-.2-10.48-.39-15.72-.39q-54.54,0-109.08,0c-6.86,0-13.73.33-20.6.41-4.82.06-7.67,2.58-8.85,7.19a210,210,0,0,0-4.5,23.48c-1.25,9.17.41,11.06,9.59,11.14,13.61.13,27.23-.09,40.84-.25C582.29,74.57,584.21,74.87,585.24,77.28ZM110,75.25a25.13,25.13,0,0,1,.19,4.67c-.64,4.07-1.52,8.09-2.23,12.14-1.2,6.75-2.31,13.52-3.51,20.27-1,5.64-2.18,11.26-3.14,16.91-1.45,8.49-2.77,17-4.18,25.49q-1.59,9.6-3.29,19.17c-.72,4-1.46,8.09-2.32,12.1s-1.55,8.36-3,12.28a51.16,51.16,0,0,1-19.79,25.11,90.08,90.08,0,0,1-20.82,10,67,67,0,0,0-10.26,4.41c-3.6,2-4.72,5.91-3.32,9.72,2.31,6.32,4.58,12.65,7,18.92,3,7.93,8,10.68,16.12,8.7A119.84,119.84,0,0,0,86,264.41c21-11.3,34.68-28.75,43.5-50.4,5.72-14,8.43-28.92,11.16-43.75,2.68-14.58,5-29.22,7.51-43.84,1.81-10.83,3.51-21.68,5.32-32.51q4.26-25.45,8.63-50.89c.93-5.4-2-9.35-7.46-9.84-2-.18-4-.24-6-.25q-33.73,0-67.47,0c-2.25,0-4.49.16-6.74.33a7.39,7.39,0,0,0-6.9,6C65.72,47.1,64.37,55.09,63,63.06a26.17,26.17,0,0,0-.24,5.6c.13,3.39,1.61,5.1,4.89,5.59a53.13,53.13,0,0,0,7.45.65c9.12.07,18.24,0,27.37,0C104.64,74.94,106.87,75.12,110,75.25Z" transform="translate(93.19 296.13)"/>
    <path d="M1056.66,190a27.37,27.37,0,0,0-4.94-.93c-21.86-.07-43.73-.05-65.6-.08-3,0-4.69,1.18-5.92,4.08-3.45,8.12-7.25,16.1-11,24.11-1.82,4-3.66,7.89-5.66,11.75a12,12,0,0,1-9.76,6.63,127.16,127.16,0,0,1-32.5-.31c-6.19-.76-8-3.55-6-9.55a155.66,155.66,0,0,1,6.12-14.77c3.73-8.14,7.59-16.22,11.48-24.27,2.82-5.82,5.85-11.53,8.66-17.34,3.42-7.05,6.67-14.17,10-21.24,5.15-10.77,10.36-21.51,15.51-32.28,4.62-9.65,9.16-19.34,13.82-29,6.12-12.65,12.24-25.31,18.54-37.86a65,65,0,0,1,6.83-11,12.58,12.58,0,0,1,9.93-4.56c16-.13,32-.5,47.93,0,10,.33,12.47,5.12,14.33,13.53,2.45,11.08,3.87,22.38,5.88,33.56,1.79,9.93,3.81,19.81,5.67,29.73.92,4.9,1.72,9.83,2.55,14.75,1.22,7.26,2.34,14.54,3.64,21.79,1.87,10.43,4,20.83,5.78,31.27,2.12,12,4.08,24.11,6.11,36.17.46,2.7,1,5.4,1.42,8.11.85,5.37-.8,9.74-4.54,11.71a12.09,12.09,0,0,1-3.9,1.19c-10.07,1.31-20.15,1.73-30.25.19-4.89-.75-7.44-2.88-8.37-7.71-1.12-5.88-2-11.81-2.85-17.72C1058.66,203.63,1057.74,197.22,1056.66,190Zm-16.1-110.87c-4.1-3.33-7.26-2.55-9.49,2.23-4.73,10.13-9.49,20.24-14.16,30.39q-7.32,15.92-14.45,31.91c-.55,1.22-.41,2.75-.58,4,4.46,1.49,44.62,1.21,47.67-.14C1050.46,144.51,1043.34,90.12,1040.56,79.12Z" transform="translate(93.19 296.13)"/>
    <path d="M899.53,194.51c3.16,2.56,3.61,5.06,3.15,7.8-1.47,8.62-2.86,17.25-4.52,25.82-.93,4.8-3.35,6.94-8.07,7.45a115.4,115.4,0,0,1-12.32.76q-46.31.09-92.61,0c-5.48,0-11-.51-16.44-1.06-5.76-.59-9.34-4.26-8.91-10,.6-8.2,1.85-16.36,3.07-24.49.91-6,2.31-12,3.31-18,2.13-12.8,4.06-25.62,6.24-38.41,1.77-10.43,3.84-20.81,5.66-31.24,1.22-7,2.23-14,3.37-21.06.72-4.42,1.41-8.86,2.26-13.26,2.28-11.75,4.51-23.51,7-35.21a12,12,0,0,1,11.17-10,179.37,179.37,0,0,1,18-.87q48.36-.12,96.73,0c3.32,0,6.64.55,9.37.79a8.41,8.41,0,0,1,2.4,7.9c-1.23,7-2.14,14.06-3.42,21a34,34,0,0,1-2.51,7.82,6.92,6.92,0,0,1-5.94,4c-3,.3-6,.65-9,.66Q871.92,75,836.3,75c-2.36,0-4.81-.26-6.67,2.11-1.92,11.43-3.86,23.06-5.91,35.28,2.43.24,4.1.54,5.77.54,19,0,38,0,57,0,4.73,0,9.53-.17,14.2,2.65,2.72,2.44,2.32,6,1.74,9.46-1.1,6.65-2.32,13.28-3.49,19.92-1,5.46-3.45,7.84-8.95,8.39-2,.19-4,.22-6,.22q-30.37,0-60.74,0c-1.83,0-3.67.22-6,.37-1,4.89-2,9.47-2.76,14.1-1.09,6.78-1.9,13.6-2.92,20.39-.73,4.85-.06,5.73,5,5.73q35.05,0,70.11,0C891.15,194.2,895.63,194.41,899.53,194.51Z" transform="translate(93.19 296.13)"/>
    <path d="M232.75,37c.09,1.6.34,3.7.32,5.79-.07,9.42-2.34,18.53-4,27.73q-2.25,12.7-4.32,25.45c-1.55,9.49-3,19-4.55,28.48-1.85,11.06-4,22.08-5.68,33.18-1.42,9.58.19,18.69,6.26,26.56,5.05,6.55,12.29,9.17,20.14,10.16a77.5,77.5,0,0,0,11.61.18c15.87-.42,26-9.75,30.78-23.49a126.36,126.36,0,0,0,5.51-24c1.58-11.09,4.11-22,6-33.09,1.33-7.62,2.23-15.31,3.51-22.93,1-5.9,2.34-11.73,3.36-17.61,1.43-8.24,2.64-16.51,4.08-24.75a61,61,0,0,1,2.28-9.44,8.19,8.19,0,0,1,7.54-5.84c4.74-.32,9.48-.64,14.22-.66,5,0,10,.22,15,.51,5.6.34,8.39,3.19,7.84,8.74-.84,8.43-2.07,16.83-3.35,25.21-1.07,7-2.44,14-3.68,21-.94,5.27-1.89,10.53-2.81,15.81-2.16,12.41-4.18,24.85-6.49,37.24-2.43,13-4.47,26.09-7.89,38.82-4.36,16.26-12.2,30.83-25.55,41.74a68.79,68.79,0,0,1-27.19,13.6,127.48,127.48,0,0,1-38.22,3.86c-15.16-.87-29.53-4.66-42.13-13.62a63,63,0,0,1-22.48-28.7c-6.49-16.35-6-33.17-3.22-50.13q1.76-10.51,3.57-21c1.94-11.18,4-22.34,5.85-33.54,1.35-8.12,2.41-16.28,3.74-24.4,1-5.89,2.15-11.74,3.24-17.61.43-2.32.93-4.64,1.3-7C188.42,36.77,192,33,198.21,33c8.74,0,17.48,0,26.22,0A9.64,9.64,0,0,1,232.75,37Z" transform="translate(93.19 296.13)"/>
    <path d="M358.66,193.37c3.22-2.61,6.43-2.87,9.94-2.47,20.61,2.34,41.23,4.41,62,3.5a56.41,56.41,0,0,0,21.07-4.67,18.13,18.13,0,0,0,9.48-10.1,10.82,10.82,0,0,0-3.65-12.43,46.7,46.7,0,0,0-11.29-6.39c-7.45-2.8-15.14-4.95-22.74-7.36-13.11-4.16-25.94-8.95-37.19-17.12-14.07-10.22-20.25-24.19-19.38-41.41.35-6.86.78-13.72,3.35-20.22,3.1-7.84,7.16-15.05,13.18-21a68.41,68.41,0,0,1,21.84-14.77,94.47,94.47,0,0,1,17.18-5.16,146.19,146.19,0,0,1,38.78-2.46q18.88,1.1,37.77,2.46a27.81,27.81,0,0,1,7.23,1.66c3.14,1.14,5.46,3.43,5.29,7-.29,6.07-.79,12.15-1.62,18.16a51.39,51.39,0,0,1-2.69,9.28c-1.7,5.06-5.35,7.23-10.63,6.92q-16.28-1-32.54-1.88c-11.25-.64-22.51-1-33.57,1.52a32.45,32.45,0,0,0-10.1,4.55c-7.24,4.66-7.12,15.7-.66,20.64,3,2.32,6.27,4.72,9.81,6,10.31,3.66,20.93,6.48,31.23,10.17,11.15,4,21.94,8.8,31.17,16.51,11.36,9.51,17.42,21.5,17.84,36.42.43,15.21-2.88,29.26-12.58,41.26a61.37,61.37,0,0,1-25.53,18.34,109.66,109.66,0,0,1-42.48,7.59c-12.74-.17-25.51,0-38.21-.86-10.44-.68-20.83-2.41-31.19-4-6-.91-7.68-3.29-7-9.32,1-7.92,2.13-15.82,3.45-23.69C356.66,197.65,357.87,195.5,358.66,193.37Z" transform="translate(93.19 296.13)"/>
    <path d="M1212.14,76.25c-2.1,12.57-4,24.15-6,35.71-2.24,12.91-4.59,25.79-6.86,38.68-2.32,13.15-4.65,26.3-6.87,39.46-1.89,11.21-3.58,22.45-5.5,33.65a18.81,18.81,0,0,1-2.3,7c-1.18,1.82-3.28,3.81-5.26,4.19a93.1,93.1,0,0,1-32.79.22c-3.45-.56-5-2.42-5.12-5.89a67.57,67.57,0,0,1,.42-10.84c1.09-7.66,2.55-15.26,3.82-22.9s2.47-15.5,3.8-23.24c2.11-12.17,4.32-24.32,6.47-36.48q3.42-19.35,6.81-38.69c1-5.53,2-11,2.89-16.58.73-4.51-.25-5.61-4.91-5.62-13.12,0-26.25,0-39.37,0a34.19,34.19,0,0,1-6.69-.67c-3.68-.77-4.83-2.23-4.74-6a45.34,45.34,0,0,1,.76-7.44c1.36-7.09,2.75-14.18,4.39-21.2,1-4.1,3.83-6.31,8.12-6.47s8.74-.46,13.11-.46q63,0,126,0a72.56,72.56,0,0,1,8.59.53c3.47.42,5,2,4.69,5.51-.73,7.06-1.83,14.09-2.88,21.12a62.33,62.33,0,0,1-1.49,6.57c-1.46,5.5-4.43,8-9.33,8.12-6.49.16-13,.37-19.48.43-8.25.07-16.5,0-24.74.08C1215.82,75.05,1214,75.82,1212.14,76.25Z" transform="translate(93.19 296.13)"/>
    <path d="M585.24,77.28c-1-2.41-3-2.71-5.26-2.68-13.61.16-27.23.38-40.84.25-9.18-.08-10.84-2-9.59-11.14a210,210,0,0,1,4.5-23.48c1.18-4.61,4-7.13,8.85-7.19,6.87-.08,13.74-.4,20.6-.41q54.54-.06,109.08,0c5.24,0,10.48.19,15.72.39a52.44,52.44,0,0,1,5.32.82c.42,1.75,1.28,3.54,1.17,5.25a136.39,136.39,0,0,1-1.66,14.11c-.85,4.9-2,9.75-3.22,14.59-1,4-3.39,6.09-7.61,6.52-3.35.33-6.72.59-10.09.61-11.62.07-23.24,0-34.86,0-5,0-5.57.42-6.4,5.24-1.5,8.6-2.82,17.22-4.33,25.82-1.8,10.19-3.76,20.35-5.58,30.54-1.1,6.14-2.09,12.3-3.1,18.46-2,12.43-4,24.86-6.12,37.28-1.51,9.1-3,18.22-4.74,27.27a75,75,0,0,1-3.44,11.75c-.92,2.49-3.2,3.67-5.89,4a111.68,111.68,0,0,1-31.36,0c-3.79-.55-5.88-3-6.08-6.89a19.47,19.47,0,0,1,.19-4.11c2-12.18,4-24.36,6-36.54,1.14-7,2.2-14,3.37-21.05,1.07-6.4,2.28-12.77,3.35-19.17,1.38-8.24,2.62-16.51,4.06-24.75,1-5.76,2.21-11.48,3.34-17.21.05-.25.14-.48.18-.73Q583,91.07,585.24,77.28Z" transform="translate(93.19 296.13)"/>
    <path d="M110,75.25c-3.09-.13-5.32-.31-7.54-.32-9.13,0-18.25,0-27.37,0a53.13,53.13,0,0,1-7.45-.65c-3.28-.49-4.76-2.2-4.89-5.59a26.17,26.17,0,0,1,.24-5.6c1.42-8,2.77-16,4.6-23.83a7.39,7.39,0,0,1,6.9-6c2.25-.17,4.49-.33,6.74-.33q33.74,0,67.47,0c2,0,4,.07,6,.25,5.51.49,8.39,4.44,7.46,9.84q-4.37,25.44-8.63,50.89c-1.81,10.83-3.51,21.68-5.32,32.51-2.46,14.62-4.83,29.26-7.51,43.84-2.73,14.83-5.44,29.7-11.16,43.75-8.82,21.65-22.53,39.1-43.5,50.4a119.84,119.84,0,0,1-28.6,10.72c-8.1,2-13.08-.77-16.12-8.7-2.41-6.27-4.68-12.6-7-18.92-1.4-3.81-.28-7.73,3.32-9.72a67,67,0,0,1,10.26-4.41,90.08,90.08,0,0,0,20.82-10,51.16,51.16,0,0,0,19.79-25.11c1.46-3.92,2.12-8.16,3-12.28s1.6-8.06,2.32-12.1q1.7-9.57,3.29-19.17c1.41-8.49,2.73-17,4.18-25.49,1-5.65,2.13-11.27,3.14-16.91,1.2-6.75,2.31-13.52,3.51-20.27.71-4,1.59-8.07,2.23-12.14A25.13,25.13,0,0,0,110,75.25Z" transform="translate(93.19 296.13)"/>
    <path class="cls-1" d="M1040.56,79.12c2.78,11,9.9,65.39,9,68.41-3,1.35-43.21,1.63-47.67.14.17-1.27,0-2.8.58-4q7.11-16,14.45-31.91c4.67-10.15,9.43-20.26,14.16-30.39C1033.3,76.57,1036.46,75.79,1040.56,79.12Z" transform="translate(93.19 296.13)"/>
  </g>
</svg>
