<svg id="Livello_1" data-name="Livello 1" xmlns="http://www.w3.org/2000/svg" width="672.07" height="402.2" viewBox="0 0 672.07 402.2">
  <defs>
    <style>
      .cls-1 {
        fill: none;
        stroke: #000;
        stroke-linecap: round;
        stroke-linejoin: round;
        stroke-width: 2px;
      }
    </style>
  </defs>
  <title>latempesta</title>
  <g>
    <path d="M347.29,129.15c-1,8.26-2.33,19.49-3.71,30.71a16,16,0,0,1-.93,3.36c-.58,1.59-1.77,2.27-3,.89-7.43-8.33-17.73-8.65-27.57-9.43-29.62-2.37-59.25-.11-88.87.17-21,.19-42-.55-62.94-.84-2.32,0-4.66,0-7,.22-.54,0-1,.7-1.55,1.07.42.44.79,1.19,1.26,1.26,2.11.33,5.65-.16,6.08.8a8,8,0,0,0,3.64,4.38,226.93,226.93,0,0,1,35.69,23.65c1.88,1.51,3.88,1.9,6.24,2.36a56.16,56.16,0,0,1,14.11,4.7c25.47,12.54,50.91,25.15,76.16,38.12,20,10.29,40.45,19.45,62.47,24.55a135.41,135.41,0,0,0,13.82,2.08c7.84,1,14.75-2.08,21.44-5.51,9.85-5.06,18.67-11.47,25.57-20.35a37.24,37.24,0,0,0,6.63-14.89c.29-1.24,1.54-3.17,2.31-3.16a5.74,5.74,0,0,1,4,2.13,8.07,8.07,0,0,1,1.79,5c-.72,8.28-1.74,16.59-5.79,24a18.64,18.64,0,0,1-5.73,6.67c-12.2,7.94-20.18,19.14-25.79,32.26a107.13,107.13,0,0,0-3.8,10.27c-1.47,4.71-5.31,6.5-9.47,7-4,.47-7.31-1.47-9.26-5.43-8.16-16.64-22.82-24.05-40-27.25-13.89-2.58-28-4-41.88-6.7-10.73-2.08-21.72-3.88-31.11-10.19-11.87-8-23.79-15.87-35.47-24.1-6.14-4.32-13-6.54-20.06-8.57-12.75-3.68-25.49-7.46-38.33-10.82-20.58-5.38-41.23-10.45-61.85-15.64-4.19-1-8.41-2-12.59-3.08-3.84-1-6.88-.42-9.82,2.74-7.58,8.17-15.43,16.11-23.38,23.92A622.55,622.55,0,0,1-1,267.1c-2.93,2.22-6.11,3.48-9.77,2.55-9-2.26-18.31-3.82-26.93-7.13-15.49-6-30.41-13.36-45.83-19.5Q-109,232.9-134.91,224A318.11,318.11,0,0,0-166,215.31,93.76,93.76,0,0,0-217.76,218c-3.18,1.06-6.07,3.35-8.73,5.51s-4.64,4.77-7,7.1a15.79,15.79,0,0,1-2.76,1.8c-.26-1.19-.6-2.37-.77-3.57-.11-.81.12-1.67,0-2.49-.57-5.43-1-10.88-1.84-16.27-.81-5.15-.21-6.63,4.83-7.91,8.55-2.16,17.17-4,25.71-6.22a157.22,157.22,0,0,0,18.59-5.55,28.9,28.9,0,0,0,9.19-6.5c4.57-4.51,13.5-6.27,18.8-3,3.46,2.15,4.43,5.53,4.41,9.45,0,8.19,1.62,10.82,9.57,12.67,8.9,2.07,18,3.64,27,4.86,17.16,2.32,34.49,3.55,51.53,6.51,17.81,3.1,34.75,9.13,49,21.06,1.4,1.17,3,2.13,4.3,3.4,1.86,1.83,3.16,1.18,4.44-.62,1.93-2.71,3.81-5.47,5.87-8.08,9-11.34,17.87-22.76,27.14-33.86,3.2-3.82,5.66-7.34,5.82-12.67a75,75,0,0,1,2.69-16.15c.89-3.53-.83-5.13-3.33-6.26-5.29-2.4-10.71-4.52-16.08-6.75-15.23-6.34-30.42-12.78-43.21-23.55-15.5-13-23.28-29.67-22.3-50a94.57,94.57,0,0,1,8.93-36.05c1.92-4.09.69-9.77.54-14.72-.3-9.48-.9-19-1.26-28.43a17.82,17.82,0,0,1,.87-4.22,16.79,16.79,0,0,1,4,1.42c8.39,5.67,16.77,11.37,25,17.26,1.91,1.37,3.2,1.64,5.3.38C-2.78,11.32,6.2,6.59,14.76,1.18A33.74,33.74,0,0,0,27.09-11.63c2.63-5.07,2.05-9.74-1.76-13.79a62.79,62.79,0,0,0-8.95-7.9C7.76-39.53-.11-46.25-3.56-56.86-4.59-60-6-60.22-8.67-58s-5.06,4.31-7.62,6.43a7.38,7.38,0,0,1-1.6.76,8.15,8.15,0,0,1,.35-1.31c5-11.29,3.45-23.19,3.25-35-.06-4.16-.05-8.32.09-12.47,0-.65.85-1.28,1.31-1.92.57.47,1.46.83,1.65,1.42C-7.39-87.76.71-78,8.21-67.88A22.31,22.31,0,0,1,10.15-65c.64,1.26,1.09,2.61,1.62,3.92a28.26,28.26,0,0,1-4.18.45c-2-.07-4-.6-6-.59-3.7,0-4.31.93-2.55,4.06a19.33,19.33,0,0,0,4.55,5.85c5.37,4.16,11,8,16.58,11.87,2.32,1.6,5,2.76,7.21,4.46C39.54-25.79,40.33-12.23,29.54-1.5,22.12,5.88,13.05,10.8,4.06,15.85c-2.9,1.63-5.69,3.46-8.65,5s-2,2.42.08,4A150.77,150.77,0,0,0,26.56,42.71c11.91,5,24.08,9.45,36.17,14.08C66,58,67.3,57,68.14,53.21c1.06-4.86,2.37-9.68,3.37-14.55.45-2.25,1.74-3.29,3.7-4.21C89.5,27.72,103.82,21,118,14a136.79,136.79,0,0,0,14.89-9.09c3.83-2.56,4-4.23,1.36-7.73a30,30,0,0,1-6.39-18c-.1-7.3-2.53-13.13-8-18-8.45-7.6-9.25-17.56-8-28,.33-2.7,1.31-2.38,3.26-1.31A49.87,49.87,0,0,1,130.49-55c3.1,3.94,3.21,3.9,6.74.58,5.84-5.49,5.59-5.29.76-11.32s-9.52-12-13.16-18.66c-2.12-3.86-2.07-8.92-2.9-13.46-.09-.49.47-1.1.73-1.65.38.47,1,.89,1.1,1.42,1.6,7.7,6.9,11.07,14,13.07,8.93,2.51,16.22,7.61,20.66,16.07,1.22,2.33,2.81,3.07,5.55,3.1,4.78,0,9.54,1,14.33,1.29,1.55.08,3.74-.48,4.64-1.57a13.81,13.81,0,0,1,12.52-5.48c7.73.45,15-2.34,22.18-4.94a12.54,12.54,0,0,1,1.84-.76,23.84,23.84,0,0,1,2.81-.24,13.5,13.5,0,0,1-1,2.52c-4.74,7.33-11.76,11.3-19.88,14-6.92,2.27-6.81,2.52-2.67,8.71,1,1.52,1.76,3.22,2.83,4.7,2,2.82,2,5.28-.2,8.15-2.85,3.76-2.24,4.83,2.37,5.82,5.47,1.19,11.17,1.85,16.28,3.94,3.46,1.41,6.15,4.79,9,7.45,2,1.84,1.52,3.67-.89,4.62a13.42,13.42,0,0,1-5.23.94c-3.16-.09-6.3-.56-9.45-.92-4.27-.49-7.47,1-9.41,4.94a19.72,19.72,0,0,1-1,1.72c-3.37,5.28-3.94,5.47-10.23,4q-5.83-1.39-11.72-2.55c-.67-.14-1.47.32-2.21.5.35.67.54,1.55,1.09,2,3.79,3,7.66,5.87,11.51,8.77C196,5.07,196.32,6,194.4,11.29c-1.72,4.72-1.74,4.75,2.43,7.31,2.48,1.52,4.27,3.3,3,6.5a5.78,5.78,0,0,1-7.8,3.2c-6.52-2.92-13-6-19.28-9.4-3.1-1.67-5.32-2-7.64,1.14-2.77,3.73-5.83,7.26-8.87,10.78-1.51,1.75-1.57,3.48.15,4.78,7.8,5.84,8.87,14.77,11,23.26,1.39,5.47,3,10.87,4.57,16.3a5.44,5.44,0,0,0,4.4,4.19,58.86,58.86,0,0,0,25.24.6c7.15-1.4,14.48-2,21.74-2.72q18.39-1.87,36.79-3.48A379.08,379.08,0,0,1,311,73c7,.33,14,1,20.93,1.34,3.29.13,5.05,1.64,6.48,4.48,4.19,8.32,5.88,17.32,7.15,26.36C346.56,112.08,346.62,119.11,347.29,129.15Zm-58.5-48.93c-11.11.8-24.06,1.71-37,2.67-2.29.17-5.71-.25-6.58,1-1.07,1.56-.12,4.59.1,7,.56,6.22-1.79,9.33-8,10.38-5.66,1-5.65,1-4.67-5a2.82,2.82,0,0,0,0-1c-.34-1.51-.72-3-1.08-4.52-.25,1.41-.5,2.83-.73,4.25-.08.49.08,1.13-.17,1.47-1.51,2.06-3.11,4.06-4.68,6.07-2.1-2.29-1.34-4.75-.47-7.25,1.19-3.39.47-6-2.39-7.74-1-.58-2.39-.37-3.6-.52a29.94,29.94,0,0,0,1,3.39c.87,2.06,2,4,2.77,6.11.2.56-.41,2-.73,2.05a3.69,3.69,0,0,1-2.56-.73c-2.41-2.26-4.7-4.66-7-7-2.14-2.21-4.72-2.67-7.74-2.58-13.78.42-27.58,1.09-41.36.79-14-.3-27.69-3.31-41.25-6.81-9.82-2.54-19.68-4.9-29.51-7.42-2-.51-3.46-.58-4.52,1.63C85.53,83,82.26,89.51,79,96.06a17.46,17.46,0,0,0-.26,15c4.71,11.4,12.66,20.25,22.71,27.21,4.77,3.31,9.92,2.91,14-1,1.88-1.8,3.74-2.53,6.28-1.9,6.13,1.51,12.23.93,18.28-.6a51.19,51.19,0,0,1,5.81-1.41c1-.13,2,.47,3.08.75a10.73,10.73,0,0,1-1.49,2.83,7.43,7.43,0,0,1-3,1.71c-3,1-6,1.77-9,2.8a17.4,17.4,0,0,0-3.17,1.88,21,21,0,0,0,3.24.79c8.27.71,16.53,1.64,24.81,2,14.13.53,28.29,1,42.42.88,30-.26,59.94-1,89.91-1.37,13.65-.17,27.25.39,40.45,4.55,3.09,1,4,.2,4.41-3.38a164.9,164.9,0,0,0-.53-43.32c-.87-5.72-2.72-11.29-4.15-16.92-.82-3.21-2.93-4.35-6.21-4.48C314.62,81.61,302.65,80.92,288.79,80.22ZM64.62,67.79c-.93-.75-1.88-2-3.14-2.48-8.84-3.39-17.82-6.43-26.6-10-15.16-6.07-29.81-13.12-43-22.9-8.29-6.12-16.73-12-25.17-18a15.1,15.1,0,0,0-3.58-1.32,16.57,16.57,0,0,0-.76,3.66c.31,12.47.91,24.94,1,37.42.07,9.3-.23,18.63-.91,27.91-.23,3.17.43,5,3.06,6.55,4.76,2.71,9.27,6,14.25,8.18,13,5.77,26.1,11.54,39.47,16.5,16.32,6,33,11.27,49.48,16.79a7.05,7.05,0,0,0,2.65-.25,11.64,11.64,0,0,0-1.19-2c-5.4-6.11-10.78-12.23-16.29-18.24-1.76-1.93-2.4-3.66-1.28-6.25,2.52-5.77,5-11.58,7-17.53C61.48,80.27,62.81,74.41,64.62,67.79ZM34.28,144.92c7.24-.54,14.31-1.73,20.58-4.5,1.68-.75,3-2.19,4.56-3.32a34.13,34.13,0,0,0-4.6-2.4c-14.1-4.86-28.4-9.2-42.31-14.55-17.79-6.83-35.69-13.57-51.5-24.6a7.9,7.9,0,0,0-2.3-.68,10.6,10.6,0,0,0,.19,2.27c3.19,10.21,9.74,18.16,17.82,24.7,11.1,9,24,14.8,37.67,18.74C20.89,142.46,27.64,143.5,34.28,144.92Z" transform="translate(239.14 101.52)"/>
    <path d="M188.34,122.64c-1.16,3.17-2.13,6.42-3.58,9.45-.51,1.06-2.2,1.54-3.36,2.29a19.61,19.61,0,0,1-.6-3.6c0-2.15.55-4.32.36-6.44-.11-1.24-1.16-3.36-1.86-3.39a5.62,5.62,0,0,0-4.13,1.76c-1.52,1.91-2.39,4.33-3.59,6.51a13,13,0,0,1-1.91,2.85c-2.16,2.2-3.7,1.75-4.48-1.25s-1.39-6.15-2.28-9.16c-.28-.94-1.25-1.68-1.9-2.51-.78.76-1.86,1.38-2.29,2.31-1,2.22-1.69,4.62-2.65,6.88a10.41,10.41,0,0,1-1.72,2.2,11.76,11.76,0,0,1-2.38-2.28,6.85,6.85,0,0,1-.88-3.31,29.31,29.31,0,0,1,4.31-16c2-3.22,5.88-3.44,8.16-.42a76.68,76.68,0,0,1,4.4,7.16c1.27,2.14,2.49,3.67,4.57.65a37.62,37.62,0,0,1,3.1-3.23c1.94-2.19,4.65-3.58,7.06-2.19,2,1.15,3.37,3.77,4.39,6,.71,1.55.34,3.59.46,5.42Z" transform="translate(239.14 101.52)"/>
    <path d="M206.49,130.09l-3.63-.57c-3.37-.54-5,.95-4.68,4.29.22,2.14.89,4.3.69,6.38a3.84,3.84,0,0,1-2.72,2.59,3.76,3.76,0,0,1-2.82-2.4c-.42-7.47-4-14.91-.4-22.45,1.12-2.37,1.82-5,3.26-7.15,2.46-3.67,8.84-4.5,12.45-1.17a26.06,26.06,0,0,1,6.7,9.55C217.91,126,214.64,130,206.49,130.09Zm-.84-5.91c3.66-.1,5.93-2.13,4.61-3.78a32.08,32.08,0,0,0-6.42-5.88c-.68-.5-3-.1-3.37.56a13.7,13.7,0,0,0-2.09,6.28c0,.75,2.78,1.65,4.38,2.27A13.09,13.09,0,0,0,205.65,124.18Z" transform="translate(239.14 101.52)"/>
    <path d="M113.4,120q1.62-10.31,3.26-20.6c.24-1.48.62-2.93.81-4.41.3-2.37-.51-3.74-3.17-4a13.38,13.38,0,0,1-5.12-1.6,3.06,3.06,0,0,1-1.11-2.79,3.14,3.14,0,0,1,2.75-1.2c7.46,1.42,14.89,3,22.28,4.68,1,.23,1.67,1.64,2.5,2.51-.91.8-1.72,2.09-2.73,2.27a7.56,7.56,0,0,1-4.3-.66c-3-1.41-4.57-1-5,2.65-1.1,8.72-2.41,17.42-3.63,26.13-.16,1.15.19,2.7-.44,3.37a8.67,8.67,0,0,1-4.06,2.17c-.31.08-1.51-1.88-1.69-3a34.39,34.39,0,0,1-.08-5.47Z" transform="translate(239.14 101.52)"/>
    <path d="M275.6,116.49c.45,3.8.81,7.61,1.4,11.38.29,1.81-.09,3.3-1.91,3.23a4.1,4.1,0,0,1-3.06-2.33,61.18,61.18,0,0,1-1-8.9c-.09-1.15.15-2.33,0-3.48-.76-6.94-.8-6.85-7.7-8.42-1.19-.27-2.13-1.6-3.18-2.45,1-.85,2-1.73,3.06-2.54.23-.17.65-.09,1-.11,7.15-.33,8-.41,7.75-8.15a5.54,5.54,0,0,1,.42-2.89,3,3,0,0,1,2.26-1.44,2.73,2.73,0,0,1,1.78,1.9,63.58,63.58,0,0,1,.24,6.48c.11,4,1.67,5.61,5.57,6.16a56.67,56.67,0,0,1,5.59,1.55c1.95.47,3.28,1.71,2.21,3.48-.63,1-2.63,1.54-4.07,1.68-1.61.16-3.27-.4-4.92-.57C275.43,110.5,275.22,110.72,275.6,116.49Z" transform="translate(239.14 101.52)"/>
    <path d="M307.38,121.29c-1.65,3.36.7,6.08,1.9,9.1a16.61,16.61,0,0,1,.56,4c-1.41.12-2.89.54-4.22.25a5.35,5.35,0,0,1-2.65-2.08c-1.16-1.51-2.21-1.92-4.19-1.23-4.2,1.45-8.37,0-10-3-2-3.72-1.43-8.7,1.79-11.41a17.8,17.8,0,0,1,7.13-4C304.91,111.23,307.51,113.67,307.38,121.29ZM302,118.65c-.48-.34-1.31-1.39-2.29-1.55-2.5-.42-7.37,3.78-7.36,6.16a3.16,3.16,0,0,0,3.29,3.52C298.17,126.91,301.84,122.73,302,118.65Z" transform="translate(239.14 101.52)"/>
    <path d="M234.06,130.67c-6.68,0-10.22-2.19-11.64-7.15a14,14,0,0,1,5.26-15.29c2.6-1.74,5.49-2.54,7.81-.49a8.78,8.78,0,0,1,2.58,6,7.89,7.89,0,0,1-5.91,7.18c-1.5.35-2.95.92-4.42,1.4,1.33,1.3,2.5,2.91,4.07,3.81,1.17.68,2.91.29,4.33.66a17.67,17.67,0,0,1,3.22,1.56,31.68,31.68,0,0,1-3.33,2.23C235.51,130.9,234.72,130.67,234.06,130.67Zm-6.7-15.29c1.1.7,1.92,1.36,2,1.26,1.23-1.14,2.34-2.4,3.49-3.63-.42-.39-1.13-1.16-1.22-1.1C230.31,112.9,229,114,227.36,115.38Z" transform="translate(239.14 101.52)"/>
    <path d="M139.47,106.11c1.92.09,4,.49,4.5,3.6.63,4.12-.81,8-4,9.26a29.58,29.58,0,0,1-4.29.82,26.69,26.69,0,0,0-2.58.83c.47.94.69,2.34,1.45,2.75,2.13,1.16,4.51,1.87,6.74,2.86a19.56,19.56,0,0,1,2.59,1.7c-.93.51-1.82,1.34-2.8,1.47-4.73.64-9.24-.45-12-4.36a11.24,11.24,0,0,1-.49-11.83C130.62,109.31,133.47,105.5,139.47,106.11Zm-4.71,10.16c1.78-1.56,3.19-2.73,4.48-4,.12-.12-.52-1-.81-1.53-1.5,1.08-3,2.14-4.47,3.31C133.82,114.14,134.31,115,134.76,116.27Z" transform="translate(239.14 101.52)"/>
    <path d="M248.75,132.77c-1.2-.14-1.82,0-2.17-.28a29.39,29.39,0,0,1-2.36-2.11,12.23,12.23,0,0,1,2.22-1.62c1.17-.51,2.62-.5,3.65-1.18,2.09-1.38,3.67-3,1-5.51a13.2,13.2,0,0,1-3.68-5.24c-.72-2.38-1.12-5.3-.33-7.52.47-1.35,3.4-2,5.35-2.52.69-.18,1.75,1.09,2.63,1.71-.62.81-1.14,2.23-1.88,2.35-3.5.56-2.7,2.25-1.28,4.12a77.73,77.73,0,0,0,5.26,6.58c1.88,2,1.52,3.68,0,5.7A15.92,15.92,0,0,1,248.75,132.77Z" transform="translate(239.14 101.52)"/>
    <path d="M4.25,93.94C-2,91.84-8.06,89.7-14.18,87.77c-3.54-1.12-3.86-3.68-2.59-6.26C-13.35,74.57-9.62,67.78-5.9,61a41.1,41.1,0,0,1,3.75-5.28c1-1.29,2-2.92,3.41-3.53s3.37-.22,5.09-.26c-.09,1.67.42,3.75-.38,5C3.21,61-.12,64.72-3,68.74-4.65,71-5.85,73.59-7.29,76c-1.87,3.13-.57,5.56,2,7.2a61.57,61.57,0,0,0,8,3.82c.9.39,2,.35,2.82.88a42,42,0,0,1,3.84,3.25Z" transform="translate(239.14 101.52)"/>
    <path d="M14.19,92.68c-.06-7.88,10-13.72,17.08-9.86A3.42,3.42,0,0,1,32.9,85c.26,2.61.09,5.26.3,7.87s.8,5.1,1,7.66a32.88,32.88,0,0,1-.35,4.93c-1.73-.63-4.24-.77-5-2-1.68-2.6-3-3.36-6.28-2.64C17.76,101.87,14.23,98,14.19,92.68ZM26.72,87c-4.64-.07-7.88,2.22-8,4.95-.08,2.42,1.41,3.72,3.55,4,2,.3,6.92-5.31,6.39-7.3C28.46,87.81,27,87.24,26.72,87Z" transform="translate(239.14 101.52)"/>
    <path class="cls-1" d="M-12.5-100.5l1.5,9" transform="translate(239.14 101.52)"/>
    <path class="cls-1" d="M-4.5-61.5c3.56,7.91,7.8,15.3,15.5,20" transform="translate(239.14 101.52)"/>
    <path class="cls-1" d="M122.5-100.5c.52,4.74,1,9.48,4,13.5" transform="translate(239.14 101.52)"/>
    <path class="cls-1" d="M222.5-77l-7,4.5" transform="translate(239.14 101.52)"/>
    <path class="cls-1" d="M304.25,122c.58-2.9.56-6.41-2.32-7.25-2.71-.78-5.83.3-8.53,2.63-5.54,4.78-3.7,10.07.13,11.53a9.34,9.34,0,0,0,5,0A23.46,23.46,0,0,0,303,127" transform="translate(239.14 101.52)"/>
    <path class="cls-1" d="M30.5,92c.49-2.61,1.77-6.17-1.1-7.23-2.53-.94-6.21-.28-8.81.93a6.94,6.94,0,0,0-4.15,6.8c.24,3.93,3.84,7,7.56,6,1.52-.42,3-1,4.5-1.49" transform="translate(239.14 101.52)"/>
    <path class="cls-1" d="M110.25,87.25c2.42,3.14,6.53.61,9.25,2.75" transform="translate(239.14 101.52)"/>
    <path class="cls-1" d="M196,140c-.17-3-.33-6-.5-9" transform="translate(239.14 101.52)"/>
    <path class="cls-1" d="M204,126.75l-2.5-.75" transform="translate(239.14 101.52)"/>
    <path class="cls-1" d="M-1,89.25,9.5,91" transform="translate(239.14 101.52)"/>
    <path class="cls-1" d="M143.5,128c-3.32-.88-6.79-.06-10.14-2.29-2.71-1.82-3.21-3.66-2.81-6.2.49-3.13,3.13-1.86,4.95-2,4.37-.28,6.27-2.44,6.05-6.53-.15-2.93-2-3.29-4-2.94-3.93.67-6.4,4.74-6,9.44" transform="translate(239.14 101.52)"/>
    <path class="cls-1" d="M147.5,134.5c-4.09,3.3-9.32,3.05-14,4.5" transform="translate(239.14 101.52)"/>
    <path class="cls-1" d="M226,119c3.89.28,7.64,0,8.92-4.52.37-1.35.27-3.5-.57-4.33s-3.35-1.18-4.26-.52c-2.75,2-5.54,4.34-5.07,8.37.32,2.69-1.63,6,1.52,7.93,3,1.81,6,4,10,3.08,1-.23,2-.34,3-.51" transform="translate(239.14 101.52)"/>
    <path class="cls-1" d="M228.5,89.5c.85,4.66-1.56,8.69-2.5,13" transform="translate(239.14 101.52)"/>
    <path class="cls-1" d="M253,109c-4.63.54-5.58,2.11-3.48,6,1,1.9,2.51,3.58,3.42,5.54.81,1.75,4.25,2.94,2,5.4-2.44,2.66-4.83,6.1-9.43,4.57" transform="translate(239.14 101.52)"/>
    <path class="cls-1" d="M274.5,91.5c-.17,3.67-.33,7.33-.5,11" transform="translate(239.14 101.52)"/>
    <path class="cls-1" d="M273.5,110.5c0,5-.09,10,.05,15a44.28,44.28,0,0,0,.95,6" transform="translate(239.14 101.52)"/>
    <path class="cls-1" d="M134.5,92.5c-2-.33-4-.82-6-1-2.32-.17-4.67,0-7,0" transform="translate(239.14 101.52)"/>
    <path class="cls-1" d="M-12.25-59l-6.25,8.5" transform="translate(239.14 101.52)"/>
  </g>
</svg>
