<svg id="Livello_1" data-name="Livello 1" xmlns="http://www.w3.org/2000/svg" width="1000" height="328" viewBox="0 0 1000 328">
  <defs>
    <style>
      .cls-1 {
        fill: #fff;
      }
    </style>
  </defs>
  <title>loreal</title>
  <g>
    <path class="cls-1" d="M337,433H261c.39-3.17.79-6.33,1.21-9.74l-7.93-.68V371.31c8.35-1.06,9.13-2.28,6.81-10h-29c0,1.88,0,3.36,0,4.84s.21,2.85.33,4.41l7.18.61v51.48l-7.59.63V433H38V274c.83.07,1.66.21,2.49.21q62.71.36,125.44.69a21.86,21.86,0,0,0,2.36-.3V258.42H59.49V129H38V105H277c-7.32,1.34-14.72,2.38-22,4.06-39.27,9.06-66.35,39.17-69.91,77.5-3.76,40.39,18,77.79,54.25,93.05,22.24,9.35,45.31,9.87,68.62,5.32,47.81-9.35,70.8-43.75,73.49-79.77,3.23-43.41-25.31-84.84-67.59-96.06-6.53-1.74-13.26-2.75-19.9-4.1h744V258c-1.32-.12-2.64-.33-4-.34l-99-.66h-6.15V130.19H908.77V275H1038V433H797a32,32,0,0,0-.69-5.31q-8.77-29.13-17.69-58.2c-2.63-8.61-2.67-8.37-11.6-8.69-4-.14-5.79,1.11-6.95,5-6.07,20.55-12.47,41-18.66,61.54-.53,1.76-.29,3.76-.41,5.64H679v-9.78l-7.55-.62V371.16l7.21-.66v-9.28H649.73c-1.47,8.15-1.47,8.15,7,10.46v50.95l-8,.66c.48,3.61.89,6.66,1.29,9.71H585c1.14-4.05,2.28-8.11,3.65-13H560.92V361.31H547V433H480a54.76,54.76,0,0,0-1.13-6.31q-8.61-28.38-17.34-56.7c-2.82-9.19-2.84-9-12.66-9.19-3.56-.07-4.87,1.23-5.81,4.43-4.64,15.77-9.54,31.47-14.26,47.22-2,6.81-3.87,13.7-5.8,20.55H350c.17-2,.49-3.95.5-5.93,0-16.14,0-32.29,0-48.43,0-1.76.19-3.52.31-5.77,4.78,0,9.92,1.44,13.11-.43,2.76-1.62,3.3-7,5-11.21H321.35v12h14.88c0,18.34,0,36.14,0,53.94A45,45,0,0,0,337,433ZM514.57,215.84c7.11-4,12.75-6.89,18-10.28,8.12-5.2,14-12.24,16.35-21.84,5.23-21.81-7.38-44.44-29.29-50.36-10.15-2.75-21-3.73-31.56-3.92-24.82-.45-49.65.06-74.48.2-1.44,0-2.88.17-4.82.3V273.81h19.94v-59c17,0,33.19.31,49.31-.14,7.18-.2,11.78,2.47,15.75,8.18,9.79,14.08,20,27.88,30,41.8,3.58,5,7.54,9.66,14.13,10.1,6.07.41,12.19.09,19.14.09Zm209.36,58.41c7.39,0,14.17-.14,21,.07,2.8.09,4.07-1,5.25-3.41,4.76-9.7,9.89-19.22,14.58-29,1.46-3,3.25-3.95,6.53-3.92q39.22.43,78.45.51c2.87,0,4.54.9,5.84,3.48,4.88,9.64,9.91,19.21,15,28.74.71,1.32,2.12,3.16,3.26,3.2,7.4.29,14.82.15,22.82.15-1-2.11-1.69-3.59-2.41-5q-11.52-22.95-23-45.91Q848.61,178.4,826,133.65c-1.46-2.91-3.24-4.05-6.57-3.91-6.31.27-12.66.25-19-.09-3.23-.18-4.68,1.09-6,3.78-16.77,33.25-33.72,66.41-50.47,99.67C737.18,246.57,730.75,260.21,723.93,274.25Zm-117.87-65.5h78.62V192.23h-78.4V146H710.36V130.37h-126V274.14h126.6V257.27H606.06ZM174.89,129.27c-2.41-.11-3.54-.21-4.68-.2-5.49.06-12.38-1.83-16.08.79-3.88,2.74-4.89,9.75-6.8,15-4.34,12-8.45,24-13,37.1,4.88,0,8.82.15,12.74-.11a4.23,4.23,0,0,0,2.85-2.16C158.15,163.24,166.28,146.71,174.89,129.27Zm459.81-5.14.56.75L684,107.78a293.61,293.61,0,0,0-31.56-.92,5.94,5.94,0,0,0-3.78,1.8C643.94,113.73,639.35,119,634.7,124.13Z" transform="translate(-38 -105)"/>
    <path d="M294,105c6.64,1.35,13.37,2.36,19.9,4.1,42.28,11.22,70.82,52.65,67.59,96.06-2.69,36-25.68,70.42-73.49,79.77-23.31,4.55-46.38,4-68.62-5.32-36.29-15.26-58-52.66-54.25-93.05,3.56-38.33,30.64-68.44,69.91-77.5,7.24-1.68,14.64-2.72,22-4.06Zm63.6,93.1a74.78,74.78,0,0,0-74.37-74.55c-41-.26-74.75,33.44-74.7,74.63,0,41,33.4,74.52,74.28,74.68S357.62,239.14,357.6,198.1Z" transform="translate(-38 -105)"/>
    <path d="M38,129H59.49V258.42h108.8V274.6a21.86,21.86,0,0,1-2.36.3q-62.73-.33-125.44-.69c-.83,0-1.66-.14-2.49-.21Z" transform="translate(-38 -105)"/>
    <path d="M1038,275H908.77V130.19h20.14V257h6.15l99,.66c1.32,0,2.64.22,4,.34Z" transform="translate(-38 -105)"/>
    <path d="M423,433c1.93-6.85,3.76-13.74,5.8-20.55,4.72-15.75,9.62-31.45,14.26-47.22.94-3.2,2.25-4.5,5.81-4.43,9.82.2,9.84,0,12.66,9.19q8.7,28.33,17.34,56.7A54.76,54.76,0,0,1,480,433H465c-.41-1.94-.75-3.9-1.25-5.82-3.66-13.84-3.67-13.75-18.22-13.44-2.88.06-4.09,1-4.67,3.8-1.06,5.2-2.55,10.31-3.86,15.46Zm34.35-29.06c-2.19-10.38-4.27-20.29-6.66-31.63-2.55,11.43-4.77,21.35-7.06,31.63Z" transform="translate(-38 -105)"/>
    <path d="M741,433c.12-1.88-.12-3.88.41-5.64,6.19-20.52,12.59-41,18.66-61.54,1.16-3.91,2.91-5.16,6.95-5,8.93.32,9,.08,11.6,8.69q8.88,29.08,17.69,58.2A32,32,0,0,1,797,433H783c-.67-1.85-1.47-3.67-2-5.57-3.65-13.89-3.63-13.8-17.91-13.7-3,0-4.44.94-5.11,3.89-1.16,5.17-2.65,10.26-4,15.38Zm27.3-59.09h-.77c-2.2,9.92-4.4,19.85-6.63,29.93h13.64C772.4,393.59,770.35,383.75,768.3,373.91Z" transform="translate(-38 -105)"/>
    <path d="M337,433a45,45,0,0,1-.73-5.84c-.06-17.8,0-35.6,0-53.94H321.35v-12H369c-1.72,4.2-2.26,9.59-5,11.21-3.19,1.87-8.33.43-13.11.43-.12,2.25-.3,4-.31,5.77,0,16.14,0,32.29,0,48.43,0,2-.33,3.95-.5,5.93Z" transform="translate(-38 -105)"/>
    <path d="M547,433V361.31h13.92V420h27.73c-1.37,4.85-2.51,8.91-3.65,13Z" transform="translate(-38 -105)"/>
    <path d="M650,433c-.4-3.05-.81-6.1-1.29-9.71l8-.66V371.68c-8.48-2.31-8.48-2.31-7-10.46h28.93v9.28l-7.21.66V422.6l7.55.62V433Z" transform="translate(-38 -105)"/>
    <path d="M232,433v-9.72l7.59-.63V371.17l-7.18-.61c-.12-1.56-.28-3-.33-4.41s0-3,0-4.84h29c2.32,7.72,1.54,8.94-6.81,10v51.27l7.93.68c-.42,3.41-.82,6.57-1.21,9.74Z" transform="translate(-38 -105)"/>
    <path class="cls-1" d="M437,433c1.31-5.15,2.8-10.26,3.86-15.46.58-2.83,1.79-3.74,4.67-3.8,14.55-.31,14.56-.4,18.22,13.44.5,1.92.84,3.88,1.25,5.82Z" transform="translate(-38 -105)"/>
    <path class="cls-1" d="M754,433c1.36-5.12,2.85-10.21,4-15.38.67-2.95,2.08-3.87,5.11-3.89,14.28-.1,14.26-.19,17.91,13.7.5,1.9,1.3,3.72,2,5.57Z" transform="translate(-38 -105)"/>
    <path d="M514.57,215.84l42.52,59c-7,0-13.07.32-19.14-.09-6.59-.44-10.55-5.12-14.13-10.1-10-13.92-20.21-27.72-30-41.8-4-5.71-8.57-8.38-15.75-8.18-16.12.45-32.27.14-49.31.14v59H408.82V129.94c1.94-.13,3.38-.29,4.82-.3,24.83-.14,49.66-.65,74.48-.2,10.56.19,21.41,1.17,31.56,3.92,21.91,5.92,34.52,28.55,29.29,50.36-2.31,9.6-8.23,16.64-16.35,21.84C527.32,209,521.68,211.82,514.57,215.84Zm-85.36-18.63H435c21.66,0,43.32-.13,65,.07,8,.08,14.59-2.93,20.55-7.72A16.64,16.64,0,0,0,527,176.11c.1-17.5-9.79-27.91-27.32-28-22.16-.15-44.32,0-66.49.11a35.59,35.59,0,0,0-4,.49Z" transform="translate(-38 -105)"/>
    <path d="M723.93,274.25c6.82-14,13.25-27.68,20-41.15,16.75-33.26,33.7-66.42,50.47-99.67,1.36-2.69,2.81-4,6-3.78,6.32.34,12.67.36,19,.09,3.33-.14,5.11,1,6.57,3.91q22.49,44.81,45.14,89.51,11.57,22.93,23,45.91c.72,1.45,1.4,2.93,2.41,5-8,0-15.42.14-22.82-.15-1.14,0-2.55-1.88-3.26-3.2-5.1-9.53-10.13-19.1-15-28.74-1.3-2.58-3-3.47-5.84-3.48q-39.23-.1-78.45-.51c-3.28,0-5.07.88-6.53,3.92-4.69,9.74-9.82,19.26-14.58,29-1.18,2.39-2.45,3.5-5.25,3.41C738.1,274.11,731.32,274.25,723.93,274.25Zm85.44-122.19L777.58,217.9h65.21Z" transform="translate(-38 -105)"/>
    <path d="M606.06,208.75v48.52H710.92v16.87H584.32V130.37h126V146H606.28v46.27h78.4v16.52Z" transform="translate(-38 -105)"/>
    <path d="M174.89,129.27c-8.61,17.44-16.74,34-25,50.44a4.23,4.23,0,0,1-2.85,2.16c-3.92.26-7.86.11-12.74.11,4.57-13.06,8.68-25.12,13-37.1,1.91-5.27,2.92-12.28,6.8-15,3.7-2.62,10.59-.73,16.08-.79C171.35,129.06,172.48,129.16,174.89,129.27Z" transform="translate(-38 -105)"/>
    <path d="M634.7,124.13c4.65-5.17,9.24-10.4,14-15.47a5.94,5.94,0,0,1,3.78-1.8,293.61,293.61,0,0,1,31.56.92l-48.78,17.1Z" transform="translate(-38 -105)"/>
    <path class="cls-1" d="M357.6,198.1c0,41-33.88,74.91-74.79,74.76s-74.24-33.69-74.28-74.68c-.05-41.19,33.68-74.89,74.7-74.63A74.78,74.78,0,0,1,357.6,198.1Z" transform="translate(-38 -105)"/>
    <path class="cls-1" d="M457.35,403.94H443.63c2.29-10.28,4.51-20.2,7.06-31.63C453.08,383.65,455.16,393.56,457.35,403.94Z" transform="translate(-38 -105)"/>
    <path class="cls-1" d="M768.3,373.91c2.05,9.84,4.1,19.68,6.24,29.92H760.9c2.23-10.08,4.43-20,6.63-29.93Z" transform="translate(-38 -105)"/>
    <path class="cls-1" d="M429.21,197.21V148.68a35.59,35.59,0,0,1,4-.49c22.17-.07,44.33-.26,66.49-.11,17.53.12,27.42,10.53,27.32,28a16.64,16.64,0,0,1-6.48,13.45c-6,4.79-12.56,7.8-20.55,7.72-21.66-.2-43.32-.07-65-.07Z" transform="translate(-38 -105)"/>
    <path class="cls-1" d="M809.37,152.06l33.42,65.84H777.58Z" transform="translate(-38 -105)"/>
  </g>
</svg>
