<svg id="Livello_1" data-name="Livello 1" xmlns="http://www.w3.org/2000/svg" width="284" height="177" viewBox="0 0 284 177">
  <defs>
    <style>
      .cls-1 {
        fill: #fff;
      }
    </style>
  </defs>
  <title>magazineB</title>
  <g>
    <path class="cls-1" d="M243,189H-41V12H243ZM57,56.34v88.08h87.89V56.34Z" transform="translate(41 -12)"/>
    <path d="M57,56.34h87.89v88.08H57ZM77.47,72.73V128.1H89.22c7.65,0,15.31.17,22.94-.15a14.4,14.4,0,0,0,13.74-11.06c1.76-7-.25-11.8-6.69-16.06-.4-.27-.8-.56-1.14-.8.33-.52.43-.85.65-1,6.19-4.4,8.52-10.31,6.57-16.7-1.82-6-6.62-9.29-14.24-9.51-6.48-.19-13-.06-19.45-.07C87,72.72,82.36,72.73,77.47,72.73Z" transform="translate(41 -12)"/>
    <path class="cls-1" d="M77.47,72.73c4.89,0,9.51,0,14.13,0,6.48,0,13-.12,19.45.07,7.62.22,12.42,3.56,14.24,9.51,1.95,6.39-.38,12.3-6.57,16.7-.22.16-.32.49-.65,1,.34.24.74.53,1.14.8,6.44,4.26,8.45,9.09,6.69,16.06a14.4,14.4,0,0,1-13.74,11.06c-7.63.32-15.29.13-22.94.15H77.47ZM95,106.11v9c3.45,0,6.28.13,9.1,0a4.36,4.36,0,0,0,4.47-4.46c.13-2.85-1.75-4.29-4.34-4.49C101.22,105.94,98.23,106.11,95,106.11ZM94.57,94c3.7,0,6.86.21,10-.07,2.41-.22,3.78-1.92,3.85-4.44.08-2.73-1.58-4-4-4.15-3.21-.19-6.45,0-9.84,0Z" transform="translate(41 -12)"/>
    <path d="M95,106.11c3.27,0,6.26-.17,9.23,0,2.59.2,4.47,1.64,4.34,4.49a4.36,4.36,0,0,1-4.47,4.46c-2.82.17-5.65,0-9.1,0Z" transform="translate(41 -12)"/>
    <path d="M94.57,94v-8.7c3.39,0,6.63-.15,9.84,0,2.41.15,4.07,1.42,4,4.15-.07,2.52-1.44,4.22-3.85,4.44C101.43,94.22,98.27,94,94.57,94Z" transform="translate(41 -12)"/>
  </g>
</svg>
