<svg id="Livello_1" data-name="Livello 1" xmlns="http://www.w3.org/2000/svg" width="640" height="640" viewBox="0 0 640 640">
  <defs>
    <style>
      .cls-1 {
        fill: #fff;
      }
    </style>
  </defs>
  <title>mazzucchelli</title>
  <g>
    <path class="cls-1" d="M641,641H1V1H641ZM302.65,498.73c.15-2.86.39-5.29.4-7.73q0-117.49,0-235a90,90,0,0,1,.2-9c1.1-10.9,8.74-18.29,19.23-18.76,9.42-.42,17.87,6.34,19.89,16.28a47.92,47.92,0,0,1,.55,9.45q.06,118.5.06,237c0,2.56.33,5.12.51,7.76h91.12c.14-3,.35-5.64.35-8.25q0-117.75,0-235.49c0-2.67-.05-5.35.16-8,.82-10.15,8.54-18,18.25-18.73s18.13,5.3,20.52,15.32a45.11,45.11,0,0,1,.93,10.4q.08,118.49.07,237c0,2.56.32,5.11.5,7.76h91.05c.15-2.88.38-5.32.38-7.77q0-151.5,0-303c0-1.5,0-3,0-4.5-.9-21.72-13.87-37.11-35.17-39.23-15.52-1.55-31.28-1.45-46.9-.88-14.79.55-27.21,7.13-36.66,18.82-4.24,5.24-8.55,10.42-13.2,16.08-.38-1.24-.61-1.81-.73-2.41-3.41-16.63-14.95-29.06-31.64-31-15-1.77-30.22-1.78-45.34-1.59a53.68,53.68,0,0,0-28.09,7.84c-9.71,6.06-16.56,14.81-23,24-1.07,1.52-2.32,2.9-3.93,4.88-6.45-11.53-12.44-22.22-18.2-32.53H76.06V498.73Z" transform="translate(-1 -1)"/>
    <path d="M302.65,498.73H76.06V147.38H284c5.76,10.31,11.75,21,18.2,32.53,1.61-2,2.86-3.36,3.93-4.88,6.46-9.16,13.31-17.91,23-24a53.68,53.68,0,0,1,28.09-7.84c15.12-.19,30.37-.18,45.34,1.59,16.69,2,28.23,14.41,31.64,31,.12.6.35,1.17.73,2.41,4.65-5.66,9-10.84,13.2-16.08,9.45-11.69,21.87-18.27,36.66-18.82,15.62-.57,31.38-.67,46.9.88,21.3,2.12,34.27,17.51,35.17,39.23.06,1.5,0,3,0,4.5q0,151.5,0,303c0,2.45-.23,4.89-.38,7.77H475.44c-.18-2.65-.5-5.2-.5-7.76q0-118.5-.07-237a45.11,45.11,0,0,0-.93-10.4c-2.39-10-10.67-16-20.52-15.32S436,236.84,435.17,247c-.21,2.65-.16,5.33-.16,8q0,117.75,0,235.49c0,2.61-.21,5.21-.35,8.25H343.51c-.18-2.64-.5-5.2-.51-7.76q0-118.49-.06-237a47.92,47.92,0,0,0-.55-9.45c-2-9.94-10.47-16.7-19.89-16.28-10.49.47-18.13,7.86-19.23,18.76a90,90,0,0,0-.2,9q0,117.5,0,235C303,493.44,302.8,495.87,302.65,498.73Zm-147.5-87.24c1.42,1.86,2.69,2.88,3.08,4.16,1.61,5.27,5.77,6.83,10.44,7,9.83.26,19.68.44,29.49,0s14.8-5.83,14.91-15.76q.21-19.24,0-38.5c-.11-10.21-4.83-15-15-15.19-8.66-.2-17.34.18-26-.18-6.83-.29-12.21,1.18-14.66,8.31-.23.68-1.12,1.13-2.54,2.49-1.4-1.71-3-3-3.76-4.71a9.12,9.12,0,0,0-9-5.93c-10.33-.05-20.66-.18-31,.08-9,.23-13.89,5.14-14,14.12-.21,12.66-.19,25.33-.08,38,.1,12.05,4.8,17,16.94,17.38,8.82.3,17.66.15,26.49,0,5-.07,9-1.89,11-7.06C152,414.23,153.57,413.2,155.15,411.49Zm23.4-171.33c5.75,2.75,23.62,2.62,28-.87,2.75-2.2,5.9-5.9,6-9,.68-15.76.79-31.58.36-47.36-.2-7.5-5.33-11.69-12.93-11.72q-44.46-.16-88.92,0c-8.48,0-13.91,5.32-14,13.66q-.28,21.48.05,43c.1,7.44,4.33,12.68,11.64,13.13,12.77.78,25.6.77,38.4.87,10.75.08,15.51-4.73,15.64-15.49q.12-10.74,0-21.48c0-3.93,1.85-5.88,5.75-5.88,6.16,0,12.33-.17,18.47.13,5.37.26,8,3.15,8.15,8.2.21,5.55-1.61,7.94-7.12,9-3,.6-6.11.92-9.54,1.41ZM197.2,341.32c.58-3.38,1.34-5.88,1.37-8.4.13-10,0-20,.05-30,0-1.93.28-3.86.47-6.39l13.52-1.64c1.33-9.15,1.76-17.59.1-26.12l-13.39-1.71a53.07,53.07,0,0,0-1.13-7c-.44-1.48-1.38-3.8-2.39-4-5.77-1-11.69-2-17,.87-.73,3.8-1.34,7-2.15,11.24H97.43v46.24ZM97.44,472.85l22.46,10.94c.4-3,.71-4.46.77-5.89.36-8.45.66-8.76,9.41-8.77q37.44,0,74.9,0c2.41,0,4.82-.32,7.65-.53v-26H97.44Z" transform="translate(-1 -1)"/>
    <path class="cls-1" d="M155.15,411.49c-1.58,1.71-3.19,2.74-3.74,4.18-2,5.17-6,7-11,7.06-8.83.12-17.67.27-26.49,0-12.14-.42-16.84-5.33-16.94-17.38-.11-12.67-.13-25.34.08-38,.15-9,5-13.89,14-14.12,10.33-.26,20.66-.13,31-.08a9.12,9.12,0,0,1,9,5.93c.75,1.69,2.36,3,3.76,4.71,1.42-1.36,2.31-1.81,2.54-2.49,2.45-7.13,7.83-8.6,14.66-8.31,8.65.36,17.33,0,26,.18,10.21.23,14.93,5,15,15.19q.21,19.25,0,38.5c-.11,9.93-5,15.3-14.91,15.76s-19.66.27-29.49,0c-4.67-.12-8.83-1.68-10.44-7C157.84,414.37,156.57,413.35,155.15,411.49Zm24.22-31.95V380a89,89,0,0,0-9,.06c-4.56.47-7.31,3.42-7.08,7.45.25,4.28,2.2,7.48,6.88,7.64,6.1.22,12.22.18,18.33,0,4.4-.13,6.47-2.79,6.67-7.1s-1.57-7.13-5.94-7.75C186,379.84,182.67,379.78,179.37,379.54Zm-49.22.37,0-.42c-3.64.3-7.31.38-10.9,1-4.26.68-5.55,3.86-5.33,7.74.21,3.7,1.87,6.64,5.87,6.86a144.08,144.08,0,0,0,18.35.16c5.7-.4,7.39-2.76,7.19-8-.19-4.71-2.33-6.82-7.69-7.23C135.14,379.76,132.64,379.91,130.15,379.91Z" transform="translate(-1 -1)"/>
    <path class="cls-1" d="M178.55,240.16V217.7c3.43-.49,6.51-.81,9.54-1.41,5.51-1.08,7.33-3.47,7.12-9-.19-5.05-2.78-7.94-8.15-8.2-6.14-.3-12.31-.13-18.47-.13-3.9,0-5.77,1.95-5.75,5.88q.07,10.74,0,21.48c-.13,10.76-4.89,15.57-15.64,15.49-12.8-.1-25.63-.09-38.4-.87-7.31-.45-11.54-5.69-11.64-13.13q-.3-21.48-.05-43c.12-8.34,5.55-13.63,14-13.66q44.46-.18,88.92,0c7.6,0,12.73,4.22,12.93,11.72.43,15.78.32,31.6-.36,47.36-.14,3.15-3.29,6.85-6,9C202.17,242.78,184.3,242.91,178.55,240.16ZM130,198.73c-3,0-6-.13-9,0-4.63.26-7.06,2.75-7.18,7.21-.11,4.19,1.6,7.38,6.06,7.63a139.67,139.67,0,0,0,18.86.06c5.23-.41,6.87-3.28,6.51-8.68-.31-4.68-3.12-6.24-7.33-6.24Z" transform="translate(-1 -1)"/>
    <path class="cls-1" d="M197.2,341.32,97.43,314.43V268.19h79.25c.81-4.26,1.42-7.44,2.15-11.24,5.28-2.91,11.2-1.83,17-.87,1,.17,1.95,2.49,2.39,4a53.07,53.07,0,0,1,1.13,7l13.39,1.71c1.66,8.53,1.23,17-.1,26.12l-13.52,1.64c-.19,2.53-.46,4.46-.47,6.39,0,10,.08,20-.05,30C198.54,335.44,197.78,337.94,197.2,341.32Zm-78.43-47.21-.17,2.69,58.72,17.64V294.21C157.17,293.9,138,294,118.77,294.11Z" transform="translate(-1 -1)"/>
    <path class="cls-1" d="M97.44,472.85V442.6H212.63v26c-2.83.21-5.24.53-7.65.53q-37.46.06-74.9,0c-8.75,0-9.05.32-9.41,8.77-.06,1.43-.37,2.85-.77,5.89Z" transform="translate(-1 -1)"/>
    <path d="M179.37,379.54c3.3.24,6.63.3,9.9.77,4.37.62,6.14,3.47,5.94,7.75s-2.27,7-6.67,7.1c-6.11.18-12.23.22-18.33,0-4.68-.16-6.63-3.36-6.88-7.64-.23-4,2.52-7,7.08-7.45a89,89,0,0,1,9-.06Z" transform="translate(-1 -1)"/>
    <path d="M130.15,379.91c2.49,0,5-.15,7.47,0,5.36.41,7.5,2.52,7.69,7.23.2,5.28-1.49,7.64-7.19,8a144.08,144.08,0,0,1-18.35-.16c-4-.22-5.66-3.16-5.87-6.86-.22-3.88,1.07-7.06,5.33-7.74,3.59-.59,7.26-.67,10.9-1Z" transform="translate(-1 -1)"/>
    <path d="M130,198.73h8c4.21,0,7,1.56,7.33,6.24.36,5.4-1.28,8.27-6.51,8.68a139.67,139.67,0,0,1-18.86-.06c-4.46-.25-6.17-3.44-6.06-7.63.12-4.46,2.55-6.95,7.18-7.21C124,198.6,127,198.73,130,198.73Z" transform="translate(-1 -1)"/>
    <path d="M118.77,294.11c19.2-.08,38.4-.21,58.55.1v20.23L118.6,296.8Z" transform="translate(-1 -1)"/>
  </g>
</svg>
