<svg id="Livello_1" data-name="Livello 1" xmlns="http://www.w3.org/2000/svg" width="320" height="213" viewBox="0 0 320 213">
  <defs>
    <style>
      .cls-1 {
        fill: #fff;
      }
    </style>
  </defs>
  <title>nike</title>
  <g>
    <path class="cls-1" d="M267,207H-53V-6H267ZM51.68,78.67l-.92-.59c-4.41,6-9.13,11.85-13.13,18.14a42.2,42.2,0,0,0-4.94,11.9c-3.22,12.25,3.72,21.19,16.37,21.54a35.48,35.48,0,0,0,4.48-.3c7.38-.78,14.21-3.43,21-6.29L175.6,80.19c1.22-.51,2.4-1.11,3.6-1.67a19.53,19.53,0,0,0-6.46.82q-49.2,13.08-98.41,26.18A38.56,38.56,0,0,1,60,107c-6.36-.69-11.13-5-11.82-11A24.74,24.74,0,0,1,48.66,88,92.68,92.68,0,0,1,51.68,78.67Z" transform="translate(53 6)"/>
    <path d="M51.68,78.67a92.68,92.68,0,0,0-3,9.36,24.74,24.74,0,0,0-.47,7.91c.69,6,5.46,10.32,11.82,11a38.56,38.56,0,0,0,14.32-1.43q49.2-13.11,98.41-26.18a19.53,19.53,0,0,1,6.46-.82c-1.2.56-2.38,1.16-3.6,1.67L74.5,123.07c-6.75,2.86-13.58,5.51-21,6.29a35.48,35.48,0,0,1-4.48.3c-12.65-.35-19.59-9.29-16.37-21.54a42.2,42.2,0,0,1,4.94-11.9c4-6.29,8.72-12.12,13.13-18.14Z" transform="translate(53 6)"/>
  </g>
</svg>
