<svg id="Livello_1" data-name="Livello 1" xmlns="http://www.w3.org/2000/svg" width="600" height="376" viewBox="0 0 600 376">
  <defs>
    <style>
      .cls-1 {
        fill: #fff;
      }
    </style>
  </defs>
  <title>onechampionship</title>
  <g>
    <path class="cls-1" d="M399,275H-201V-101H399Zm-527.52-59.76,6.72-19.15H-129c-1.08,3.2-2.12,6.42-3.25,9.61-.76,2.18-1.64,4.31-2.45,6.47-1.78,4.75-3.61,9.49-5.32,14.27-2.47,6.95-4.86,13.94-7.61,20.8-.81,2-2.3,4.26-1.1,6.61h5.63a54.34,54.34,0,0,0,3-6.83c2-7,5.28-13.49,7.13-20.52.3-1.15,1.35-2.1,2.06-3.13,2.46-3.62,6.42-4.51,10.26-5.3,3.39-.71,6.82.39,9.9,2.62-2.81,11.16-8.1,21.7-11.28,33.14h6.83c.76-2,1.46-3.9,2.15-5.78,2.22-6.06,4.34-12.17,6.69-18.19,1.33-3.41,2.74-6.74,2.33-10.52a24.76,24.76,0,0,1,0-2.85C-109.74,211-118.37,210.53-128.52,215.24ZM279.05,215l-.18-1.9h-6.78c-7,19.2-14,38.38-21.07,57.7h7.18l7.41-20.11,4.94,3.31c2.93,0,5.92-.05,8.91,0a15.74,15.74,0,0,0,6.1-1c2.72-1,5.63-3.52,7.62-5.6,3.71-3.88,5.1-8.9,7.26-13.51,1.89-4,3.86-11.8,3.57-14.87-1.15-2.77-2.41-4.81-4.94-5.48a30.6,30.6,0,0,0-6.83-1.49,34.43,34.43,0,0,0-8.06,1c-1.31.27-2.44,1.32-3.7,1.9A3.61,3.61,0,0,1,279.05,215Zm-320.23,1.09v-3h-6.41c-4.92,13.56-9.8,27-14.8,40.74h7.19c1.69-4.74,3.27-9.75,5.25-14.59s3-9.76,5.92-14.05c2.36-3.44,4.83-6.43,9.53-6.24.56,0,1.12-.5,1.71-.65,3.49-.92,6.36.21,9,2.44-.75,2.4-1.33,4.5-2.06,6.54-1.69,4.79-3.46,9.56-5.19,14.34-1.1,3.05-2.2,6.09-3.26,9.15-.34,1-.58,1.95-.92,3.13h7c.57-1.66,1.12-3.27,1.68-4.86,2.53-7.12,5.38-14.11,7.66-21.33.77-2.44,2.4-5.21,4.46-6.52a17.94,17.94,0,0,1,11.62-3.1c2.13.25,4.74.42,5.91,2.74-.6,2.28-1,4.28-1.65,6.18-1.93,5.36-4,10.67-6,16-1,2.6-1.92,5.21-2.81,7.83a30.1,30.1,0,0,0-.71,3h6.86c.42-1.29.76-2.47,1.2-3.62,2.16-5.77,4.54-11.47,6.47-17.31,1.77-5.34,4.64-10.53,3.32-16.63C7,213.6,3.63,211.77.27,212.07c-6.06.54-12.32.82-16.83,5.91a12.24,12.24,0,0,0-1.19-2.19c-2.2-2.57-5.34-3.47-8.42-3.7C-31.47,211.7-36.33,213.64-41.18,216.09ZM84.48,27.93c1.6,3.94,2.11,8.19,4.52,11.72C92.85,53,97.59,66.08,102,79.26c3.58,10.68,7.24,21.33,10.77,32,3.14,9.53,5.88,19.21,9.31,28.64,3,8.11,5,16.5,8.57,24.44,1.15,2.58,2.47,5.42,2.42,8.52,0,.69.89,1.4,1.72,2.6.88-2.28,1.61-4,2.2-5.73,3.26-9.65,6.65-19.25,9.66-29,2.23-7.24,4.94-14.29,7.36-21.45,3.2-9.51,6.45-19,9.65-28.5,2.47-7.31,4.86-14.65,7.35-22,1.85-5.39,4-10.7,5.7-16.13,4.19-12.91,8.76-25.69,13.15-38.53C195.86-3.3,201.3-21,207.8-38.34a48.64,48.64,0,0,0,1.36-5.53H168.93L134.62,55.66c-1.28-4.12-2.3-7.53-3.38-10.91-2.06-6.48-4.18-12.94-6.23-19.41-3.37-10.61-7.11-21.08-10.22-31.79-2.23-7.65-5.22-15.16-7.69-22.77-2.52-7.8-5.25-15.52-7.46-23.44C96.75-63,92.51-73,89.31-83.34c-1.24-4-3.4-7.76-3.38-12.13,0-.51-.93-1-1.5-1.61-3.07,6.65-4.76,13.41-7.25,19.89-3.69,9.63-6.55,19.59-10.07,29.32-4.1,11.3-7.66,22.8-11.76,34.12C52.1-4.76,49.46,4.44,46,13.39,42.09,23.76,39.2,34.5,35.14,44.86c-4.28,10.91-7.25,22.32-11.2,33.36-4.26,11.91-7.91,24-12.46,35.83-1,2.52-1.71,5.13-2.6,7.84H52.54Q68.55,74.81,84.48,27.93Zm96.2,93.9h156.1c2.11-6,4.17-11.8,6.22-17.61,1.95-5.53,4.2-11,5.73-16.6.84-3.06,2.95-6,2-9.78H241.65c.54-1.76.9-3.1,1.36-4.42,2-5.82,4-11.64,6.06-17.5h79.87c5.17-12.29,8.57-25.1,13.52-37.93H262.18c3.15-9.48,6.21-18.67,9.32-28h111c4-11.26,7.15-22.56,11.62-33.7H237.2c-.7,1.74-1.53,3.57-2.18,5.46-1.51,4.37-2.91,8.79-4.41,13.17C227.76-16.81,224.86-8.51,222-.2Q217.11,14,212.26,28.25c-2.1,6.13-4.22,12.25-6.25,18.4-3,9.24-5.91,18.56-9.2,27.69-2.72,7.54-5.07,15.22-7.9,22.71-2.29,6-3.6,12.44-6.61,18.26C181.34,117.17,181.24,119.47,180.68,121.83ZM-87.74,122h38a42.23,42.23,0,0,0,16.34-4,51.73,51.73,0,0,0,14.86-10,73.21,73.21,0,0,0,8.9-9.78c3.16-4.48,6.07-9,7.69-14.33A97.7,97.7,0,0,1,2.41,71.25c1.36-3,2.13-6.1,3.51-9S8,56.07,9,53c1.06-3.23,1.67-6.71,3.32-9.61a40.1,40.1,0,0,0,3.44-9.06c.92-3.3,2.43-6.37,3.41-9.63a91.44,91.44,0,0,1,4.15-12.25,60.18,60.18,0,0,0,3.44-9c.93-3.31,2.56-6.31,3.36-9.66,1-4,3-7.75,4.26-11.7.85-2.69,1.76-5.63,1.45-8.32a34.49,34.49,0,0,0-2.46-8.92C31.13-40.66,20.87-46,15.39-46c-24.66.05-49.31,0-74,.05a40.91,40.91,0,0,0-8.62.78A70.83,70.83,0,0,0-82.61-40c-5,2.36-9.32,5.74-13.89,8.78-5.22,3.48-8.21,8.42-11,13.49-2.13,3.85-3.07,8.37-4.48,12.62s-2.3,8.74-4.23,12.73c-3.31,6.86-4.91,14.29-7.72,21.3-2.06,5.15-3.2,10.68-5.36,15.77-1.46,3.44-2.58,6.94-3.73,10.46S-135.72,62.31-137,66c-1.47,4.23-2.44,8.68-4.34,12.69a73.93,73.93,0,0,0-3.63,10c-1.09,3.55-3.14,6.85-3.05,10.74-1.95,1.89-.39,3.71-.14,5.69a15.24,15.24,0,0,0,1.67,5.82c4.4,7.41,11.42,10.83,19.74,11C-113.74,122.22-100.74,122-87.74,122Zm199.82,39.15H-169.86c-.89,4-3.52,7.44-3.09,11.77h281C109.34,169.15,111.51,165.57,112.08,161.15Zm212.78,0H161l-5.18,11.65H320.7C322.27,170.66,324.64,164.2,324.86,161.11Zm-468,35.2c-2.17-.48-4-1.31-5.84-1.23-6.19.26-12.33-.18-18.59.69-8.76,1.23-16.71,8.35-19.47,16.07-1.39,3.92-2.57,7.95-4.16,11.75a118.35,118.35,0,0,0-5.89,17.56,8.87,8.87,0,0,0-.06,4.74c.43,1.83.7,3.4,2.17,4.65.27.23.17.88.19,1.05l4.71,2.41c6.76,0,13.91,0,21.06,0,2.59,0,4.91-1,7.28-1.75,5.08-1.63,7.83-5.65,10.11-10.1,1.47-2.87,3.32-5.67,2.49-9h-6.42c-1.32,3.06-2.58,5.87-3.75,8.71-1.54,3.72-4.81,4.91-8.29,5-6.64.27-13.29.08-20.29.08l-1.83-4.37a20.92,20.92,0,0,0,.75-2.29,21.53,21.53,0,0,1,.7-3.71c2.36-6.19,3.89-12.7,6.44-18.81,2.07-5,3.32-10.71,8.51-13.64a48.62,48.62,0,0,1,24.93-1.35l1.3,3c-.82,3.2-2,5.92-1.85,9.06h5.15l2.33-1.9c.68-1.93,1.19-3.07,1.49-4.26.34-1.36-.21-2.72.79-4.2,1.15-1.7-.24-3.7-1.13-5.29A14.51,14.51,0,0,0-143.19,196.31ZM16.18,250.53A8.45,8.45,0,0,0,24.12,254c2.82-.19,5.67.14,8.47-.1a14.26,14.26,0,0,0,5.35-1.47c5.27-2.82,8.5-7.59,10.82-12.85,1.8-4.07,2.67-8.53,4.29-12.69a14.3,14.3,0,0,0,.05-11c-4.13-3.55-8.24-4.46-12.33-3.86s-8.12,1.19-11.62,3.94l-.31-2.84H22c0,.88.23,1.65,0,2.17a90.32,90.32,0,0,0-4.8,12.47c-1.51,4.36-3.26,8.64-4.67,13-2.05,6.44-4.62,12.71-6.95,19.06q-1.44,3.9-2.81,7.81c-.34,1-.57,2-.9,3.13h6.9C11.18,264.21,13.6,257.57,16.18,250.53ZM-95.1,225c2.35,0,4.47,0,6.59,0,.12,0,.23-.22.88-.89l1.16-3.15C-82,218.38-80.95,218.26-69,219a2.3,2.3,0,0,1,.69.25l1.26,2.47c-1.14,3.44-2.25,6.8-3.48,10.55L-73.1,229h-14c-4.53,0-8.47,1.44-11.39,5-2.19,2.67-3.37,5.85-4.64,9.06s-1.06,6.07,0,8c3.9,3.31,7.61,3.05,11.31,3,3.14-.06,6.29,0,8.93,0,1.54-.83,2.61-1.44,3.73-2,.21-.1.59.14.88.22l.56,1.6h6.29c.85-2.38,1.66-4.54,2.39-6.73,2-6,4.23-11.91,6.45-17.8,1.5-3.95,2.94-7.64,2.15-11.55.26-3.3-2.33-4-4.26-4.64A33.25,33.25,0,0,0-73.2,212a37.5,37.5,0,0,0-10.1.82c-2.27.54-4.22,1.15-5.86,2.79s-3.36,3.19-4.39,4.17Zm313-28.87c-7.21,18.9-13.88,38.22-21.14,57.66h7c2.4-5.74,4.43-11.55,6.37-17.4A84.8,84.8,0,0,1,214,227c1-2.09,2.3-4,3.24-5.66,5.78-3,11.4-4.73,17.48-2l.91,1.93c-.46,1.77-.74,3.3-1.25,4.75-2.9,8.28-5.87,16.54-8.77,24.82a24.93,24.93,0,0,0-.69,3h7c0-.77-.22-1.51,0-2,3.16-6.37,4.93-13.27,7.46-19.88,1.9-5,4.66-9.81,3.28-15.69-2.62-2.52-2.58-2.7-8.06-4-2.33-.53-5.16-.84-7.24,0-1.8.75-3.52.18-5.13.85l-4.74,3.1,7.46-20.14ZM190.53,230c-3.19,0-6.37.18-9.52-.05-3-.22-5.94-.85-9.22-1.35l1.35-6.26c1-1,2.22-2.11,3.51-3.34h16.57c-.32,1.84-.58,3.3-.84,4.78h7.55c0-.54,0-.87.08-1.19a7,7,0,0,1,.29-1.37c1.31-3.61-.28-7.28-3.84-8.17a49.05,49.05,0,0,0-7.57-1,42.8,42.8,0,0,0-13.25,1.24c-4.42,1.53-7.79,4.26-9.56,8.33s-3.74,8.15-1.16,11.54c4,2.78,7.61,3,11.33,2.89a54.18,54.18,0,0,1,7,0,16.2,16.2,0,0,1,3.73,1.25v3.86c-.94,1.84-1.72,3.34-2.47,4.8-6.47,3.23-13,2.38-19.72.69.44-2.39.82-4.48,1.19-6.5h-6.53L157,244.9c.11,2.07-.49,4.72,1.14,6.69L163,254c4.66,0,9.32-.1,14,0a18.94,18.94,0,0,0,10.8-2.94A5.35,5.35,0,0,0,190,249c1.53-2.88,3.28-5.64,5-8.46v-7.28Zm-81.46-16.93c-2.95.34-6.11-1.63-9.58-1.1s-6.68.81-9.87,1.19c-.66.31-1.23.56-1.78.84a23.14,23.14,0,0,0-10.59,11.31,59.78,59.78,0,0,0-2.5,7.45c-3.31,11.12-4.26,8.07-3.6,17.13L76.28,254c4.73,0,9.37-.14,14,0,7.73.29,12.58-4,16.18-10.09a47.73,47.73,0,0,0,4.44-9.63c1-3.22,2.19-6.47,2.91-9.76a22.82,22.82,0,0,0-.15-7.32C113.4,214.92,111.4,214,109.07,213.07ZM145.65,254A9.3,9.3,0,0,0,147,252c.82-2.17,1.34-4.53,2.24-6.57,3.26-7.35,5.59-15,8.33-22.54,1.49-4.08.14-7.54-3.29-9.18-2.6-1.24-9.8-2.78-11.66-1.59s-3.51.39-5.08,1.08l-4.08,1.9-.73-2h-6.25c-2.53,6.82-5,13.46-7.44,20.12s-4.82,13.56-7.32,20.63h7.14a78.9,78.9,0,0,1,2.64-7.76,61.06,61.06,0,0,0,2.62-7.42c.8-2.63,2.17-5.09,2.94-7.77a32.12,32.12,0,0,1,4-8.32,7.27,7.27,0,0,1,3.72-2.93c2.22-.82,9.44-2.56,10.67-1.5,1.51,1.3,3.27.13,4.68,1.37-.13,1.71.12,3.64-.49,5.24-2.82,7.5-5.09,15.19-8.27,22.57-.8,1.86-2.58,4.22-.85,6.62ZM248,253.83c2.45-6.43,5.22-13.11,7.54-19.94s4.93-13.76,7.62-20.8h-7.33c-4.92,13.45-9.86,27-14.89,40.74Zm-189.38.07a77.64,77.64,0,0,0,4.21-10.79c3-9.09,6.79-17.88,9.57-27a28.42,28.42,0,0,0,.58-2.92H66.31c-1.61,4.71-2.79,9.41-4.83,13.7s-3.18,9-5,13.42A83.3,83.3,0,0,0,51.8,253.9Zm259-52.44-1.83-5.33h-3.53v11.8c3.22.29,2.26-2.6,3.18-3.87.62,1.36,1.22,2.66,1.89,4.14.73-.73,1.25-1,1.4-1.45a22.24,22.24,0,0,0,.42-2.33c0-.11.43-.13.73-.21.13,1.32.25,2.57.35,3.62h2.61c0-4,0-7.74,0-11.52,0-.1-.23-.21-.33-.29h-3Zm-58,1.29h7.23l2.32-6.56h-7.35C261.08,198.31,260.39,200.35,259.59,202.75ZM77.1,203c1-2.32,1.86-4.52,2.77-6.73H72.33c-.75,2.43-1.4,4.54-2.07,6.73Zm233.81-6.83h-8l.18,2.7,1.82.37v7.45l3,2v-9.79h2.92Z" transform="translate(201 101)"/>
    <path d="M84.48,27.93q-16,47-31.94,94H8.88c.89-2.71,1.63-5.32,2.6-7.84,4.55-11.81,8.2-23.92,12.46-35.83,3.95-11,6.92-22.45,11.2-33.36,4.06-10.36,7-21.1,10.9-31.47,3.42-8.95,6.06-18.15,9.31-27.14C59.45-25.07,63-36.57,67.11-47.87c3.52-9.73,6.38-19.69,10.07-29.32,2.49-6.48,4.18-13.24,7.25-19.89.57.58,1.5,1.1,1.5,1.61,0,4.37,2.14,8.15,3.38,12.13C92.51-73,96.75-63,99.64-52.66c2.21,7.92,4.94,15.64,7.46,23.44,2.47,7.61,5.46,15.12,7.69,22.77C117.9,4.26,121.64,14.73,125,25.34c2,6.47,4.17,12.93,6.23,19.41,1.08,3.38,2.1,6.79,3.38,10.91l34.31-99.53h40.23a48.64,48.64,0,0,1-1.36,5.53c-6.5,17.34-11.94,35-17.94,52.56-4.39,12.84-9,25.62-13.15,38.53-1.75,5.43-3.85,10.74-5.7,16.13-2.49,7.3-4.88,14.64-7.35,22-3.2,9.51-6.45,19-9.65,28.5-2.42,7.16-5.13,14.21-7.36,21.45-3,9.73-6.4,19.33-9.66,29-.59,1.75-1.32,3.45-2.2,5.73-.83-1.2-1.73-1.91-1.72-2.6.05-3.1-1.27-5.94-2.42-8.52-3.52-7.94-5.61-16.33-8.57-24.44-3.43-9.43-6.17-19.11-9.31-28.64-3.53-10.7-7.19-21.35-10.77-32C97.59,66.08,92.85,53,89,39.65,86.59,36.12,86.08,31.87,84.48,27.93Z" transform="translate(201 101)"/>
    <path d="M180.68,121.83c.56-2.36.66-4.66,1.62-6.52,3-5.82,4.32-12.21,6.61-18.26,2.83-7.49,5.18-15.17,7.9-22.71,3.29-9.13,6.16-18.45,9.2-27.69,2-6.15,4.15-12.27,6.25-18.4Q217.12,14,222-.2c2.86-8.31,5.76-16.61,8.61-24.92,1.5-4.38,2.9-8.8,4.41-13.17.65-1.89,1.48-3.72,2.18-5.46H394.11c-4.47,11.14-7.65,22.44-11.62,33.7h-111c-3.11,9.37-6.17,18.56-9.32,28h80.28c-4.95,12.83-8.35,25.64-13.52,37.93H249.07C247,61.78,245,67.6,243,73.42c-.46,1.32-.82,2.66-1.36,4.42H350.78c.9,3.8-1.21,6.72-2,9.78-1.53,5.63-3.78,11.07-5.73,16.6-2.05,5.81-4.11,11.62-6.22,17.61Z" transform="translate(201 101)"/>
    <path d="M-87.74,122c-13,0-26,.22-39-.08-8.32-.2-15.34-3.62-19.74-11a15.24,15.24,0,0,1-1.67-5.82c-.25-2-1.81-3.8.14-5.69-.09-3.89,2-7.19,3.05-10.74a73.93,73.93,0,0,1,3.63-10c1.9-4,2.87-8.46,4.34-12.69,1.26-3.64,2.75-7.19,3.95-10.85s2.27-7,3.73-10.46c2.16-5.09,3.3-10.62,5.36-15.77,2.81-7,4.41-14.44,7.72-21.3,1.93-4,2.82-8.49,4.23-12.73s2.35-8.77,4.48-12.62c2.8-5.07,5.79-10,11-13.49,4.57-3,8.86-6.42,13.89-8.78A70.83,70.83,0,0,1-67.2-45.19,40.91,40.91,0,0,1-58.58-46c24.66-.05,49.31,0,74-.05,5.48,0,15.74,5.36,18,10.82a34.49,34.49,0,0,1,2.46,8.92c.31,2.69-.6,5.63-1.45,8.32-1.24,4-3.3,7.69-4.26,11.7-.8,3.35-2.43,6.35-3.36,9.66a60.18,60.18,0,0,1-3.44,9,91.44,91.44,0,0,0-4.15,12.25c-1,3.26-2.49,6.33-3.41,9.63a40.1,40.1,0,0,1-3.44,9.06C10.67,46.28,10.06,49.76,9,53c-1,3.08-1.72,6.3-3.08,9.21s-2.15,6.09-3.51,9A97.7,97.7,0,0,0-2,83.92c-1.62,5.31-4.53,9.85-7.69,14.33a73.21,73.21,0,0,1-8.9,9.78,51.73,51.73,0,0,1-14.86,10,42.23,42.23,0,0,1-16.34,4Zm-12.48-30.17h50c2.11-6,4.31-11.75,6.19-17.62,2.87-9,6.87-17.54,9.06-26.74,2.26-3.27,2.78-7.18,4.06-10.81s2.74-7.2,3.92-10.87c1-3.23,2.15-6.44,3.34-9.61s2.52-6,3.63-9S-18,1-17-2c1.23-3.58,2.54-7.13,3.82-10.7a5,5,0,0,0-1-.24H-63.84c-2,7.2-5.11,13.91-7.25,21s-5,13.92-7.39,20.92-5.35,13.82-7.42,20.91-5,13.94-7.22,21-5.29,13.85-6.78,21.22l-.19-.19-.82.69.32.32A1.19,1.19,0,0,0-100.22,91.83Z" transform="translate(201 101)"/>
    <path d="M112.08,161.15c-.57,4.42-2.74,8-4,11.77h-281c-.43-4.33,2.2-7.76,3.09-11.77Z" transform="translate(201 101)"/>
    <path d="M324.86,161.11c-.22,3.09-2.59,9.55-4.16,11.65H155.77L161,161.11Z" transform="translate(201 101)"/>
    <path d="M-41,216.09c4.71-2.45,9.57-4.39,14.87-4,3.08.23,6.22,1.13,8.42,3.7A12.24,12.24,0,0,1-16.56,218c4.51-5.09,10.77-5.37,16.83-5.91,3.36-.3,6.7,1.53,9.53,4.24,1.32,6.1-1.55,11.29-3.32,16.63C4.55,238.78,2.17,244.48,0,250.25c-.44,1.15-.78,2.33-1.2,3.62H-8a30.1,30.1,0,0,1,.71-3c.89-2.62,1.85-5.23,2.81-7.83,2-5.34,4.05-10.65,6-16,.68-1.9,1.05-3.9,1.65-6.18-1.17-2.32-3.78-2.49-5.91-2.74a17.94,17.94,0,0,0-11.62,3.1c-2.06,1.31-3.69,4.08-4.46,6.52-2.28,7.22-5.13,14.21-7.66,21.33-.56,1.59-1.11,3.2-1.68,4.86h-6.95c.34-1.18.58-2.17.92-3.13,1.06-3.06,2.16-6.1,3.26-9.15,1.73-4.78,3.5-9.55,5.19-14.34.73-2,1.31-4.14,2.06-6.54-2.68-2.23-5.55-3.36-9-2.44-.59.15-1.15.68-1.71.65-4.7-.19-7.17,2.8-9.53,6.24-3,4.29-4,9.35-5.92,14.05s-3.56,9.85-5.25,14.59h-7.19c5-13.75,9.88-27.18,14.8-40.74h6.41a21.67,21.67,0,0,0,.14,3c.08-.06,0-.13-.05-.19l-.82.69.32.32A2.81,2.81,0,0,0-41,216.09Z" transform="translate(201 101)"/>
    <path d="M-143.19,196.31a14.51,14.51,0,0,1,2.83,2.94c.89,1.59,2.28,3.59,1.13,5.29-1,1.48-.45,2.84-.79,4.2-.3,1.19-.81,2.33-1.49,4.26l-2.33,1.9H-149c-.16-3.14,1-5.86,1.85-9.06l-1.3-3a48.62,48.62,0,0,0-24.93,1.35c-5.19,2.93-6.44,8.66-8.51,13.64-2.55,6.11-4.08,12.62-6.44,18.81a21.53,21.53,0,0,0-.7,3.71,20.92,20.92,0,0,1-.75,2.29l1.83,4.37c7,0,13.65.19,20.29-.08,3.48-.13,6.75-1.32,8.29-5,1.17-2.84,2.43-5.65,3.75-8.71h6.42c.83,3.33-1,6.13-2.49,9-2.28,4.45-5,8.47-10.11,10.1-2.37.77-4.69,1.76-7.28,1.75-7.15-.05-14.3,0-21.06,0l-4.71-2.41c0-.17.08-.82-.19-1.05-1.47-1.25-1.74-2.82-2.17-4.65a8.87,8.87,0,0,1,.06-4.74,118.35,118.35,0,0,1,5.89-17.56c1.59-3.8,2.77-7.83,4.16-11.75,2.76-7.72,10.71-14.84,19.47-16.07,6.26-.87,12.4-.43,18.59-.69C-147.21,195-145.36,195.83-143.19,196.31Z" transform="translate(201 101)"/>
    <path d="M279.08,215.05c.42-.05,1,.11,1.4-.08,1.26-.58,2.39-1.63,3.7-1.9a34.43,34.43,0,0,1,8.06-1,30.6,30.6,0,0,1,6.83,1.49c2.53.67,3.79,2.71,4.94,5.48.29,3.07-1.68,10.84-3.57,14.87-2.16,4.61-3.55,9.63-7.26,13.51-2,2.08-4.9,4.56-7.62,5.6a15.74,15.74,0,0,1-6.1,1c-3-.07-6,0-8.91,0l-4.94-3.31L258.2,270.8H251c7.06-19.32,14.06-38.5,21.07-57.7h6.78c.06.65.12,1.27.21,2a1,1,0,0,1-.17-.15l-.82.69.32.32A9.82,9.82,0,0,0,279.08,215.05Zm-8.64,31.68A8.67,8.67,0,0,0,273.1,248a36.62,36.62,0,0,0,8.44-.07c2.47-.45,4.85-1.22,6.59-3.86,2.78-4.23,4.34-8.84,5.85-13.53,1.06-3.27,2.79-6.43,1.81-10.28A6,6,0,0,0,294,219c-3.35-.83-6.74-2.12-10.11,0-4.52-.1-6.95,2.86-8.67,6.36a61.12,61.12,0,0,0-4.81,11.91C269.68,240.22,267.31,243.49,270.44,246.73Z" transform="translate(201 101)"/>
    <path d="M16.18,250.53c-2.58,7-5,13.68-7.45,20.38H1.83c.33-1.17.56-2.17.9-3.13Q4.1,263.87,5.54,260c2.33-6.35,4.9-12.62,7-19.06,1.41-4.41,3.16-8.69,4.67-13A90.32,90.32,0,0,1,22,215.39c.27-.52,0-1.29,0-2.17h6.84l.31,2.84c3.5-2.75,7.64-3.34,11.62-3.94s8.2.31,12.33,3.86a14.3,14.3,0,0,1-.05,11c-1.62,4.16-2.49,8.62-4.29,12.69-2.32,5.26-5.55,10-10.82,12.85a14.26,14.26,0,0,1-5.35,1.47c-2.8.24-5.65-.09-8.47.1A8.45,8.45,0,0,1,16.18,250.53Zm15.7-31.34c-5.6,2.27-7.06,7.4-8.71,11.91s-4.35,9.27-3.21,13.64l2.38,3.17H33a13.41,13.41,0,0,0,7.68-7.1C41.92,238,43,235.1,44,232.2S46,226,47,222.83c-.65-1.13-1.36-2.34-2.05-3.53-2.31-.22-4.2-1.8-6.56-1.31S33.75,218.85,31.88,219.19Z" transform="translate(201 101)"/>
    <path d="M-95.1,225l1.55-5.18c1-1,2.74-2.54,4.39-4.17s3.59-2.25,5.86-2.79A37.5,37.5,0,0,1-73.2,212a33.25,33.25,0,0,1,8.53,1.09c1.93.6,4.52,1.34,4.26,4.64.79,3.91-.65,7.6-2.15,11.55-2.22,5.89-4.44,11.81-6.45,17.8-.73,2.19-1.54,4.35-2.39,6.73h-6.29c-.15-.44-.35-1-.56-1.6-.29-.08-.67-.32-.88-.22-1.12.53-2.19,1.14-3.73,2-2.64,0-5.79-.05-8.93,0-3.7.07-7.41.33-11.31-3-1.08-1.89-1.33-4.66,0-8s2.45-6.39,4.64-9.06c2.92-3.57,6.86-5,11.39-5h14l2.54,3.28c1.23-3.75,2.34-7.11,3.48-10.55l-1.26-2.47A2.3,2.3,0,0,0-69,219c-11.92-.75-13-.63-17.44,1.93l-1.16,3.15c-.65.67-.76.89-.88.89C-90.63,225-92.75,225-95.1,225Zm.47,23c4,0,7.81-.09,11.62,0,2.43.08,4.18-1,6-2.43,2.55-2.06,2.67-5.23,4-7.79L-74.57,235H-90.51C-96.14,240.64-97.18,243.71-94.63,248Z" transform="translate(201 101)"/>
    <path d="M217.9,196.13h7.16l-7.46,20.14,4.74-3.1c1.61-.67,3.33-.1,5.13-.85,2.08-.85,4.91-.54,7.24,0,5.48,1.26,5.44,1.44,8.06,4,1.38,5.88-1.38,10.72-3.28,15.69-2.53,6.61-4.3,13.51-7.46,19.88-.25.51,0,1.25,0,2h-7a24.93,24.93,0,0,1,.69-3c2.9-8.28,5.87-16.54,8.77-24.82.51-1.45.79-3,1.25-4.75l-.91-1.93c-6.08-2.75-11.7-1-17.48,2C216.34,223,215,224.93,214,227a84.8,84.8,0,0,0-3.88,9.37c-1.94,5.85-4,11.66-6.37,17.4h-7C204,234.35,210.69,215,217.9,196.13Z" transform="translate(201 101)"/>
    <path d="M190.53,230l4.46,3.24v7.28c-1.67,2.82-3.42,5.58-5,8.46a5.35,5.35,0,0,1-2.31,2.11,18.94,18.94,0,0,1-10.8,2.94c-4.66-.13-9.32,0-14,0l-4.81-2.41c-1.63-2-1-4.62-1.14-6.69l2.43-4.74H166c-.37,2-.75,4.11-1.19,6.5,6.75,1.69,13.25,2.54,19.72-.69.75-1.46,1.53-3,2.47-4.8v-3.86a16.2,16.2,0,0,0-3.73-1.25,54.18,54.18,0,0,0-7,0c-3.72.14-7.34-.11-11.33-2.89-2.58-3.39-.56-7.59,1.16-11.54s5.14-6.8,9.56-8.33A42.8,42.8,0,0,1,188.89,212a49.05,49.05,0,0,1,7.57,1c3.56.89,5.15,4.56,3.84,8.17a7,7,0,0,0-.29,1.37c0,.32,0,.65-.08,1.19h-7.55c.26-1.48.52-2.94.84-4.78H176.65c-1.29,1.23-2.49,2.38-3.51,3.34l-1.35,6.26c3.28.5,6.23,1.13,9.22,1.35C184.16,230.18,187.34,230,190.53,230Z" transform="translate(201 101)"/>
    <path d="M-128.21,215.17c9.84-4.64,18.47-4.14,24.21,1.32a24.76,24.76,0,0,0,0,2.85c.41,3.78-1,7.11-2.33,10.52-2.35,6-4.47,12.13-6.69,18.19-.69,1.88-1.39,3.75-2.15,5.78H-122c3.18-11.44,8.47-22,11.28-33.14-3.08-2.23-6.51-3.33-9.9-2.62-3.84.79-7.8,1.68-10.26,5.3-.71,1-1.76,2-2.06,3.13-1.85,7-5.11,13.55-7.13,20.52a54.34,54.34,0,0,1-3,6.83h-5.63c-1.2-2.35.29-4.6,1.1-6.61,2.75-6.86,5.14-13.85,7.61-20.8,1.71-4.78,3.54-9.52,5.32-14.27.81-2.16,1.69-4.29,2.45-6.47,1.13-3.19,2.17-6.41,3.25-9.61h7.17c-2.25,6.41-4.42,12.6-6.41,19.08.25-.14.18-.21.12-.27l-.82.69.32.32C-128.36,215.64-128.13,215.36-128.21,215.17Z" transform="translate(201 101)"/>
    <path d="M109.07,213.07c2.33.91,4.33,1.85,4.6,4.16a22.82,22.82,0,0,1,.15,7.32c-.72,3.29-1.87,6.54-2.91,9.76a47.73,47.73,0,0,1-4.44,9.63C102.87,250,98,254.32,90.29,254c-4.64-.17-9.28,0-14,0l-5.13-4.11c-.66-9.06.29-6,3.6-17.13a59.78,59.78,0,0,1,2.5-7.45A23.14,23.14,0,0,1,87.84,214c.55-.28,1.12-.53,1.78-.84,3.19-.38,6.54-.67,9.87-1.19S106.12,213.41,109.07,213.07ZM80.61,248c3.79,0,7.76,0,11.73,0,3.23,0,5.11-1.58,6.73-4.32,2.71-4.56,4-9.64,5.89-14.49,1.13-2.85,2.15-5.8,2.05-8.69-.65-.65-.94-1.16-1.36-1.33a20.87,20.87,0,0,0-11.43-1c-3.94.68-7.54,2.33-9.32,6.78s-3.42,9.21-4.9,13.9c-.69,2.2-1.35,4.42-2,6.67Z" transform="translate(201 101)"/>
    <path d="M145.65,254H140.5c-1.73-2.4.05-4.76.85-6.62,3.18-7.38,5.45-15.07,8.27-22.57.61-1.6.36-3.53.49-5.24-1.41-1.24-3.17-.07-4.68-1.37-1.23-1.06-8.45.68-10.67,1.5A7.27,7.27,0,0,0,131,222.6a32.12,32.12,0,0,0-4,8.32c-.77,2.68-2.14,5.14-2.94,7.77a61.06,61.06,0,0,1-2.62,7.42,78.9,78.9,0,0,0-2.64,7.76h-7.14c2.5-7.07,4.87-13.86,7.32-20.63s4.91-13.3,7.44-20.12h6.25l.73,2,4.08-1.9c1.57-.69,3.26.08,5.08-1.08s9.06.35,11.66,1.59c3.43,1.64,4.78,5.1,3.29,9.18-2.74,7.52-5.07,15.19-8.33,22.54-.9,2-1.42,4.4-2.24,6.57A9.3,9.3,0,0,1,145.65,254Z" transform="translate(201 101)"/>
    <path d="M248,253.83h-7.06c5-13.76,10-27.29,14.89-40.74h7.33c-2.69,7-5.28,13.88-7.62,20.8S250.45,247.4,248,253.83Z" transform="translate(201 101)"/>
    <path d="M58.62,253.9H51.8a83.3,83.3,0,0,1,4.68-13.62c1.82-4.42,2.94-9.07,5-13.42s3.22-9,4.83-13.7H73a28.42,28.42,0,0,1-.58,2.92c-2.78,9.15-6.59,17.94-9.57,27A77.64,77.64,0,0,1,58.62,253.9Z" transform="translate(201 101)"/>
    <path d="M317.59,201.46l1.86-5.44h3c.1.08.33.19.33.29,0,3.78,0,7.56,0,11.52H320.2c-.1-1.05-.22-2.3-.35-3.62-.3.08-.71.1-.73.21a22.24,22.24,0,0,1-.42,2.33c-.15.42-.67.72-1.4,1.45-.67-1.48-1.27-2.78-1.89-4.14-.92,1.27,0,4.16-3.18,3.87v-11.8h3.53Z" transform="translate(201 101)"/>
    <path d="M259.59,202.75c.8-2.4,1.49-4.44,2.2-6.56h7.35l-2.32,6.56Z" transform="translate(201 101)"/>
    <path d="M77.1,203H70.26c.67-2.19,1.32-4.3,2.07-6.73h7.54C79,198.46,78.05,200.66,77.1,203Z" transform="translate(201 101)"/>
    <path d="M310.91,196.15v2.7H308v9.79l-3-2v-7.45l-1.82-.37-.18-2.7Z" transform="translate(201 101)"/>
    <path class="cls-1" d="M-100.22,91.83c1.81-7.11,4.9-13.89,7.1-21S-88,57-85.9,49.85s5-13.9,7.42-20.91S-73.22,15.09-71.09,8s5.3-13.82,7.25-21h49.65a5,5,0,0,1,1,.24C-14.45-9.18-15.76-5.63-17-2-18,1-18.91,4.14-20,7.19s-2.49,6-3.63,9-2.29,6.38-3.34,9.61c-1.18,3.67-2.64,7.24-3.92,10.87S-32.71,44.2-35,47.47c-2.19,9.2-6.19,17.78-9.06,26.74-1.88,5.87-4.08,11.64-6.19,17.62Z" transform="translate(201 101)"/>
    <path class="cls-1" d="M-99.9,92.09l-.69.82-.32-.32.82-.69Z" transform="translate(201 101)"/>
    <path class="cls-1" d="M-40.9,216.09l-.69.82-.32-.32.82-.69Z" transform="translate(201 101)"/>
    <path class="cls-1" d="M270.44,246.73c-3.13-3.24-.76-6.51,0-9.46a61.12,61.12,0,0,1,4.81-11.91c1.72-3.5,4.15-6.46,8.67-6.36,3.37-2.08,6.76-.79,10.11,0a6,6,0,0,1,1.78,1.17c1,3.85-.75,7-1.81,10.28-1.51,4.69-3.07,9.3-5.85,13.53-1.74,2.64-4.12,3.41-6.59,3.86a36.62,36.62,0,0,1-8.44.07A8.67,8.67,0,0,1,270.44,246.73Z" transform="translate(201 101)"/>
    <path class="cls-1" d="M279.1,215.09l-.69.82-.32-.32.82-.69Z" transform="translate(201 101)"/>
    <path class="cls-1" d="M31.88,219.19c1.87-.34,4.21-.73,6.54-1.2s4.25,1.09,6.56,1.31c.69,1.19,1.4,2.4,2.05,3.53-1,3.21-2,6.32-3.05,9.37s-2.06,5.82-3.34,8.61a13.41,13.41,0,0,1-7.68,7.1H22.34L20,244.74c-1.14-4.37,1.52-9,3.21-13.64S26.28,221.46,31.88,219.19Z" transform="translate(201 101)"/>
    <path class="cls-1" d="M-94.63,248c-2.55-4.29-1.51-7.36,4.12-13h15.94l1.57,2.81c-1.35,2.56-1.47,5.73-4,7.79-1.81,1.45-3.56,2.51-6,2.43C-86.82,247.91-90.64,248-94.63,248Z" transform="translate(201 101)"/>
    <path class="cls-1" d="M-127.9,215.09l-.69.82-.32-.32.82-.69Z" transform="translate(201 101)"/>
    <path class="cls-1" d="M80.61,248,78,245.49c.69-2.25,1.35-4.47,2-6.67,1.48-4.69,3.06-9.32,4.9-13.9s5.38-6.1,9.32-6.78a20.87,20.87,0,0,1,11.43,1c.42.17.71.68,1.36,1.33.1,2.89-.92,5.84-2.05,8.69-1.91,4.85-3.18,9.93-5.89,14.49-1.62,2.74-3.5,4.36-6.73,4.32C88.37,248,84.4,248,80.61,248Z" transform="translate(201 101)"/>
  </g>
</svg>
