<svg id="Livello_1" data-name="Livello 1" xmlns="http://www.w3.org/2000/svg" width="1280" height="163" viewBox="0 0 1280 163">
  <defs>
    <style>
      .cls-1 {
        fill: #fff;
      }
    </style>
  </defs>
  <title>primark</title>
  <g>
    <path class="cls-1" d="M520.1,193.7h-87V32.7c-2.8,0-5.28-.05-7.75,0s-4.88-.26-7.25.18V193.7h-78a12.61,12.61,0,0,0-1.45-2.89c-5.34-6.13-9.25-13.28-14.35-19.61-4.3-5.34-7.28-11.73-11.51-17.15-5.56-7.13-10.35-14.78-15.79-22-2.42-3.21-4.63-6.59-7.21-10.31,5.56,0,10.34-1.58,15.1-3.09,12.44-4,22-11.29,27.22-23.67,1.1-2.63,3-10.24,3-12.76,0-3.17.13-6.34,0-9.49a65.68,65.68,0,0,0-1-7.09c-.07-.42-.65-.78-.68-1.2-.29-3.89-2.73-6.87-4.18-10.27a29.33,29.33,0,0,0-11.79-13.39,46.59,46.59,0,0,0-21-6.92c-7-.58-14-1.42-21.07-1.28-16.32.33-32.65.11-49,.11H221.1v161H46.1V122.89c19-.93,37.69,1,56.32-1.19,2.2-.26,4.58.62,6.58-1,4.86.28,9.23-1.67,13.75-3a39.35,39.35,0,0,0,18.84-12.24c3.4-3.93,5.41-9,7.2-14,1.52-4.22,1.42-8.71,2.28-13,.54-2.75-.86-5.4-.89-8.08-.05-5.18-1.91-9.85-3.54-14.56-2.19-6.34-7.34-10.54-12-15a15.06,15.06,0,0,0-5.19-3.08c-2.62-.94-5.63-1-8.08-2.18-2.85-1.4-6.11,0-8.73-1.88-5.69-.34-11.38-.93-17.07-1-21.49-.11-43,0-64.47,0v-2h1257c-1,1.72-3.75.79-4.46,2.95-7.47,4.91-10.58,13.38-7.49,21.32a18.5,18.5,0,0,0,9.27,10.44,26.72,26.72,0,0,0,8,2.18,12,12,0,0,0,5.52-1c3.54-1.4,7.5-2.26,9.24-6.46.55-1.33,1.9-2.33,2.89-3.48v137h-52c0-.51.19-1.14,0-1.49-2.3-3.39-4.73-6.7-7-10.1-4-6-8-12-12-18-3-4.44-6.16-8.78-9.17-13.21-5.22-7.68-10.16-15.53-15.65-23s-10.36-15.34-15.46-23.07c-2-3.1-4-6.27-5.72-9.05,2.42-2.94,4.32-5.59,6.56-7.93,4.37-4.58,9-8.93,13.38-13.49s8.69-9.41,13.11-14c8.1-8.5,16.26-16.93,24.37-25.42a10.25,10.25,0,0,0,1.07-1.92h-18.23c-4.94,5.66-10.79,10.5-15.56,16.48S1207.93,60,1203.16,66c-4.09,5.12-9.28,9.26-13.46,14.41C1185,86.26,1179,91,1174.17,97c-4.42,5.49-10.15,9.81-14.51,15.48-2.89,3.77-6.68,6.85-10.51,10.68V32.7c-2.82,0-5.29,0-7.77,0a49.05,49.05,0,0,0-7.28.17V193.7h-80c0-.51.21-1.25,0-1.47-4.11-3.69-5.72-9.28-9.86-12.93-4.35-7.89-10.24-14.72-15.25-22.16-2.74-4.07-6-7.9-8.62-12-5.13-7.88-11-15.22-16.16-23.33,3.88-.15,7.48-1.53,11.16-2,4.66-.59,8.47-3.06,12.59-4.71s7.4-5,10.6-8.27a35.7,35.7,0,0,0,10.56-25.13c.08-3.33-.06-6.67,0-10,.09-2.92-1-5.54-1.73-8.28a40,40,0,0,0-7.17-14.57,35.6,35.6,0,0,0-12-10.09,48,48,0,0,0-17.9-4.9c-7-.62-14-1.44-21.06-1.3-16.32.33-32.65.11-49,.11H935.1v161h-66a5.75,5.75,0,0,1-1-1.6c-1.53-7.3-4.74-14.06-7.35-20.95-3.33-8.78-6.65-17.57-10.06-26.32-1.79-4.59-3.78-9.11-5.5-13.71-1.56-4.18-3.18-8.35-4.68-12.56-1.82-5.08-3.77-10.11-5.55-15.21-1.36-3.91-2.75-7.86-4.46-11.63-2.36-5.2-4.3-10.58-6.24-15.9-2.17-5.93-4.23-11.95-6.56-17.79-2.92-7.29-5.13-14.86-8.6-21.93a19.09,19.09,0,0,1-1-3.24H792.7c-1,2.12-1.91,3.89-2.58,5.76q-4,11.09-8.44,22c-1.53,3.71-3.42,7.3-4.5,11.13-1.59,5.68-4.29,10.9-6.17,16.45-1.67,5-4,9.67-5.89,14.55-2.11,5.46-4,11-6.08,16.47-1.51,3.87-3.49,7.57-4.9,11.47-2,5.65-4.1,11.29-6.39,16.85-1.52,3.7-3.42,7.28-4.59,11.09-2.3,7.54-5.81,14.6-8.43,22-1.54,4.36-3.67,8.51-4.63,13.08h-63V32.79H645.21c-1.26,5.31-4.22,10-5.11,15.39-3.93,7-5.11,15.21-9,22.27-.5,4.23-3.12,7.74-4,11.84s-3.64,7.57-4,11.85c-4.08,7-5.69,15-8.79,22.35-2,4.77-3.39,10-5.34,14.79-2,5-2.93,10.43-5.87,15.06-1.88,8.76-6.33,16.64-8.67,25.4-5.71-15.56-11.51-31-17.35-46.41s-11.85-31.07-18-46.55c-6-15.33-11.78-30.78-17.9-46.11-7.34.1-14.25-.09-21.13.11Z" transform="translate(-31.1 -30.7)"/>
    <path d="M520.1,193.7V32.78c6.88-.2,13.79,0,21.13-.11,6.12,15.33,11.86,30.78,17.9,46.11q9.15,23.22,18,46.55c5.84,15.42,11.64,30.85,17.35,46.41,2.34-8.76,6.79-16.64,8.67-25.4,2.94-4.63,3.86-10.06,5.87-15.06,1.95-4.84,3.34-10,5.34-14.79,3.1-7.39,4.71-15.37,8.79-22.35.35-4.28,3.1-7.75,4-11.85s3.51-7.61,4-11.84c3.89-7.06,5.07-15.22,9-22.27.89-5.4,3.85-10.08,5.11-15.39H667.1V193.7h-14q0-70.24,0-140.48c0-.12-.19-.27-.33-.35s-.23,0-.5,0c-.06.76.15,1.76-.24,2.31-3.06,4.24-2.78,9.87-5.91,14.06-1.7,8.39-5.57,16-8.3,24.07-1.87,5.52-4.13,10.94-6.22,16.41s-4.16,10.94-6.23,16.41c-1.91,5-3.92,10.05-5.53,15.22-1.42,4.54-3.62,8.84-5.19,13.34-1.68,4.8-3.59,9.51-5.5,14.22s-3.7,9.8-5.49,14.72c-1.22,3.33-2.37,6.69-3.54,10h-12a7.11,7.11,0,0,1-.7-1.22c-2.17-6.09-4.54-12.1-7-18.08-1.87-4.55-3.38-9.25-5.26-13.81-2.22-5.41-4-11-6.12-16.45-2-5.18-4-10.33-6-15.51-2.27-6-4.78-12-6.95-18.11-1.91-5.37-4.18-10.59-6.06-16-1.36-3.92-2.9-7.79-4.38-11.67C543,76,540.46,69,538.09,62c-1.05-3.12-2.19-6.21-3.29-9.31a10,10,0,0,0-.7,4.5c.43,17.84-1,35.73,1,53.54V193.7Z" transform="translate(-31.1 -30.7)"/>
    <path d="M935.1,193.7V32.7h5.23c16.33,0,32.66.22,49-.11,7.09-.14,14.09.68,21.06,1.3a48,48,0,0,1,17.9,4.9,35.6,35.6,0,0,1,12,10.09,40,40,0,0,1,7.17,14.57c.71,2.74,1.82,5.36,1.73,8.28-.1,3.33,0,6.67,0,10a35.7,35.7,0,0,1-10.56,25.13c-3.2,3.26-6.47,6.62-10.6,8.27s-7.93,4.12-12.59,4.71c-3.68.46-7.28,1.84-11.16,2,5.14,8.11,11,15.45,16.16,23.33,2.65,4.08,5.88,7.91,8.62,12,5,7.44,10.9,14.27,15.25,22.16,4.14,3.65,5.75,9.24,9.86,12.93.25.22,0,1,0,1.47h-18l-47.63-69.86c-13.65-.57-34.37-.36-38.37.4V193.7Zm15.1-84c9.4,0,18.4.12,27.4,0s17.78.88,26.58-1c3.53-.74,7.29-.93,10.55-2.31,5.5-2.32,10.94-5.09,13.94-10.78,2.42-4.59,4.72-9.23,4.44-14.67a45.71,45.71,0,0,1,0-5.49c.41-6.28-1.63-11.8-5-16.94-2.75-4.16-6.88-6.71-11.2-8.73-4.91-2.3-10.38-2.93-15.72-3-16-.23-32-.08-48-.08h-3Z" transform="translate(-31.1 -30.7)"/>
    <path d="M221.1,193.7V32.7h5.23c16.33,0,32.66.22,49-.11,7.09-.14,14.08.7,21.07,1.28a46.59,46.59,0,0,1,21,6.92,29.33,29.33,0,0,1,11.79,13.39c1.45,3.4,3.89,6.38,4.18,10.27,0,.42.61.78.68,1.2a65.68,65.68,0,0,1,1,7.09c.16,3.15,0,6.32,0,9.49,0,2.52-1.88,10.13-3,12.76-5.18,12.38-14.78,19.71-27.22,23.67-4.76,1.51-9.54,3.13-15.1,3.09,2.58,3.72,4.79,7.1,7.21,10.31,5.44,7.21,10.23,14.86,15.79,22,4.23,5.42,7.21,11.81,11.51,17.15,5.1,6.33,9,13.48,14.35,19.61a12.61,12.61,0,0,1,1.45,2.89h-19c-.12-.62,0-1.41-.39-1.83-3.88-4.62-6.15-10.4-10.56-14.63-4.93-8.61-11-16.47-16.59-24.61-4.81-7-9.42-14.09-14.16-21.11-1.85-2.74-3.82-5.39-5.55-7.82-6.69,0-12.85,0-19,0s-12.51-.26-18.74.18V193.7Zm15.17-147v63c13,0,25.79-.14,38.6,0a80,80,0,0,0,20.65-2.1,59.06,59.06,0,0,0,8.26-3c4.65-1.94,8-5.64,11-9.39,2.59-3.25,3.63-7.65,4.14-11.69.8-6.41.61-13-1.94-19.11-1.7-4-3.77-8.17-7.59-10.73A40.94,40.94,0,0,0,300,48.81a36.87,36.87,0,0,0-11.13-2C271.39,46.58,253.92,46.7,236.27,46.7Z" transform="translate(-31.1 -30.7)"/>
    <path d="M1134.1,193.7V32.88a49.05,49.05,0,0,1,7.28-.17c2.48-.05,4.95,0,7.77,0v90.44c3.83-3.83,7.62-6.91,10.51-10.68,4.36-5.67,10.09-10,14.51-15.48C1179,91,1185,86.26,1189.7,80.4c4.18-5.15,9.37-9.29,13.46-14.41,4.77-6,10.82-10.69,15.53-16.58s10.62-10.82,15.56-16.48h18.23a10.25,10.25,0,0,1-1.07,1.92c-8.11,8.49-16.27,16.92-24.37,25.42-4.42,4.64-8.66,9.44-13.11,14s-9,8.91-13.38,13.49c-2.24,2.34-4.14,5-6.56,7.93,1.75,2.78,3.67,6,5.72,9.05,5.1,7.73,10,15.61,15.46,23.07s10.43,15.36,15.65,23c3,4.43,6.16,8.77,9.17,13.21,4,6,8,12,12,18,2.3,3.4,4.73,6.71,7,10.1.23.35,0,1,0,1.49h-18a5.28,5.28,0,0,0-.38-1.84c-2.5-3.64-5.17-7.16-7.61-10.84-8.31-12.52-16.53-25.11-24.84-37.63-4.77-7.2-9.61-14.34-14.46-21.47-3.49-5.14-7-10.23-10.8-15.65-2.28,2.37-4.15,4.75-6.17,7-5.73,6.36-12.12,12.09-17.62,18.69-3.07,3.68-6.78,6.83-10.12,10.15V193.7Z" transform="translate(-31.1 -30.7)"/>
    <path d="M31.1,32.7c21.49,0,43-.07,64.47,0,5.69,0,11.38.62,17.07,1,2.62,1.85,5.88.48,8.73,1.88,2.45,1.21,5.46,1.24,8.08,2.18a15.06,15.06,0,0,1,5.19,3.08c4.66,4.45,9.81,8.65,12,15,1.63,4.71,3.49,9.38,3.54,14.56,0,2.68,1.43,5.33.89,8.08-.86,4.33-.76,8.82-2.28,13-1.79,5-3.8,10-7.2,14a39.35,39.35,0,0,1-18.84,12.24c-4.52,1.32-8.89,3.27-13.75,3-2,1.62-4.38.74-6.58,1-18.63,2.2-37.34.26-56.32,1.19V193.7h-15Zm15.12,76h4c13.66,0,27.32,0,41,0a63.15,63.15,0,0,0,10.13-.71c4-.69,8.09-1.33,12.14-2.16,10-2.07,16-8.27,19.6-17.37a23.32,23.32,0,0,0,1.12-6.57c.21-2.35,1.23-4.65.87-7.08-.2-1.39-.65-2.73-1-4.09s-.16-2.78-.54-4.25a27.82,27.82,0,0,0-4.57-9.1c-3.94-5.53-9.93-8.42-16.42-9.44-3-.47-6-1.32-9.06-1.22s-6.33,0-9.49,0H46.22Z" transform="translate(-31.1 -30.7)"/>
    <path d="M730.1,193.7c1-4.57,3.09-8.72,4.63-13.08,2.62-7.4,6.13-14.46,8.43-22,1.17-3.81,3.07-7.39,4.59-11.09,2.29-5.56,4.35-11.2,6.39-16.85,1.41-3.9,3.39-7.6,4.9-11.47,2.12-5.45,4-11,6.08-16.47,1.88-4.88,4.22-9.6,5.89-14.55,1.88-5.55,4.58-10.77,6.17-16.45,1.08-3.83,3-7.42,4.5-11.13q4.47-10.89,8.44-22c.67-1.87,1.62-3.64,2.58-5.76h15.47a19.09,19.09,0,0,0,1,3.24c3.47,7.07,5.68,14.64,8.6,21.93,2.33,5.84,4.39,11.86,6.56,17.79,1.94,5.32,3.88,10.7,6.24,15.9,1.71,3.77,3.1,7.72,4.46,11.63,1.78,5.1,3.73,10.13,5.55,15.21,1.5,4.21,3.12,8.38,4.68,12.56,1.72,4.6,3.71,9.12,5.5,13.71,3.41,8.75,6.73,17.54,10.06,26.32,2.61,6.89,5.82,13.65,7.35,20.95a5.75,5.75,0,0,0,1,1.6h-17c-1.18-3.68-2.26-7.38-3.54-11-1.74-4.93-3.67-9.79-5.46-14.71-2.46-6.78-4.87-13.58-7.21-20.12H763.36c-2.54,5.8-4.19,11.76-6.49,17.45-2.66,6.56-4.64,13.36-7.5,19.86-1.12,2.57-2.57,5.42-2.27,8.54ZM799.82,50.19c-1.39,3.78-2.55,7-3.73,10.13-2.13,5.77-4.3,11.54-6.42,17.31-1.23,3.33-2.33,6.69-3.59,10-2.17,5.75-4.36,11.5-6.66,17.21-2.54,6.28-4.53,12.76-7.27,19-1,2.38-1.28,5.09-2.89,7.31-.39.53-.14,1.52-.19,2.38h61.17c-.42-1.9-.48-3.71-1.19-5.21-3.76-7.95-6.32-16.36-9.44-24.55-2.08-5.47-4.06-11-6.27-16.38-1.8-4.42-2.93-9.11-4.68-13.54-2.32-5.88-4.64-11.74-6.58-17.75C801.48,54.21,800.68,52.41,799.82,50.19Z" transform="translate(-31.1 -30.7)"/>
    <path class="cls-1" d="M1149.1,193.7V142.11c3.34-3.32,7.05-6.47,10.12-10.15,5.5-6.6,11.89-12.33,17.62-18.69,2-2.25,3.89-4.63,6.17-7,3.75,5.42,7.31,10.51,10.8,15.65,4.85,7.13,9.69,14.27,14.46,21.47,8.31,12.52,16.53,25.11,24.84,37.63,2.44,3.68,5.11,7.2,7.61,10.84a5.28,5.28,0,0,1,.38,1.84Z" transform="translate(-31.1 -30.7)"/>
    <path class="cls-1" d="M950.1,193.7V124.24c4-.76,24.72-1,38.37-.4l47.63,69.86Z" transform="translate(-31.1 -30.7)"/>
    <path class="cls-1" d="M236.1,193.7V123.89c6.23-.44,12.49-.12,18.74-.18s12.32,0,19,0c1.73,2.43,3.7,5.08,5.55,7.82,4.74,7,9.35,14.13,14.16,21.11,5.62,8.14,11.66,16,16.59,24.61,4.41,4.23,6.68,10,10.56,14.63.36.42.27,1.21.39,1.83Z" transform="translate(-31.1 -30.7)"/>
    <path class="cls-1" d="M747.1,193.7c-.3-3.12,1.15-6,2.27-8.54,2.86-6.5,4.84-13.3,7.5-19.86,2.3-5.69,4-11.65,6.49-17.45h72.53c2.34,6.54,4.75,13.34,7.21,20.12,1.79,4.92,3.72,9.78,5.46,14.71,1.28,3.64,2.36,7.34,3.54,11Z" transform="translate(-31.1 -30.7)"/>
    <path class="cls-1" d="M600.1,193.7c1.17-3.35,2.32-6.71,3.54-10,1.79-4.92,3.52-9.87,5.49-14.72s3.82-9.42,5.5-14.22c1.57-4.5,3.77-8.8,5.19-13.34,1.61-5.17,3.62-10.19,5.53-15.22q3.1-8.2,6.23-16.41c2.09-5.47,4.35-10.89,6.22-16.41,2.73-8,6.6-15.68,8.3-24.07,3.13-4.19,2.85-9.82,5.91-14.06.39-.55.18-1.55.24-2.31.27,0,.42-.08.5,0s.33.23.33.35q0,70.23,0,140.48Z" transform="translate(-31.1 -30.7)"/>
    <path class="cls-1" d="M535.1,193.7V110.75c-2-17.81-.57-35.7-1-53.54a10,10,0,0,1,.7-4.5c1.1,3.1,2.24,6.19,3.29,9.31,2.37,7,4.93,13.93,7.56,20.85,1.48,3.88,3,7.75,4.38,11.67,1.88,5.39,4.15,10.61,6.06,16,2.17,6.1,4.68,12.06,6.95,18.11,2,5.18,4,10.33,6,15.51,2.09,5.46,3.9,11,6.12,16.45,1.88,4.56,3.39,9.26,5.26,13.81,2.46,6,4.83,12,7,18.08a7.11,7.11,0,0,0,.7,1.22Z" transform="translate(-31.1 -30.7)"/>
    <path d="M418.1,193.7V32.89c2.37-.44,4.82-.13,7.25-.18s4.95,0,7.75,0v161Z" transform="translate(-31.1 -30.7)"/>
    <path d="M1311.1,56.7c-1,1.15-2.34,2.15-2.89,3.48-1.74,4.2-5.7,5.06-9.24,6.46a12,12,0,0,1-5.52,1,26.72,26.72,0,0,1-8-2.18A18.5,18.5,0,0,1,1276.15,55c-3.09-7.94,0-16.41,7.49-21.32.71-2.16,3.47-1.23,4.46-2.95h11c.11.27.21.79.33.79,2.89.12,4.9,1.76,6.72,3.76l4.95,5.45Zm-32-13.29c0,2.79.09,5.45,0,8.11-.18,3.89,2.14,6.75,4.59,9a11.64,11.64,0,0,0,10.09,3.22,21.33,21.33,0,0,1,4.21,0c7.27-2.94,11.38-7.6,11.09-15-.28-7.07-3.68-12.23-11.1-14.94-3.49,0-7.72-.53-11.78,1.36C1283.9,37.73,1280.76,39.71,1279.1,43.41Z" transform="translate(-31.1 -30.7)"/>
    <path class="cls-1" d="M1311.1,40.7l-4.95-5.45c-1.82-2-3.83-3.64-6.72-3.76-.12,0-.22-.52-.33-.79h12Z" transform="translate(-31.1 -30.7)"/>
    <path class="cls-1" d="M950.2,109.7v-63h3c16,0,32-.15,48,.08,5.34.07,10.81.7,15.72,3,4.32,2,8.45,4.57,11.2,8.73,3.39,5.14,5.43,10.66,5,16.94a45.71,45.71,0,0,0,0,5.49c.28,5.44-2,10.08-4.44,14.67-3,5.69-8.44,8.46-13.94,10.78-3.26,1.38-7,1.57-10.55,2.31-8.8,1.84-17.72.8-26.58,1S959.6,109.7,950.2,109.7Z" transform="translate(-31.1 -30.7)"/>
    <path class="cls-1" d="M236.27,46.7c17.65,0,35.12-.12,52.59.09a36.87,36.87,0,0,1,11.13,2,40.94,40.94,0,0,1,9.42,4.94c3.82,2.56,5.89,6.7,7.59,10.73,2.55,6.08,2.74,12.7,1.94,19.11-.51,4-1.55,8.44-4.14,11.69-3,3.75-6.37,7.45-11,9.39a59.06,59.06,0,0,1-8.26,3,80,80,0,0,1-20.65,2.1c-12.81-.19-25.62,0-38.6,0Z" transform="translate(-31.1 -30.7)"/>
    <path class="cls-1" d="M46.22,108.7v-62H94c3.16,0,6.33.08,9.49,0s6.1.75,9.06,1.22c6.49,1,12.48,3.91,16.42,9.44a27.82,27.82,0,0,1,4.57,9.1c.38,1.47.21,2.86.54,4.25s.77,2.7,1,4.09c.36,2.43-.66,4.73-.87,7.08a23.32,23.32,0,0,1-1.12,6.57c-3.58,9.1-9.62,15.3-19.6,17.37-4,.83-8.09,1.47-12.14,2.16a63.15,63.15,0,0,1-10.13.71c-13.66.09-27.32,0-41,0Z" transform="translate(-31.1 -30.7)"/>
    <path class="cls-1" d="M799.82,50.19c.86,2.22,1.66,4,2.26,5.88,1.94,6,4.26,11.87,6.58,17.75,1.75,4.43,2.88,9.12,4.68,13.54,2.21,5.42,4.19,10.91,6.27,16.38,3.12,8.19,5.68,16.6,9.44,24.55.71,1.5.77,3.31,1.19,5.21H769.07c0-.86-.2-1.85.19-2.38,1.61-2.22,1.84-4.93,2.89-7.31,2.74-6.2,4.73-12.68,7.27-19,2.3-5.71,4.49-11.46,6.66-17.21,1.26-3.32,2.36-6.68,3.59-10,2.12-5.77,4.29-11.54,6.42-17.31C797.27,57.15,798.43,54,799.82,50.19Z" transform="translate(-31.1 -30.7)"/>
    <path class="cls-1" d="M1279.1,43.41c1.66-3.7,4.8-5.68,7.07-8.33,4.06-1.89,8.29-1.35,11.78-1.36,7.42,2.71,10.82,7.87,11.1,14.94.29,7.44-3.82,12.1-11.09,15a21.33,21.33,0,0,0-4.21,0,11.64,11.64,0,0,1-10.09-3.22c-2.45-2.25-4.77-5.11-4.59-9C1279.19,48.86,1279.1,46.2,1279.1,43.41Zm7.17-5.62V59.5c2,.42,3.73.48,5-1.83V51.73h2.21l5.21,8,4.06-.23c1.1-2.46-.91-3.22-1.71-4.52s-1.87-2.68-2.64-3.76l4.53-4.63c.54-4.6-.62-7.59-4.43-8.8Z" transform="translate(-31.1 -30.7)"/>
    <path d="M1286.27,37.79h12.27c3.81,1.21,5,4.2,4.43,8.8l-4.53,4.63c.77,1.08,1.78,2.37,2.64,3.76s2.81,2.06,1.71,4.52l-4.06.23-5.21-8h-2.21v5.94c-1.31,2.31-3,2.25-5,1.83Zm10.42,8.82c1.82-2.44,1.82-2.44,0-4.82h-5.43v4.82Z" transform="translate(-31.1 -30.7)"/>
    <path class="cls-1" d="M1296.69,46.61h-5.43V41.79h5.43C1298.51,44.17,1298.51,44.17,1296.69,46.61Z" transform="translate(-31.1 -30.7)"/>
  </g>
</svg>
