<svg id="Livello_1" data-name="Livello 1" xmlns="http://www.w3.org/2000/svg" width="161.76" height="28.8" viewBox="0 0 161.76 28.8">
  <defs>
    <style>
      .cls-1 {
        fill: #fff;
      }
    </style>
  </defs>
  <title>terraforma</title>
  <g>
    <path d="M181,115H19.24V86.24H181ZM141,90.33v21.78c1.21,0,2.34.07,3.53,0V95.64c1.1,5.63,2.16,11,3.24,16.49.59,0,1.1,0,1.61,0s.78,0,1.3-.07c1.12-5.42,2.22-10.8,3.36-16.33-.23,5.52-.09,10.9-.11,16.31h4.27a1.68,1.68,0,0,0,.13-.41q0-10.12,0-20.27c0-.27,0-.55-.05-.83a.3.3,0,0,0-.07-.1l-.09-.1h-5.91c-1,4.51-2.06,8.94-2.68,13.74-.42-2.53-.78-4.77-1.16-7s-.8-4.46-1.21-6.74Zm-82.7,21.73v-2.9c0-1,0-1.92,0-2.88a8.86,8.86,0,0,1,.16-2.75l1.18.11,2.47,8.48h2.39l2.36-.05-3.25-9.34c.23-.18.4-.34.59-.49a5.18,5.18,0,0,0,1.91-3,8.93,8.93,0,0,0,0-4.73c-.62-2.17-1.77-4-4.23-4.15-2.62-.18-5.26-.05-7.89-.06,0,0-.06,0-.09.07-.24,1.25-.19,20.75.06,21.65Zm14.74,0v-8.44h1.37c.83,2.85,1.65,5.67,2.46,8.43h4.76c-1.11-3.19-2.18-6.26-3.24-9.32a5.94,5.94,0,0,0,2.4-3.08,9.63,9.63,0,0,0,.16-5c-.66-2.73-2.32-4.42-5.32-4.39-2.08,0-4.15,0-6.23,0a4.92,4.92,0,0,0-.71.11v21.67ZM132,103.59l2.47,8.47h4.75L136,102.72a6,6,0,0,0,2.17-2.48,8.9,8.9,0,0,0,0-6.89,4.55,4.55,0,0,0-4.24-3c-2.44,0-4.88,0-7.31,0-.07,0-.14.08-.23.13a1.4,1.4,0,0,0-.09.31q0,10.2,0,20.39c0,.24,0,.48.06.72a.24.24,0,0,0,0,.1,1.25,1.25,0,0,0,.21.16c1.26,0,2.64,0,4.1,0,0-1.55,0-2.94,0-4.34s-.07-2.77.06-4.17ZM110.2,101c0,.67,0,1.36,0,2a19.28,19.28,0,0,0,1.35,6.16c1.77,4.19,8.21,4.23,10.39.91a10.2,10.2,0,0,0,1.45-3.65,28.4,28.4,0,0,0,.18-9.29,11.25,11.25,0,0,0-1.39-4.43,6.22,6.22,0,0,0-9.54-1.11,7.83,7.83,0,0,0-1.92,3.79A19.8,19.8,0,0,0,110.2,101ZM87.52,90.32l-5,21.72h4.08l.86-4.56H91.7l.94,4.57H97c-.08-1.49-4.55-20.94-5-21.73ZM174.4,112c-1.62-7.28-3.24-14.49-4.91-21.66h-4.72l-5,21.7h4.07c.31-1.57.6-3.08.89-4.59H169c.3,1.57.6,3.08.91,4.66h3.8A6.44,6.44,0,0,0,174.4,112ZM40.55,90.33c-.26,1.46-.19,20.87.05,21.7a84.66,84.66,0,0,0,11.18-.11v-3.68c-1.19,0-2.3,0-3.4,0a22,22,0,0,1-3.34-.09v-5.28c1.74-.11,3.44,0,5.18-.09a34.71,34.71,0,0,0,0-3.56c-1.8-.19-3.47.05-5.19-.16,0-1.67,0-3.24,0-4.9h3.48c1.1,0,2.21.06,3.31-.06V90.33ZM98.72,112a11.83,11.83,0,0,0,4.49-.12v-4.15c0-1.42,0-2.84,0-4.3,1.64-.13,3.15.06,4.67-.13a24.4,24.4,0,0,0,0-3.52c-1.63-.24-3.15.09-4.64-.2V94.15c1.06,0,2,0,3,0a20.49,20.49,0,0,0,3-.07V90.34H98.72Zm-63.56.14V101.42c0-1.16,0-2.32,0-3.48s0-2.3.07-3.56h3.58a30.21,30.21,0,0,0,0-4H27.15v4.1H30.6c0,3.06,0,6,0,8.89s-.07,5.81.06,8.8h4.49Z" transform="translate(-19.24 -86.24)"/>
    <path class="cls-1" d="M141,90.33h6.17c.41,2.28.82,4.5,1.21,6.74s.74,4.47,1.16,7c.62-4.8,1.71-9.23,2.68-13.74h5.91l.09.1a.3.3,0,0,1,.07.1c0,.28.05.56.05.83q0,10.14,0,20.27a1.68,1.68,0,0,1-.13.41H154c0-5.41-.12-10.79.11-16.31-1.14,5.53-2.24,10.91-3.36,16.33-.52,0-.91.06-1.3.07s-1,0-1.61,0c-1.08-5.49-2.14-10.86-3.24-16.49v16.43c-1.19.11-2.32,0-3.53,0Z" transform="translate(-19.24 -86.24)"/>
    <path class="cls-1" d="M58.32,112.06H54c-.25-.9-.3-20.4-.06-21.65,0,0,.06-.07.09-.07,2.63,0,5.27-.12,7.89.06,2.46.16,3.61,2,4.23,4.15a8.93,8.93,0,0,1,0,4.73,5.18,5.18,0,0,1-1.91,3c-.19.15-.36.31-.59.49l3.25,9.34-2.36.05H62.14l-2.47-8.48-1.18-.11a8.86,8.86,0,0,0-.16,2.75c0,1,0,1.92,0,2.88Zm.17-18.31a22,22,0,0,0,.07,6.15c.33,0,.69,0,1,0a2,2,0,0,0,2.15-1.83,9.06,9.06,0,0,0,0-2.6,1.89,1.89,0,0,0-1.87-1.71A12.7,12.7,0,0,0,58.49,93.75Z" transform="translate(-19.24 -86.24)"/>
    <path class="cls-1" d="M73.06,112.05H68.71V90.38a4.92,4.92,0,0,1,.71-.11c2.08,0,4.15,0,6.23,0,3,0,4.66,1.66,5.32,4.39a9.63,9.63,0,0,1-.16,5,5.94,5.94,0,0,1-2.4,3.08c1.06,3.06,2.13,6.13,3.24,9.32H76.89c-.81-2.76-1.63-5.58-2.46-8.43H73.06Zm.07-18.27v6a9.81,9.81,0,0,0,1,.08,2.15,2.15,0,0,0,2.47-2.17,8.71,8.71,0,0,0,0-1.91,2.12,2.12,0,0,0-2.31-2.08C73.93,93.72,73.58,93.76,73.13,93.78Z" transform="translate(-19.24 -86.24)"/>
    <path class="cls-1" d="M132,103.59h-1.29c-.13,1.4,0,2.79-.06,4.17s0,2.79,0,4.34c-1.46.06-2.84,0-4.1,0a1.25,1.25,0,0,1-.21-.16.24.24,0,0,1,0-.1c0-.24-.06-.48-.06-.72q0-10.19,0-20.39a1.4,1.4,0,0,1,.09-.31c.09,0,.16-.13.23-.13,2.43,0,4.87,0,7.31,0a4.55,4.55,0,0,1,4.24,3,8.9,8.9,0,0,1,0,6.89,6,6,0,0,1-2.17,2.48l3.23,9.34h-4.75Zm-1.29-3.75c.44,0,.79.06,1.14,0a2.09,2.09,0,0,0,2.31-2.08,8.15,8.15,0,0,0,0-2.26A2,2,0,0,0,132,93.74c-.42,0-.85,0-1.35,0Z" transform="translate(-19.24 -86.24)"/>
    <path class="cls-1" d="M110.2,101a19.8,19.8,0,0,1,.52-5.59,7.83,7.83,0,0,1,1.92-3.79,6.22,6.22,0,0,1,9.54,1.11,11.25,11.25,0,0,1,1.39,4.43,28.4,28.4,0,0,1-.18,9.29,10.2,10.2,0,0,1-1.45,3.65c-2.18,3.32-8.62,3.28-10.39-.91A19.28,19.28,0,0,1,110.2,103C110.16,102.34,110.2,101.65,110.2,101Zm8.87.27c-.07-1.42-.12-3-.25-4.68a7,7,0,0,0-.46-1.84,1.31,1.31,0,0,0-1.33-.84,1.33,1.33,0,0,0-1.35.8,5.55,5.55,0,0,0-.45,1.47,50.5,50.5,0,0,0-.15,9,9.57,9.57,0,0,0,.52,2.45,1.38,1.38,0,0,0,1.52.92,1.35,1.35,0,0,0,1.37-1,7.63,7.63,0,0,0,.34-1.63C118.93,104.42,119,102.94,119.07,101.25Z" transform="translate(-19.24 -86.24)"/>
    <path class="cls-1" d="M87.52,90.32h4.53c.44.79,4.91,20.24,5,21.73h-4.4l-.94-4.57H87.48L86.62,112H82.54ZM89.62,96h-.16c-.49,2.56-1,5.11-1.47,7.76h3.19C90.65,101.09,90.14,98.54,89.62,96Z" transform="translate(-19.24 -86.24)"/>
    <path class="cls-1" d="M174.4,112a6.44,6.44,0,0,1-.72.11h-3.8c-.31-1.58-.61-3.09-.91-4.66h-4.22c-.29,1.51-.58,3-.89,4.59h-4.07l5-21.7h4.72C171.16,97.52,172.78,104.73,174.4,112ZM166.77,95.6l-1.54,8.12h3.21C167.88,101,167.35,98.41,166.77,95.6Z" transform="translate(-19.24 -86.24)"/>
    <path class="cls-1" d="M40.55,90.33H51.79v3.76c-1.1.12-2.21,0-3.31.06H45c0,1.66,0,3.23,0,4.9,1.72.21,3.39,0,5.19.16a34.71,34.71,0,0,1,0,3.56c-1.74.14-3.44,0-5.18.09v5.28a22,22,0,0,0,3.34.09c1.1,0,2.21,0,3.4,0v3.68A84.66,84.66,0,0,1,40.6,112C40.36,111.2,40.29,91.79,40.55,90.33Z" transform="translate(-19.24 -86.24)"/>
    <path class="cls-1" d="M98.72,112V90.34h10.64v3.73a20.49,20.49,0,0,1-3,.07c-1,0-2,0-3,0v5.42c1.49.29,3,0,4.64.2a24.4,24.4,0,0,1,0,3.52c-1.52.19-3,0-4.67.13-.06,1.46,0,2.88,0,4.3v4.15A11.83,11.83,0,0,1,98.72,112Z" transform="translate(-19.24 -86.24)"/>
    <path class="cls-1" d="M35.16,112.13H30.67c-.13-3-.05-5.9-.06-8.8s0-5.83,0-8.89H27.15v-4.1H38.8a30.21,30.21,0,0,1,0,4H35.23c-.12,1.26-.06,2.42-.07,3.56s0,2.32,0,3.48v10.71Z" transform="translate(-19.24 -86.24)"/>
    <path d="M58.49,93.75a12.7,12.7,0,0,1,1.38,0,1.89,1.89,0,0,1,1.87,1.71,9.06,9.06,0,0,1,0,2.6,2,2,0,0,1-2.15,1.83c-.35,0-.71,0-1,0A22,22,0,0,1,58.49,93.75Z" transform="translate(-19.24 -86.24)"/>
    <path d="M73.13,93.78c.45,0,.8-.06,1.15,0a2.12,2.12,0,0,1,2.31,2.08,8.71,8.71,0,0,1,0,1.91,2.15,2.15,0,0,1-2.47,2.17,9.81,9.81,0,0,1-1-.08Z" transform="translate(-19.24 -86.24)"/>
    <path d="M130.69,99.84V93.73c.5,0,.93,0,1.35,0a2,2,0,0,1,2.07,1.81,8.15,8.15,0,0,1,0,2.26,2.09,2.09,0,0,1-2.31,2.08C131.48,99.9,131.13,99.86,130.69,99.84Z" transform="translate(-19.24 -86.24)"/>
    <path d="M119.07,101.25c-.09,1.69-.14,3.17-.24,4.64a7.63,7.63,0,0,1-.34,1.63,1.35,1.35,0,0,1-1.37,1,1.38,1.38,0,0,1-1.52-.92,9.57,9.57,0,0,1-.52-2.45,50.5,50.5,0,0,1,.15-9,5.55,5.55,0,0,1,.45-1.47,1.33,1.33,0,0,1,1.35-.8,1.31,1.31,0,0,1,1.33.84,7,7,0,0,1,.46,1.84C119,98.2,119,99.83,119.07,101.25Z" transform="translate(-19.24 -86.24)"/>
    <path d="M89.62,96c.52,2.56,1,5.11,1.56,7.75H88c.5-2.65,1-5.2,1.47-7.76Z" transform="translate(-19.24 -86.24)"/>
    <path d="M166.77,95.6c.58,2.81,1.11,5.41,1.67,8.12h-3.21Z" transform="translate(-19.24 -86.24)"/>
  </g>
</svg>
